G04 #@! TF.GenerationSoftware,KiCad,Pcbnew,5.1.5*
G04 #@! TF.CreationDate,2019-12-31T20:12:46-05:00*
G04 #@! TF.ProjectId,cm300-board,636d3330-302d-4626-9f61-72642e6b6963,rev?*
G04 #@! TF.SameCoordinates,Original*
G04 #@! TF.FileFunction,Legend,Bot*
G04 #@! TF.FilePolarity,Positive*
%FSLAX46Y46*%
G04 Gerber Fmt 4.6, Leading zero omitted, Abs format (unit mm)*
G04 Created by KiCad (PCBNEW 5.1.5) date 2019-12-31 20:12:46*
%MOMM*%
%LPD*%
G04 APERTURE LIST*
%ADD10C,0.150000*%
G04 APERTURE END LIST*
D10*
X-999696952Y1035851619D02*
X-999696952Y1035137333D01*
X-999649333Y1034994476D01*
X-999554095Y1034899238D01*
X-999411238Y1034851619D01*
X-999316000Y1034851619D01*
X-1000649333Y1034851619D02*
X-1000173142Y1034851619D01*
X-1000173142Y1035851619D01*
X-1001554095Y1034946857D02*
X-1001506476Y1034899238D01*
X-1001363619Y1034851619D01*
X-1001268380Y1034851619D01*
X-1001125523Y1034899238D01*
X-1001030285Y1034994476D01*
X-1000982666Y1035089714D01*
X-1000935047Y1035280190D01*
X-1000935047Y1035423047D01*
X-1000982666Y1035613523D01*
X-1001030285Y1035708761D01*
X-1001125523Y1035804000D01*
X-1001268380Y1035851619D01*
X-1001363619Y1035851619D01*
X-1001506476Y1035804000D01*
X-1001554095Y1035756380D01*
X-1002268380Y1035851619D02*
X-1002268380Y1035137333D01*
X-1002220761Y1034994476D01*
X-1002125523Y1034899238D01*
X-1001982666Y1034851619D01*
X-1001887428Y1034851619D01*
X-1003220761Y1034851619D02*
X-1002744571Y1034851619D01*
X-1002744571Y1035851619D01*
X-1004125523Y1034946857D02*
X-1004077904Y1034899238D01*
X-1003935047Y1034851619D01*
X-1003839809Y1034851619D01*
X-1003696952Y1034899238D01*
X-1003601714Y1034994476D01*
X-1003554095Y1035089714D01*
X-1003506476Y1035280190D01*
X-1003506476Y1035423047D01*
X-1003554095Y1035613523D01*
X-1003601714Y1035708761D01*
X-1003696952Y1035804000D01*
X-1003839809Y1035851619D01*
X-1003935047Y1035851619D01*
X-1004077904Y1035804000D01*
X-1004125523Y1035756380D01*
X-1004839809Y1035851619D02*
X-1004839809Y1035137333D01*
X-1004792190Y1034994476D01*
X-1004696952Y1034899238D01*
X-1004554095Y1034851619D01*
X-1004458857Y1034851619D01*
X-1005792190Y1034851619D02*
X-1005316000Y1034851619D01*
X-1005316000Y1035851619D01*
X-1006696952Y1034946857D02*
X-1006649333Y1034899238D01*
X-1006506476Y1034851619D01*
X-1006411238Y1034851619D01*
X-1006268380Y1034899238D01*
X-1006173142Y1034994476D01*
X-1006125523Y1035089714D01*
X-1006077904Y1035280190D01*
X-1006077904Y1035423047D01*
X-1006125523Y1035613523D01*
X-1006173142Y1035708761D01*
X-1006268380Y1035804000D01*
X-1006411238Y1035851619D01*
X-1006506476Y1035851619D01*
X-1006649333Y1035804000D01*
X-1006696952Y1035756380D01*
X-1007411238Y1035851619D02*
X-1007411238Y1035137333D01*
X-1007363619Y1034994476D01*
X-1007268380Y1034899238D01*
X-1007125523Y1034851619D01*
X-1007030285Y1034851619D01*
X-1008363619Y1034851619D02*
X-1007887428Y1034851619D01*
X-1007887428Y1035851619D01*
X-1009268380Y1034946857D02*
X-1009220761Y1034899238D01*
X-1009077904Y1034851619D01*
X-1008982666Y1034851619D01*
X-1008839809Y1034899238D01*
X-1008744571Y1034994476D01*
X-1008696952Y1035089714D01*
X-1008649333Y1035280190D01*
X-1008649333Y1035423047D01*
X-1008696952Y1035613523D01*
X-1008744571Y1035708761D01*
X-1008839809Y1035804000D01*
X-1008982666Y1035851619D01*
X-1009077904Y1035851619D01*
X-1009220761Y1035804000D01*
X-1009268380Y1035756380D01*
M02*
