G04 #@! TF.GenerationSoftware,KiCad,Pcbnew,7.0.1*
G04 #@! TF.CreationDate,2023-05-13T21:13:20-04:00*
G04 #@! TF.ProjectId,cm300-board,636d3330-302d-4626-9f61-72642e6b6963,rev?*
G04 #@! TF.SameCoordinates,Original*
G04 #@! TF.FileFunction,Copper,L1,Top*
G04 #@! TF.FilePolarity,Positive*
%FSLAX46Y46*%
G04 Gerber Fmt 4.6, Leading zero omitted, Abs format (unit mm)*
G04 Created by KiCad (PCBNEW 7.0.1) date 2023-05-13 21:13:20*
%MOMM*%
%LPD*%
G01*
G04 APERTURE LIST*
G04 Aperture macros list*
%AMRoundRect*
0 Rectangle with rounded corners*
0 $1 Rounding radius*
0 $2 $3 $4 $5 $6 $7 $8 $9 X,Y pos of 4 corners*
0 Add a 4 corners polygon primitive as box body*
4,1,4,$2,$3,$4,$5,$6,$7,$8,$9,$2,$3,0*
0 Add four circle primitives for the rounded corners*
1,1,$1+$1,$2,$3*
1,1,$1+$1,$4,$5*
1,1,$1+$1,$6,$7*
1,1,$1+$1,$8,$9*
0 Add four rect primitives between the rounded corners*
20,1,$1+$1,$2,$3,$4,$5,0*
20,1,$1+$1,$4,$5,$6,$7,0*
20,1,$1+$1,$6,$7,$8,$9,0*
20,1,$1+$1,$8,$9,$2,$3,0*%
G04 Aperture macros list end*
G04 #@! TA.AperFunction,SMDPad,CuDef*
%ADD10RoundRect,0.250000X0.300000X-0.300000X0.300000X0.300000X-0.300000X0.300000X-0.300000X-0.300000X0*%
G04 #@! TD*
G04 #@! TA.AperFunction,SMDPad,CuDef*
%ADD11RoundRect,0.250000X-1.000000X-0.900000X1.000000X-0.900000X1.000000X0.900000X-1.000000X0.900000X0*%
G04 #@! TD*
G04 #@! TA.AperFunction,ComponentPad*
%ADD12R,2.100000X2.100000*%
G04 #@! TD*
G04 #@! TA.AperFunction,ComponentPad*
%ADD13C,2.100000*%
G04 #@! TD*
G04 #@! TA.AperFunction,SMDPad,CuDef*
%ADD14RoundRect,0.249999X-0.450001X-1.425001X0.450001X-1.425001X0.450001X1.425001X-0.450001X1.425001X0*%
G04 #@! TD*
G04 #@! TA.AperFunction,SMDPad,CuDef*
%ADD15RoundRect,0.249999X-1.425001X0.450001X-1.425001X-0.450001X1.425001X-0.450001X1.425001X0.450001X0*%
G04 #@! TD*
G04 #@! TA.AperFunction,SMDPad,CuDef*
%ADD16RoundRect,0.250000X1.000000X0.900000X-1.000000X0.900000X-1.000000X-0.900000X1.000000X-0.900000X0*%
G04 #@! TD*
G04 #@! TA.AperFunction,ComponentPad*
%ADD17RoundRect,0.750000X0.750000X-1.250000X0.750000X1.250000X-0.750000X1.250000X-0.750000X-1.250000X0*%
G04 #@! TD*
G04 #@! TA.AperFunction,SMDPad,CuDef*
%ADD18RoundRect,0.249999X0.450001X1.425001X-0.450001X1.425001X-0.450001X-1.425001X0.450001X-1.425001X0*%
G04 #@! TD*
G04 #@! TA.AperFunction,SMDPad,CuDef*
%ADD19RoundRect,0.250000X-0.625000X0.400000X-0.625000X-0.400000X0.625000X-0.400000X0.625000X0.400000X0*%
G04 #@! TD*
G04 #@! TA.AperFunction,SMDPad,CuDef*
%ADD20RoundRect,0.250000X0.625000X-0.400000X0.625000X0.400000X-0.625000X0.400000X-0.625000X-0.400000X0*%
G04 #@! TD*
G04 #@! TA.AperFunction,ViaPad*
%ADD21C,0.800000*%
G04 #@! TD*
G04 #@! TA.AperFunction,Conductor*
%ADD22C,1.000000*%
G04 #@! TD*
G04 #@! TA.AperFunction,Conductor*
%ADD23C,0.250000*%
G04 #@! TD*
G04 APERTURE END LIST*
D10*
X-1003550000Y1043250000D03*
X-1003550000Y1046050000D03*
D11*
X-995450000Y1045845000D03*
X-991150000Y1045845000D03*
D12*
X-993040000Y1039368000D03*
D13*
X-990500000Y1039368000D03*
D14*
X-1003250000Y1037550000D03*
X-997150000Y1037550000D03*
D15*
X-999650000Y1047400000D03*
X-999650000Y1041300000D03*
D10*
X-968375000Y1043305000D03*
X-968375000Y1046105000D03*
D16*
X-976600000Y1045850000D03*
X-980900000Y1045850000D03*
D17*
X-999140000Y1055220000D03*
X-999140000Y1051560000D03*
X-993140000Y1055220000D03*
X-993140000Y1051560000D03*
X-979140000Y1055220000D03*
X-979140000Y1051560000D03*
X-973140000Y1055220000D03*
X-973140000Y1051560000D03*
D15*
X-972185000Y1047500000D03*
X-972185000Y1041400000D03*
D18*
X-968750000Y1037600000D03*
X-974850000Y1037600000D03*
D12*
X-981540000Y1039368000D03*
D13*
X-979000000Y1039368000D03*
D19*
X-969000000Y1055050000D03*
X-969000000Y1051950000D03*
D20*
X-1003050000Y1052000000D03*
X-1003050000Y1055100000D03*
D21*
X-1003050000Y1052000000D03*
X-1003300000Y1037550000D03*
X-995550000Y1045850000D03*
X-1003550000Y1046050000D03*
X-969050000Y1051950000D03*
X-976600000Y1045850000D03*
X-968800000Y1037600000D03*
X-968400000Y1046050000D03*
D22*
X-1003550000Y1043500000D02*
X-999650000Y1047400000D01*
X-1003550000Y1043250000D02*
X-1003550000Y1043500000D01*
X-972185000Y1047115000D02*
X-968375000Y1043305000D01*
X-972185000Y1047500000D02*
X-972185000Y1047115000D01*
D23*
X-981200000Y1045845000D02*
X-981540000Y1045505000D01*
D22*
X-974850000Y1038735000D02*
X-972185000Y1041400000D01*
X-974850000Y1037600000D02*
X-974850000Y1038735000D01*
X-979000000Y1039368000D02*
X-977232000Y1037600000D01*
X-977232000Y1037600000D02*
X-974850000Y1037600000D01*
X-997150000Y1037550000D02*
X-997150000Y1038800000D01*
X-997150000Y1037550000D02*
X-994900000Y1037550000D01*
D23*
X-993040000Y1039160000D02*
X-993040000Y1039368000D01*
X-993082000Y1039368000D02*
X-993040000Y1039368000D01*
D22*
X-994900000Y1037550000D02*
X-993082000Y1039368000D01*
X-996950000Y1037590000D02*
X-996950000Y1038225000D01*
X-997150000Y1038800000D02*
X-999650000Y1041300000D01*
G04 #@! TA.AperFunction,Conductor*
G36*
X-969044605Y1057999528D02*
G01*
X-969022209Y1057997568D01*
X-968843749Y1057981955D01*
X-968822464Y1057978202D01*
X-968632952Y1057927423D01*
X-968612640Y1057920030D01*
X-968434830Y1057837116D01*
X-968416115Y1057826310D01*
X-968265000Y1057720499D01*
X-968255401Y1057713778D01*
X-968238843Y1057699884D01*
X-968100115Y1057561156D01*
X-968086222Y1057544600D01*
X-967973686Y1057383881D01*
X-967962886Y1057365175D01*
X-967879966Y1057187352D01*
X-967872576Y1057167047D01*
X-967821797Y1056977535D01*
X-967818044Y1056956249D01*
X-967800472Y1056755395D01*
X-967800000Y1056744588D01*
X-967800000Y1056198706D01*
X-967817066Y1056135927D01*
X-967863568Y1056090429D01*
X-967926704Y1056074735D01*
X-967989096Y1056093167D01*
X-968055877Y1056134357D01*
X-968222303Y1056189506D01*
X-968325021Y1056200000D01*
X-968700000Y1056200000D01*
X-968700000Y1053900001D01*
X-968325021Y1053900001D01*
X-968222304Y1053910493D01*
X-968055877Y1053965642D01*
X-967989096Y1054006833D01*
X-967926704Y1054025265D01*
X-967863568Y1054009571D01*
X-967817066Y1053964073D01*
X-967800000Y1053901294D01*
X-967800000Y1053099293D01*
X-967817066Y1053036514D01*
X-967863568Y1052991016D01*
X-967926704Y1052975322D01*
X-967989096Y1052993754D01*
X-968025443Y1053016172D01*
X-968055666Y1053034814D01*
X-968167017Y1053071712D01*
X-968222202Y1053089999D01*
X-968232703Y1053091071D01*
X-968324991Y1053100500D01*
X-969675008Y1053100499D01*
X-969777797Y1053089999D01*
X-969944334Y1053034814D01*
X-970093656Y1052942712D01*
X-970217712Y1052818656D01*
X-970309814Y1052669334D01*
X-970364999Y1052502797D01*
X-970375500Y1052400009D01*
X-970375499Y1051499992D01*
X-970364999Y1051397203D01*
X-970309814Y1051230666D01*
X-970309813Y1051230665D01*
X-970217711Y1051081342D01*
X-970093657Y1050957288D01*
X-969944334Y1050865186D01*
X-969777797Y1050810000D01*
X-969675009Y1050799500D01*
X-968324991Y1050799500D01*
X-968222203Y1050810000D01*
X-968055665Y1050865186D01*
X-967989096Y1050906246D01*
X-967926704Y1050924678D01*
X-967863568Y1050908984D01*
X-967817066Y1050863486D01*
X-967800000Y1050800707D01*
X-967800000Y1047269828D01*
X-967818778Y1047204220D01*
X-967869426Y1047158483D01*
X-967936602Y1047146470D01*
X-968024991Y1047155500D01*
X-968725008Y1047155499D01*
X-968827797Y1047144999D01*
X-968994334Y1047089814D01*
X-969143656Y1046997712D01*
X-969267712Y1046873656D01*
X-969359814Y1046724334D01*
X-969414999Y1046557797D01*
X-969425500Y1046455009D01*
X-969425499Y1046069781D01*
X-969439014Y1046013486D01*
X-969476613Y1045969463D01*
X-969530101Y1045947308D01*
X-969587817Y1045951850D01*
X-969637180Y1045982100D01*
X-970124333Y1046469253D01*
X-970153579Y1046515655D01*
X-970159947Y1046570133D01*
X-970142191Y1046622030D01*
X-970075186Y1046730664D01*
X-970020000Y1046897201D01*
X-970009500Y1046999990D01*
X-970009500Y1048000010D01*
X-970020000Y1048102798D01*
X-970075186Y1048269335D01*
X-970167288Y1048418657D01*
X-970291342Y1048542711D01*
X-970347896Y1048577593D01*
X-970440665Y1048634814D01*
X-970552015Y1048671712D01*
X-970607201Y1048689999D01*
X-970709990Y1048700500D01*
X-973660010Y1048700500D01*
X-973762798Y1048689999D01*
X-973929335Y1048634814D01*
X-974078656Y1048542712D01*
X-974202712Y1048418656D01*
X-974294814Y1048269335D01*
X-974349998Y1048102798D01*
X-974349999Y1048102798D01*
X-974360500Y1048000010D01*
X-974360500Y1046999990D01*
X-974350571Y1046902796D01*
X-974349999Y1046897202D01*
X-974294814Y1046730665D01*
X-974294813Y1046730664D01*
X-974202711Y1046581342D01*
X-974078657Y1046457288D01*
X-973929335Y1046365186D01*
X-973762798Y1046310000D01*
X-973660010Y1046299500D01*
X-972835783Y1046299500D01*
X-972788330Y1046290061D01*
X-972748102Y1046263181D01*
X-969455053Y1042970132D01*
X-969430735Y1042935671D01*
X-969419376Y1042895052D01*
X-969414999Y1042852203D01*
X-969359814Y1042685666D01*
X-969302593Y1042592895D01*
X-969267711Y1042536342D01*
X-969143657Y1042412288D01*
X-968994334Y1042320186D01*
X-968827797Y1042265000D01*
X-968734535Y1042255473D01*
X-968725009Y1042254500D01*
X-968725008Y1042254500D01*
X-968024991Y1042254500D01*
X-967936601Y1042263530D01*
X-967869425Y1042251516D01*
X-967818778Y1042205779D01*
X-967800000Y1042140172D01*
X-967800000Y1039820553D01*
X-967817066Y1039757774D01*
X-967863568Y1039712276D01*
X-967926705Y1039696582D01*
X-967965941Y1039708173D01*
X-967966908Y1039705255D01*
X-967980663Y1039709813D01*
X-967980665Y1039709814D01*
X-968125398Y1039757774D01*
X-968147201Y1039764999D01*
X-968249990Y1039775500D01*
X-969250010Y1039775500D01*
X-969352798Y1039764999D01*
X-969519335Y1039709814D01*
X-969668656Y1039617712D01*
X-969792712Y1039493656D01*
X-969884814Y1039344335D01*
X-969939999Y1039177798D01*
X-969950500Y1039075010D01*
X-969950500Y1036124990D01*
X-969939999Y1036022202D01*
X-969884814Y1035855665D01*
X-969844411Y1035790162D01*
X-969792711Y1035706342D01*
X-969668657Y1035582288D01*
X-969519335Y1035490186D01*
X-969352798Y1035435000D01*
X-969250010Y1035424500D01*
X-968451198Y1035424500D01*
X-968391082Y1035408953D01*
X-968346041Y1035366211D01*
X-968327368Y1035306992D01*
X-968339746Y1035246145D01*
X-968380069Y1035198928D01*
X-968416126Y1035173681D01*
X-968434819Y1035162889D01*
X-968612651Y1035079964D01*
X-968632944Y1035072578D01*
X-968822464Y1035021797D01*
X-968843747Y1035018044D01*
X-969040216Y1035000855D01*
X-969044605Y1035000472D01*
X-969055412Y1035000000D01*
X-981694588Y1035000000D01*
X-981705395Y1035000472D01*
X-981711912Y1035001042D01*
X-981906250Y1035018044D01*
X-981927535Y1035021797D01*
X-981993840Y1035039563D01*
X-982117051Y1035072577D01*
X-982137352Y1035079966D01*
X-982315175Y1035162886D01*
X-982333881Y1035173686D01*
X-982494600Y1035286222D01*
X-982511156Y1035300115D01*
X-982649884Y1035438843D01*
X-982663778Y1035455401D01*
X-982776309Y1035616112D01*
X-982787116Y1035634830D01*
X-982820463Y1035706342D01*
X-982870030Y1035812641D01*
X-982877423Y1035832952D01*
X-982928202Y1036022464D01*
X-982931955Y1036043749D01*
X-982949528Y1036244604D01*
X-982950000Y1036255412D01*
X-982950000Y1037740032D01*
X-982935876Y1037797507D01*
X-982896720Y1037841888D01*
X-982841453Y1037863065D01*
X-982782666Y1037856214D01*
X-982697375Y1037824402D01*
X-982637824Y1037818000D01*
X-981840000Y1037818000D01*
X-981240000Y1037818000D01*
X-980442176Y1037818000D01*
X-980382624Y1037824402D01*
X-980247910Y1037874647D01*
X-980132808Y1037960813D01*
X-980055341Y1038064295D01*
X-980008390Y1038102408D01*
X-979948995Y1038113782D01*
X-979891285Y1038095711D01*
X-979706088Y1037982221D01*
X-979480615Y1037888828D01*
X-979243303Y1037831854D01*
X-979162201Y1037825471D01*
X-979000000Y1037812706D01*
X-978999998Y1037812706D01*
X-978926854Y1037818462D01*
X-978874208Y1037811179D01*
X-978829446Y1037782525D01*
X-977949549Y1036902628D01*
X-977947356Y1036900379D01*
X-977887060Y1036836948D01*
X-977838649Y1036803252D01*
X-977831129Y1036797581D01*
X-977785409Y1036760303D01*
X-977758441Y1036746216D01*
X-977745019Y1036738084D01*
X-977720049Y1036720705D01*
X-977720046Y1036720703D01*
X-977665845Y1036697443D01*
X-977657336Y1036693402D01*
X-977605053Y1036666092D01*
X-977599126Y1036664396D01*
X-977575798Y1036657721D01*
X-977561020Y1036652459D01*
X-977533058Y1036640460D01*
X-977475272Y1036628583D01*
X-977466128Y1036626338D01*
X-977409421Y1036610113D01*
X-977379075Y1036607802D01*
X-977363534Y1036605622D01*
X-977333742Y1036599500D01*
X-977333741Y1036599500D01*
X-977274757Y1036599500D01*
X-977265343Y1036599142D01*
X-977256197Y1036598445D01*
X-977206523Y1036594663D01*
X-977206522Y1036594663D01*
X-977206521Y1036594663D01*
X-977176348Y1036598506D01*
X-977160682Y1036599500D01*
X-976174500Y1036599500D01*
X-976112500Y1036582887D01*
X-976067113Y1036537500D01*
X-976050500Y1036475500D01*
X-976050500Y1036124990D01*
X-976039999Y1036022202D01*
X-975984814Y1035855665D01*
X-975944411Y1035790162D01*
X-975892711Y1035706342D01*
X-975768657Y1035582288D01*
X-975619335Y1035490186D01*
X-975452798Y1035435000D01*
X-975350010Y1035424500D01*
X-974349990Y1035424500D01*
X-974247201Y1035435000D01*
X-974080664Y1035490186D01*
X-973931342Y1035582288D01*
X-973807288Y1035706342D01*
X-973715186Y1035855664D01*
X-973660000Y1036022201D01*
X-973649500Y1036124990D01*
X-973649500Y1038469217D01*
X-973640061Y1038516670D01*
X-973613181Y1038556898D01*
X-972006899Y1040163181D01*
X-971966671Y1040190061D01*
X-971919218Y1040199500D01*
X-970709990Y1040199500D01*
X-970607201Y1040210000D01*
X-970440664Y1040265186D01*
X-970291342Y1040357288D01*
X-970167288Y1040481342D01*
X-970075186Y1040630664D01*
X-970020000Y1040797201D01*
X-970009500Y1040899990D01*
X-970009500Y1041900010D01*
X-970020000Y1042002798D01*
X-970075186Y1042169335D01*
X-970167288Y1042318657D01*
X-970291342Y1042442711D01*
X-970347896Y1042477593D01*
X-970440665Y1042534814D01*
X-970552015Y1042571712D01*
X-970607201Y1042589999D01*
X-970709990Y1042600500D01*
X-973660010Y1042600500D01*
X-973762798Y1042589999D01*
X-973929335Y1042534814D01*
X-974078656Y1042442712D01*
X-974202712Y1042318656D01*
X-974294814Y1042169335D01*
X-974349998Y1042002798D01*
X-974349999Y1042002798D01*
X-974360500Y1041900010D01*
X-974360500Y1040899990D01*
X-974349999Y1040797201D01*
X-974337400Y1040759181D01*
X-974334447Y1040691580D01*
X-974367422Y1040632496D01*
X-975151305Y1039848615D01*
X-975188101Y1039811819D01*
X-975228329Y1039784939D01*
X-975275782Y1039775500D01*
X-975350010Y1039775500D01*
X-975452798Y1039764999D01*
X-975619335Y1039709814D01*
X-975768656Y1039617712D01*
X-975892712Y1039493656D01*
X-975984814Y1039344335D01*
X-976039999Y1039177798D01*
X-976050500Y1039075010D01*
X-976050500Y1038724500D01*
X-976067113Y1038662500D01*
X-976112500Y1038617113D01*
X-976174500Y1038600500D01*
X-976766218Y1038600500D01*
X-976813671Y1038609939D01*
X-976853899Y1038636819D01*
X-977414525Y1039197445D01*
X-977443179Y1039242207D01*
X-977450462Y1039294853D01*
X-977444706Y1039367998D01*
X-977463854Y1039611303D01*
X-977520828Y1039848615D01*
X-977614221Y1040074088D01*
X-977741740Y1040282177D01*
X-977741741Y1040282179D01*
X-977900241Y1040467759D01*
X-978085821Y1040626259D01*
X-978192415Y1040691580D01*
X-978293911Y1040753778D01*
X-978519384Y1040847171D01*
X-978519388Y1040847172D01*
X-978756698Y1040904146D01*
X-979000000Y1040923294D01*
X-979243302Y1040904146D01*
X-979480612Y1040847172D01*
X-979480613Y1040847171D01*
X-979480615Y1040847171D01*
X-979706088Y1040753778D01*
X-979787603Y1040703824D01*
X-979891286Y1040640287D01*
X-979948995Y1040622217D01*
X-980008390Y1040633591D01*
X-980055342Y1040671704D01*
X-980132810Y1040775188D01*
X-980247910Y1040861352D01*
X-980382624Y1040911597D01*
X-980442176Y1040918000D01*
X-981240000Y1040918000D01*
X-981240000Y1037818000D01*
X-981840000Y1037818000D01*
X-981840000Y1040918000D01*
X-982637824Y1040918000D01*
X-982697375Y1040911597D01*
X-982782666Y1040879786D01*
X-982841453Y1040872935D01*
X-982896720Y1040894112D01*
X-982935876Y1040938493D01*
X-982950000Y1040995968D01*
X-982950000Y1045550000D01*
X-982649999Y1045550000D01*
X-982649999Y1044900021D01*
X-982639506Y1044797304D01*
X-982584357Y1044630877D01*
X-982492316Y1044481654D01*
X-982368345Y1044357683D01*
X-982219122Y1044265642D01*
X-982052696Y1044210493D01*
X-981949979Y1044200000D01*
X-981200000Y1044200000D01*
X-981200000Y1045550000D01*
X-980600000Y1045550000D01*
X-980600000Y1044200001D01*
X-979850021Y1044200001D01*
X-979747304Y1044210493D01*
X-979580877Y1044265642D01*
X-979431654Y1044357683D01*
X-979307683Y1044481654D01*
X-979215642Y1044630877D01*
X-979160493Y1044797303D01*
X-979150000Y1044900021D01*
X-979150000Y1045550000D01*
X-980600000Y1045550000D01*
X-981200000Y1045550000D01*
X-982649999Y1045550000D01*
X-982950000Y1045550000D01*
X-982950000Y1046150000D01*
X-982650000Y1046150000D01*
X-981200000Y1046150000D01*
X-981200000Y1047499999D01*
X-981949979Y1047499999D01*
X-982052695Y1047489506D01*
X-982219122Y1047434357D01*
X-982368345Y1047342316D01*
X-982492316Y1047218345D01*
X-982584357Y1047069122D01*
X-982639506Y1046902696D01*
X-982650000Y1046799979D01*
X-982650000Y1046150000D01*
X-982950000Y1046150000D01*
X-982950000Y1047500000D01*
X-980600000Y1047500000D01*
X-980600000Y1046150000D01*
X-979150001Y1046150000D01*
X-979150001Y1046799979D01*
X-979150004Y1046800009D01*
X-978350500Y1046800009D01*
X-978350499Y1044899992D01*
X-978339999Y1044797203D01*
X-978284814Y1044630666D01*
X-978284813Y1044630665D01*
X-978192711Y1044481342D01*
X-978068657Y1044357288D01*
X-977919334Y1044265186D01*
X-977752797Y1044210000D01*
X-977650009Y1044199500D01*
X-975549991Y1044199500D01*
X-975447203Y1044210000D01*
X-975280665Y1044265186D01*
X-975131342Y1044357288D01*
X-975007288Y1044481342D01*
X-974915186Y1044630665D01*
X-974860000Y1044797202D01*
X-974849500Y1044899990D01*
X-974849500Y1046800008D01*
X-974860000Y1046902796D01*
X-974915186Y1047069334D01*
X-975007288Y1047218657D01*
X-975131342Y1047342711D01*
X-975187895Y1047377592D01*
X-975280666Y1047434814D01*
X-975392016Y1047471712D01*
X-975447202Y1047489999D01*
X-975457703Y1047491071D01*
X-975549991Y1047500500D01*
X-977650008Y1047500499D01*
X-977752797Y1047489999D01*
X-977919334Y1047434814D01*
X-978068656Y1047342712D01*
X-978192712Y1047218656D01*
X-978284814Y1047069334D01*
X-978339999Y1046902797D01*
X-978350500Y1046800009D01*
X-979150004Y1046800009D01*
X-979160493Y1046902695D01*
X-979215642Y1047069122D01*
X-979307683Y1047218345D01*
X-979431654Y1047342316D01*
X-979580877Y1047434357D01*
X-979747303Y1047489506D01*
X-979850021Y1047500000D01*
X-980600000Y1047500000D01*
X-982950000Y1047500000D01*
X-982950000Y1051260000D01*
X-981139999Y1051260000D01*
X-981139999Y1050245812D01*
X-981129599Y1050113668D01*
X-981074622Y1049895481D01*
X-980981569Y1049690620D01*
X-980853434Y1049505667D01*
X-980694332Y1049346565D01*
X-980509379Y1049218430D01*
X-980304518Y1049125377D01*
X-980086332Y1049070400D01*
X-979954188Y1049060000D01*
X-979440000Y1049060000D01*
X-979440000Y1051260000D01*
X-978840000Y1051260000D01*
X-978840000Y1049060001D01*
X-978325812Y1049060001D01*
X-978193668Y1049070400D01*
X-977975481Y1049125377D01*
X-977770620Y1049218430D01*
X-977585667Y1049346565D01*
X-977426565Y1049505667D01*
X-977298430Y1049690620D01*
X-977205377Y1049895481D01*
X-977150400Y1050113667D01*
X-977140000Y1050245812D01*
X-977140000Y1051260000D01*
X-978840000Y1051260000D01*
X-979440000Y1051260000D01*
X-981139999Y1051260000D01*
X-982950000Y1051260000D01*
X-982950000Y1051860000D01*
X-981140000Y1051860000D01*
X-979440000Y1051860000D01*
X-979440000Y1054920000D01*
X-978840000Y1054920000D01*
X-978840000Y1051860000D01*
X-977140001Y1051860000D01*
X-977140001Y1052874188D01*
X-977140003Y1052874217D01*
X-975140500Y1052874217D01*
X-975140499Y1050245784D01*
X-975130096Y1050113588D01*
X-975130095Y1050113584D01*
X-975130095Y1050113583D01*
X-975075097Y1049895318D01*
X-974982007Y1049690374D01*
X-974853819Y1049505345D01*
X-974694654Y1049346180D01*
X-974509625Y1049217992D01*
X-974304681Y1049124902D01*
X-974086416Y1049069904D01*
X-974020314Y1049064701D01*
X-973954217Y1049059500D01*
X-973954213Y1049059500D01*
X-972325785Y1049059500D01*
X-972193583Y1049069904D01*
X-971975318Y1049124902D01*
X-971770374Y1049217992D01*
X-971585345Y1049346180D01*
X-971426180Y1049505345D01*
X-971297992Y1049690374D01*
X-971204902Y1049895318D01*
X-971149904Y1050113583D01*
X-971139500Y1050245786D01*
X-971139500Y1052874214D01*
X-971149904Y1053006416D01*
X-971204902Y1053224681D01*
X-971256701Y1053338719D01*
X-971267802Y1053390000D01*
X-971256701Y1053441281D01*
X-971204902Y1053555318D01*
X-971149904Y1053773583D01*
X-971139955Y1053900001D01*
X-971139500Y1053905783D01*
X-971139500Y1054750000D01*
X-970374999Y1054750000D01*
X-970374999Y1054600021D01*
X-970364506Y1054497304D01*
X-970309357Y1054330877D01*
X-970217316Y1054181654D01*
X-970093345Y1054057683D01*
X-969944122Y1053965642D01*
X-969777696Y1053910493D01*
X-969674979Y1053900000D01*
X-969300000Y1053900000D01*
X-969300000Y1054750000D01*
X-970374999Y1054750000D01*
X-971139500Y1054750000D01*
X-971139500Y1054920000D01*
X-971139500Y1055350000D01*
X-970375000Y1055350000D01*
X-969300000Y1055350000D01*
X-969300000Y1056199999D01*
X-969674979Y1056199999D01*
X-969777695Y1056189506D01*
X-969944122Y1056134357D01*
X-970093345Y1056042316D01*
X-970217316Y1055918345D01*
X-970309357Y1055769122D01*
X-970364506Y1055602696D01*
X-970375000Y1055499979D01*
X-970375000Y1055350000D01*
X-971139500Y1055350000D01*
X-971139500Y1056534214D01*
X-971149904Y1056666416D01*
X-971204902Y1056884681D01*
X-971297992Y1057089625D01*
X-971426180Y1057274654D01*
X-971585345Y1057433819D01*
X-971770374Y1057562007D01*
X-971975318Y1057655097D01*
X-972193583Y1057710095D01*
X-972193584Y1057710095D01*
X-972193588Y1057710096D01*
X-972325783Y1057720500D01*
X-973954216Y1057720499D01*
X-974086412Y1057710096D01*
X-974086415Y1057710095D01*
X-974086416Y1057710095D01*
X-974304681Y1057655097D01*
X-974304683Y1057655096D01*
X-974509626Y1057562007D01*
X-974694654Y1057433819D01*
X-974853819Y1057274654D01*
X-974982007Y1057089626D01*
X-975075096Y1056884683D01*
X-975130096Y1056666412D01*
X-975140500Y1056534217D01*
X-975140499Y1053905784D01*
X-975130096Y1053773588D01*
X-975130095Y1053773584D01*
X-975130095Y1053773583D01*
X-975075137Y1053555478D01*
X-975075096Y1053555317D01*
X-975023298Y1053441281D01*
X-975012197Y1053390000D01*
X-975023297Y1053338720D01*
X-975075096Y1053224683D01*
X-975130096Y1053006412D01*
X-975140500Y1052874217D01*
X-977140003Y1052874217D01*
X-977150400Y1053006331D01*
X-977205378Y1053224521D01*
X-977257249Y1053338719D01*
X-977268350Y1053390000D01*
X-977257249Y1053441281D01*
X-977205378Y1053555478D01*
X-977150400Y1053773667D01*
X-977140000Y1053905812D01*
X-977140000Y1054920000D01*
X-978840000Y1054920000D01*
X-979440000Y1054920000D01*
X-981139999Y1054920000D01*
X-981139999Y1053905812D01*
X-981129599Y1053773668D01*
X-981074622Y1053555481D01*
X-981022749Y1053441282D01*
X-981011648Y1053390000D01*
X-981022749Y1053338718D01*
X-981074622Y1053224518D01*
X-981129599Y1053006332D01*
X-981140000Y1052874188D01*
X-981140000Y1051860000D01*
X-982950000Y1051860000D01*
X-982950000Y1055520000D01*
X-981140000Y1055520000D01*
X-979440000Y1055520000D01*
X-979440000Y1057719999D01*
X-979954188Y1057719999D01*
X-980086331Y1057709599D01*
X-980304518Y1057654622D01*
X-980509379Y1057561569D01*
X-980694332Y1057433434D01*
X-980853434Y1057274332D01*
X-980981569Y1057089379D01*
X-981074622Y1056884518D01*
X-981129599Y1056666332D01*
X-981140000Y1056534188D01*
X-981140000Y1055520000D01*
X-982950000Y1055520000D01*
X-982950000Y1056744588D01*
X-982949528Y1056755396D01*
X-982931955Y1056956250D01*
X-982928202Y1056977535D01*
X-982877423Y1057167047D01*
X-982870030Y1057187359D01*
X-982787116Y1057365169D01*
X-982776309Y1057383887D01*
X-982663778Y1057544598D01*
X-982649884Y1057561156D01*
X-982511156Y1057699884D01*
X-982494598Y1057713778D01*
X-982485712Y1057720000D01*
X-978840000Y1057720000D01*
X-978840000Y1055520000D01*
X-977140001Y1055520000D01*
X-977140001Y1056534188D01*
X-977150400Y1056666331D01*
X-977205377Y1056884518D01*
X-977298430Y1057089379D01*
X-977426565Y1057274332D01*
X-977585667Y1057433434D01*
X-977770620Y1057561569D01*
X-977975481Y1057654622D01*
X-978193667Y1057709599D01*
X-978325812Y1057720000D01*
X-978840000Y1057720000D01*
X-982485712Y1057720000D01*
X-982333887Y1057826309D01*
X-982315169Y1057837116D01*
X-982137359Y1057920030D01*
X-982117047Y1057927423D01*
X-981927535Y1057978202D01*
X-981906250Y1057981955D01*
X-981725400Y1057997777D01*
X-981705394Y1057999528D01*
X-981694588Y1058000000D01*
X-969055412Y1058000000D01*
X-969044605Y1057999528D01*
G37*
G04 #@! TD.AperFunction*
G04 #@! TA.AperFunction,Conductor*
G36*
X-989843077Y1057999220D02*
G01*
X-989685869Y1057981506D01*
X-989658798Y1057975328D01*
X-989516078Y1057925388D01*
X-989491061Y1057913340D01*
X-989363036Y1057832897D01*
X-989341327Y1057815584D01*
X-989234415Y1057708672D01*
X-989217103Y1057686965D01*
X-989196781Y1057654622D01*
X-989136659Y1057558938D01*
X-989124611Y1057533921D01*
X-989074671Y1057391201D01*
X-989068493Y1057364132D01*
X-989058375Y1057274332D01*
X-989050780Y1057206923D01*
X-989050000Y1057193039D01*
X-989050000Y1040352509D01*
X-989069130Y1040286341D01*
X-989120617Y1040240588D01*
X-989188575Y1040229369D01*
X-989211637Y1040232098D01*
X-990075736Y1039368001D01*
X-990075736Y1039368000D01*
X-989211637Y1038503900D01*
X-989188575Y1038506630D01*
X-989120617Y1038495411D01*
X-989069130Y1038449658D01*
X-989050000Y1038383490D01*
X-989050000Y1036305412D01*
X-989050472Y1036294605D01*
X-989068044Y1036093750D01*
X-989071796Y1036072464D01*
X-989122578Y1035882944D01*
X-989129964Y1035862651D01*
X-989212889Y1035684819D01*
X-989223683Y1035666123D01*
X-989336226Y1035505393D01*
X-989350109Y1035488849D01*
X-989488849Y1035350109D01*
X-989505393Y1035336226D01*
X-989666123Y1035223683D01*
X-989684819Y1035212889D01*
X-989862651Y1035129964D01*
X-989882944Y1035122578D01*
X-990072464Y1035071797D01*
X-990093747Y1035068044D01*
X-990290216Y1035050855D01*
X-990294605Y1035050472D01*
X-990305412Y1035050000D01*
X-1002944588Y1035050000D01*
X-1002955395Y1035050472D01*
X-1002961912Y1035051042D01*
X-1003156250Y1035068044D01*
X-1003177535Y1035071797D01*
X-1003243840Y1035089563D01*
X-1003367051Y1035122577D01*
X-1003387357Y1035129969D01*
X-1003404837Y1035138120D01*
X-1003455231Y1035181163D01*
X-1003476258Y1035244013D01*
X-1003461913Y1035308716D01*
X-1003416292Y1035356789D01*
X-1003352428Y1035374500D01*
X-1002749990Y1035374500D01*
X-1002647201Y1035385000D01*
X-1002480664Y1035440186D01*
X-1002331342Y1035532288D01*
X-1002207288Y1035656342D01*
X-1002115186Y1035805664D01*
X-1002060000Y1035972201D01*
X-1002049500Y1036074990D01*
X-1002049500Y1039025010D01*
X-1002060000Y1039127798D01*
X-1002115186Y1039294335D01*
X-1002207288Y1039443657D01*
X-1002331342Y1039567711D01*
X-1002478005Y1039658173D01*
X-1002480665Y1039659814D01*
X-1002625398Y1039707774D01*
X-1002647201Y1039714999D01*
X-1002749990Y1039725500D01*
X-1003750010Y1039725500D01*
X-1003852798Y1039714999D01*
X-1004019335Y1039659814D01*
X-1004019336Y1039659813D01*
X-1004033092Y1039655255D01*
X-1004034058Y1039658173D01*
X-1004073295Y1039646582D01*
X-1004136432Y1039662276D01*
X-1004182934Y1039707774D01*
X-1004200000Y1039770553D01*
X-1004200000Y1040799990D01*
X-1001825500Y1040799990D01*
X-1001814999Y1040697201D01*
X-1001802781Y1040660331D01*
X-1001759814Y1040530665D01*
X-1001719850Y1040465873D01*
X-1001667711Y1040381342D01*
X-1001543657Y1040257288D01*
X-1001394335Y1040165186D01*
X-1001227798Y1040110000D01*
X-1001125010Y1040099500D01*
X-999915783Y1040099500D01*
X-999868330Y1040090061D01*
X-999828102Y1040063181D01*
X-998386819Y1038621899D01*
X-998359939Y1038581671D01*
X-998350500Y1038534218D01*
X-998350500Y1036074990D01*
X-998339999Y1035972202D01*
X-998284814Y1035805665D01*
X-998227593Y1035712896D01*
X-998192711Y1035656342D01*
X-998068657Y1035532288D01*
X-997919335Y1035440186D01*
X-997752798Y1035385000D01*
X-997650010Y1035374500D01*
X-996649990Y1035374500D01*
X-996547201Y1035385000D01*
X-996380664Y1035440186D01*
X-996231342Y1035532288D01*
X-996107288Y1035656342D01*
X-996015186Y1035805664D01*
X-995960000Y1035972201D01*
X-995949500Y1036074990D01*
X-995949500Y1036425500D01*
X-995932887Y1036487500D01*
X-995887500Y1036532887D01*
X-995825500Y1036549500D01*
X-994914279Y1036549500D01*
X-994911137Y1036549460D01*
X-994823637Y1036547242D01*
X-994765580Y1036557648D01*
X-994756251Y1036558957D01*
X-994697562Y1036564926D01*
X-994668527Y1036574035D01*
X-994653290Y1036577774D01*
X-994623350Y1036583141D01*
X-994568567Y1036605022D01*
X-994559698Y1036608179D01*
X-994503410Y1036625841D01*
X-994476809Y1036640605D01*
X-994462639Y1036647335D01*
X-994434385Y1036658622D01*
X-994385121Y1036691087D01*
X-994377070Y1036695964D01*
X-994325498Y1036724590D01*
X-994302414Y1036744407D01*
X-994289887Y1036753853D01*
X-994264481Y1036770598D01*
X-994222775Y1036812303D01*
X-994215868Y1036818704D01*
X-994171103Y1036857135D01*
X-994152480Y1036881193D01*
X-994142108Y1036892969D01*
X-993253896Y1037781181D01*
X-993213668Y1037808061D01*
X-993166215Y1037817500D01*
X-991942130Y1037817500D01*
X-991882515Y1037823909D01*
X-991747669Y1037874204D01*
X-991632453Y1037960454D01*
X-991554614Y1038064435D01*
X-991507662Y1038102548D01*
X-991448268Y1038113922D01*
X-991390557Y1038095851D01*
X-991205862Y1037982670D01*
X-990980457Y1037889303D01*
X-990743224Y1037832349D01*
X-990500000Y1037813207D01*
X-990256775Y1037832349D01*
X-990019542Y1037889303D01*
X-989794137Y1037982669D01*
X-989635900Y1038079637D01*
X-990836582Y1039280319D01*
X-990868676Y1039335906D01*
X-990868676Y1039400093D01*
X-990836582Y1039455681D01*
X-990500000Y1039792264D01*
X-989635900Y1040656361D01*
X-989794137Y1040753329D01*
X-990019542Y1040846696D01*
X-990256775Y1040903650D01*
X-990500000Y1040922792D01*
X-990743224Y1040903650D01*
X-990980457Y1040846696D01*
X-991205862Y1040753330D01*
X-991390557Y1040640148D01*
X-991448268Y1040622077D01*
X-991507662Y1040633451D01*
X-991554611Y1040671561D01*
X-991632454Y1040775546D01*
X-991747669Y1040861796D01*
X-991882517Y1040912091D01*
X-991942127Y1040918500D01*
X-994137872Y1040918499D01*
X-994197483Y1040912091D01*
X-994332331Y1040861796D01*
X-994447546Y1040775546D01*
X-994533796Y1040660331D01*
X-994584091Y1040525483D01*
X-994590500Y1040465873D01*
X-994590499Y1039792264D01*
X-994590499Y1039325782D01*
X-994599938Y1039278329D01*
X-994626815Y1039238104D01*
X-995190420Y1038674500D01*
X-995278101Y1038586819D01*
X-995318329Y1038559939D01*
X-995365782Y1038550500D01*
X-995825500Y1038550500D01*
X-995887500Y1038567113D01*
X-995932887Y1038612500D01*
X-995949500Y1038674500D01*
X-995949500Y1039025010D01*
X-995960000Y1039127798D01*
X-996015186Y1039294335D01*
X-996107288Y1039443657D01*
X-996231342Y1039567711D01*
X-996378005Y1039658173D01*
X-996380665Y1039659814D01*
X-996547202Y1039714999D01*
X-996617898Y1039722221D01*
X-996658516Y1039733581D01*
X-996692977Y1039757898D01*
X-997467574Y1040532495D01*
X-997500550Y1040591579D01*
X-997497600Y1040659178D01*
X-997485000Y1040697202D01*
X-997474500Y1040799990D01*
X-997474500Y1041800010D01*
X-997485000Y1041902798D01*
X-997540186Y1042069335D01*
X-997632288Y1042218657D01*
X-997756342Y1042342711D01*
X-997812896Y1042377593D01*
X-997905665Y1042434814D01*
X-998017016Y1042471712D01*
X-998072201Y1042489999D01*
X-998174990Y1042500500D01*
X-1001125010Y1042500500D01*
X-1001227798Y1042489999D01*
X-1001394335Y1042434814D01*
X-1001543656Y1042342712D01*
X-1001667712Y1042218656D01*
X-1001759814Y1042069335D01*
X-1001814999Y1041902798D01*
X-1001825500Y1041800010D01*
X-1001825500Y1040799990D01*
X-1004200000Y1040799990D01*
X-1004200000Y1042103627D01*
X-1004186403Y1042160082D01*
X-1004148593Y1042204157D01*
X-1004094863Y1042226184D01*
X-1004036996Y1042221333D01*
X-1004002797Y1042210000D01*
X-1003909535Y1042200473D01*
X-1003900009Y1042199500D01*
X-1003900008Y1042199500D01*
X-1003199991Y1042199500D01*
X-1003097203Y1042210000D01*
X-1002930665Y1042265186D01*
X-1002781342Y1042357288D01*
X-1002657288Y1042481342D01*
X-1002565186Y1042630665D01*
X-1002510000Y1042797202D01*
X-1002499500Y1042899991D01*
X-1002499500Y1043084216D01*
X-1002490061Y1043131669D01*
X-1002463181Y1043171897D01*
X-1000353735Y1045281344D01*
X-999471898Y1046163181D01*
X-999431671Y1046190061D01*
X-999384218Y1046199500D01*
X-998174990Y1046199500D01*
X-998072201Y1046210000D01*
X-997905664Y1046265186D01*
X-997756342Y1046357288D01*
X-997632288Y1046481342D01*
X-997540186Y1046630664D01*
X-997485726Y1046795009D01*
X-997200500Y1046795009D01*
X-997200499Y1044894992D01*
X-997189999Y1044792203D01*
X-997134814Y1044625666D01*
X-997134813Y1044625665D01*
X-997042711Y1044476342D01*
X-996918657Y1044352288D01*
X-996769334Y1044260186D01*
X-996602797Y1044205000D01*
X-996500009Y1044194500D01*
X-994399991Y1044194500D01*
X-994297203Y1044205000D01*
X-994130665Y1044260186D01*
X-993981342Y1044352288D01*
X-993857288Y1044476342D01*
X-993765186Y1044625665D01*
X-993710000Y1044792202D01*
X-993699500Y1044894990D01*
X-993699500Y1045545000D01*
X-992899999Y1045545000D01*
X-992899999Y1044895021D01*
X-992889506Y1044792304D01*
X-992834357Y1044625877D01*
X-992742316Y1044476654D01*
X-992618345Y1044352683D01*
X-992469122Y1044260642D01*
X-992302696Y1044205493D01*
X-992199979Y1044195000D01*
X-991450000Y1044195000D01*
X-991450000Y1045545000D01*
X-990850000Y1045545000D01*
X-990850000Y1044195001D01*
X-990100021Y1044195001D01*
X-989997304Y1044205493D01*
X-989830877Y1044260642D01*
X-989681654Y1044352683D01*
X-989557683Y1044476654D01*
X-989465642Y1044625877D01*
X-989410493Y1044792303D01*
X-989400000Y1044895021D01*
X-989400000Y1045545000D01*
X-990850000Y1045545000D01*
X-991450000Y1045545000D01*
X-992899999Y1045545000D01*
X-993699500Y1045545000D01*
X-993699500Y1046145000D01*
X-992900000Y1046145000D01*
X-991450000Y1046145000D01*
X-991450000Y1047494999D01*
X-992199979Y1047494999D01*
X-992302695Y1047484506D01*
X-992469122Y1047429357D01*
X-992618345Y1047337316D01*
X-992742316Y1047213345D01*
X-992834357Y1047064122D01*
X-992889506Y1046897696D01*
X-992900000Y1046794979D01*
X-992900000Y1046145000D01*
X-993699500Y1046145000D01*
X-993699500Y1046795008D01*
X-993710000Y1046897796D01*
X-993765186Y1047064334D01*
X-993857288Y1047213657D01*
X-993981342Y1047337711D01*
X-994037895Y1047372592D01*
X-994130666Y1047429814D01*
X-994242017Y1047466712D01*
X-994297202Y1047484999D01*
X-994307702Y1047486071D01*
X-994395097Y1047495000D01*
X-990850000Y1047495000D01*
X-990850000Y1046145000D01*
X-989400001Y1046145000D01*
X-989400001Y1046794979D01*
X-989410493Y1046897695D01*
X-989465642Y1047064122D01*
X-989557683Y1047213345D01*
X-989681654Y1047337316D01*
X-989830877Y1047429357D01*
X-989997303Y1047484506D01*
X-990100021Y1047495000D01*
X-990850000Y1047495000D01*
X-994395097Y1047495000D01*
X-994399991Y1047495500D01*
X-996500008Y1047495499D01*
X-996602797Y1047484999D01*
X-996769334Y1047429814D01*
X-996918656Y1047337712D01*
X-997042712Y1047213656D01*
X-997134814Y1047064334D01*
X-997189999Y1046897797D01*
X-997200500Y1046795009D01*
X-997485726Y1046795009D01*
X-997485000Y1046797201D01*
X-997474500Y1046899990D01*
X-997474500Y1047900010D01*
X-997485000Y1048002798D01*
X-997540186Y1048169335D01*
X-997632288Y1048318657D01*
X-997756342Y1048442711D01*
X-997812896Y1048477593D01*
X-997905665Y1048534814D01*
X-998017015Y1048571712D01*
X-998072201Y1048589999D01*
X-998174990Y1048600500D01*
X-1001125010Y1048600500D01*
X-1001227798Y1048589999D01*
X-1001394335Y1048534814D01*
X-1001543656Y1048442712D01*
X-1001667712Y1048318656D01*
X-1001759814Y1048169335D01*
X-1001814999Y1048002798D01*
X-1001825500Y1047900010D01*
X-1001825500Y1046899990D01*
X-1001814999Y1046797201D01*
X-1001802400Y1046759181D01*
X-1001799447Y1046691580D01*
X-1001832422Y1046632496D01*
X-1002287820Y1046177098D01*
X-1002337182Y1046146850D01*
X-1002394898Y1046142308D01*
X-1002448385Y1046164463D01*
X-1002485985Y1046208486D01*
X-1002499500Y1046264780D01*
X-1002499500Y1046400008D01*
X-1002510000Y1046502796D01*
X-1002565186Y1046669334D01*
X-1002657288Y1046818657D01*
X-1002781342Y1046942711D01*
X-1002837895Y1046977593D01*
X-1002930666Y1047034814D01*
X-1003063005Y1047078667D01*
X-1003097202Y1047089999D01*
X-1003106729Y1047090972D01*
X-1003199991Y1047100500D01*
X-1003900008Y1047100499D01*
X-1004002798Y1047089999D01*
X-1004036997Y1047078667D01*
X-1004094864Y1047073816D01*
X-1004148593Y1047095843D01*
X-1004186403Y1047139918D01*
X-1004200000Y1047196373D01*
X-1004200000Y1050819868D01*
X-1004182933Y1050882647D01*
X-1004136431Y1050928146D01*
X-1004073295Y1050943838D01*
X-1004010903Y1050925406D01*
X-1003994335Y1050915186D01*
X-1003827797Y1050860000D01*
X-1003725009Y1050849500D01*
X-1002374991Y1050849500D01*
X-1002272203Y1050860000D01*
X-1002105665Y1050915186D01*
X-1001956342Y1051007288D01*
X-1001832288Y1051131342D01*
X-1001740186Y1051280665D01*
X-1001685000Y1051447202D01*
X-1001674500Y1051549990D01*
X-1001674500Y1052450008D01*
X-1001685000Y1052552796D01*
X-1001740186Y1052719334D01*
X-1001832288Y1052868657D01*
X-1001837848Y1052874217D01*
X-1001140500Y1052874217D01*
X-1001140499Y1050245784D01*
X-1001130096Y1050113588D01*
X-1001130095Y1050113584D01*
X-1001130095Y1050113583D01*
X-1001075097Y1049895318D01*
X-1000982007Y1049690374D01*
X-1000853819Y1049505345D01*
X-1000694654Y1049346180D01*
X-1000509625Y1049217992D01*
X-1000304681Y1049124902D01*
X-1000086416Y1049069904D01*
X-1000020314Y1049064701D01*
X-999954217Y1049059500D01*
X-999954213Y1049059500D01*
X-998325785Y1049059500D01*
X-998193583Y1049069904D01*
X-997975318Y1049124902D01*
X-997770374Y1049217992D01*
X-997585345Y1049346180D01*
X-997426180Y1049505345D01*
X-997297992Y1049690374D01*
X-997204902Y1049895318D01*
X-997149904Y1050113583D01*
X-997139500Y1050245786D01*
X-997139500Y1051260000D01*
X-995139999Y1051260000D01*
X-995139999Y1050245812D01*
X-995129599Y1050113668D01*
X-995074622Y1049895481D01*
X-994981569Y1049690620D01*
X-994853434Y1049505667D01*
X-994694332Y1049346565D01*
X-994509379Y1049218430D01*
X-994304518Y1049125377D01*
X-994086332Y1049070400D01*
X-993954188Y1049060000D01*
X-993440000Y1049060000D01*
X-993440000Y1051260000D01*
X-992840000Y1051260000D01*
X-992840000Y1049060001D01*
X-992325812Y1049060001D01*
X-992193668Y1049070400D01*
X-991975481Y1049125377D01*
X-991770620Y1049218430D01*
X-991585667Y1049346565D01*
X-991426565Y1049505667D01*
X-991298430Y1049690620D01*
X-991205377Y1049895481D01*
X-991150400Y1050113667D01*
X-991140000Y1050245812D01*
X-991140000Y1051260000D01*
X-992840000Y1051260000D01*
X-993440000Y1051260000D01*
X-995139999Y1051260000D01*
X-997139500Y1051260000D01*
X-997139500Y1051860000D01*
X-995140000Y1051860000D01*
X-993440000Y1051860000D01*
X-993440000Y1054920000D01*
X-992840000Y1054920000D01*
X-992840000Y1051860000D01*
X-991140001Y1051860000D01*
X-991140001Y1052874188D01*
X-991150400Y1053006331D01*
X-991205378Y1053224521D01*
X-991257249Y1053338719D01*
X-991268350Y1053390000D01*
X-991257249Y1053441281D01*
X-991205378Y1053555478D01*
X-991150400Y1053773667D01*
X-991140000Y1053905812D01*
X-991140000Y1054920000D01*
X-992840000Y1054920000D01*
X-993440000Y1054920000D01*
X-995139999Y1054920000D01*
X-995139999Y1053905812D01*
X-995129599Y1053773668D01*
X-995074622Y1053555481D01*
X-995022749Y1053441282D01*
X-995011648Y1053390000D01*
X-995022749Y1053338718D01*
X-995074622Y1053224518D01*
X-995129599Y1053006332D01*
X-995140000Y1052874188D01*
X-995140000Y1051860000D01*
X-997139500Y1051860000D01*
X-997139500Y1052874214D01*
X-997149904Y1053006416D01*
X-997204902Y1053224681D01*
X-997256701Y1053338719D01*
X-997267802Y1053390000D01*
X-997256701Y1053441281D01*
X-997204902Y1053555318D01*
X-997149904Y1053773583D01*
X-997139500Y1053905786D01*
X-997139500Y1055520000D01*
X-995140000Y1055520000D01*
X-993440000Y1055520000D01*
X-993440000Y1057719999D01*
X-993954188Y1057719999D01*
X-994086331Y1057709599D01*
X-994304518Y1057654622D01*
X-994509379Y1057561569D01*
X-994694332Y1057433434D01*
X-994853434Y1057274332D01*
X-994981569Y1057089379D01*
X-995074622Y1056884518D01*
X-995129599Y1056666332D01*
X-995140000Y1056534188D01*
X-995140000Y1055520000D01*
X-997139500Y1055520000D01*
X-997139500Y1056534214D01*
X-997149904Y1056666416D01*
X-997204902Y1056884681D01*
X-997297992Y1057089625D01*
X-997426180Y1057274654D01*
X-997585345Y1057433819D01*
X-997770374Y1057562007D01*
X-997975318Y1057655097D01*
X-998193583Y1057710095D01*
X-998193584Y1057710095D01*
X-998193588Y1057710096D01*
X-998319430Y1057720000D01*
X-992840000Y1057720000D01*
X-992840000Y1055520000D01*
X-991140001Y1055520000D01*
X-991140001Y1056534188D01*
X-991150400Y1056666331D01*
X-991205377Y1056884518D01*
X-991298430Y1057089379D01*
X-991426565Y1057274332D01*
X-991585667Y1057433434D01*
X-991770620Y1057561569D01*
X-991975481Y1057654622D01*
X-992193667Y1057709599D01*
X-992325812Y1057720000D01*
X-992840000Y1057720000D01*
X-998319430Y1057720000D01*
X-998325783Y1057720500D01*
X-999954216Y1057720499D01*
X-1000086412Y1057710096D01*
X-1000086415Y1057710095D01*
X-1000086416Y1057710095D01*
X-1000304681Y1057655097D01*
X-1000304683Y1057655096D01*
X-1000509626Y1057562007D01*
X-1000694654Y1057433819D01*
X-1000853819Y1057274654D01*
X-1000982007Y1057089626D01*
X-1001075096Y1056884683D01*
X-1001130096Y1056666412D01*
X-1001140500Y1056534217D01*
X-1001140499Y1053905784D01*
X-1001130096Y1053773588D01*
X-1001130095Y1053773584D01*
X-1001130095Y1053773583D01*
X-1001075137Y1053555478D01*
X-1001075096Y1053555317D01*
X-1001023298Y1053441281D01*
X-1001012197Y1053390000D01*
X-1001023297Y1053338720D01*
X-1001075096Y1053224683D01*
X-1001130096Y1053006412D01*
X-1001140500Y1052874217D01*
X-1001837848Y1052874217D01*
X-1001956342Y1052992711D01*
X-1002012895Y1053027593D01*
X-1002105666Y1053084814D01*
X-1002217017Y1053121712D01*
X-1002272202Y1053139999D01*
X-1002282702Y1053141071D01*
X-1002374991Y1053150500D01*
X-1003725008Y1053150499D01*
X-1003827797Y1053139999D01*
X-1003994334Y1053084814D01*
X-1004010903Y1053074594D01*
X-1004073295Y1053056162D01*
X-1004136431Y1053071854D01*
X-1004182933Y1053117353D01*
X-1004200000Y1053180132D01*
X-1004200000Y1053920454D01*
X-1004182934Y1053983233D01*
X-1004136432Y1054028731D01*
X-1004073296Y1054044425D01*
X-1004010905Y1054025993D01*
X-1003994125Y1054015643D01*
X-1003827696Y1053960493D01*
X-1003724979Y1053950000D01*
X-1003350000Y1053950000D01*
X-1003350000Y1054800000D01*
X-1002750000Y1054800000D01*
X-1002750000Y1053950001D01*
X-1002375021Y1053950001D01*
X-1002272304Y1053960493D01*
X-1002105877Y1054015642D01*
X-1001956654Y1054107683D01*
X-1001832683Y1054231654D01*
X-1001740642Y1054380877D01*
X-1001685493Y1054547303D01*
X-1001675000Y1054650021D01*
X-1001675000Y1054800000D01*
X-1002750000Y1054800000D01*
X-1003350000Y1054800000D01*
X-1003350000Y1056249999D01*
X-1003724979Y1056249999D01*
X-1003827695Y1056239506D01*
X-1003994125Y1056184356D01*
X-1004010905Y1056174007D01*
X-1004073296Y1056155575D01*
X-1004136432Y1056171269D01*
X-1004182934Y1056216767D01*
X-1004191968Y1056250000D01*
X-1002750000Y1056250000D01*
X-1002750000Y1055400000D01*
X-1001675001Y1055400000D01*
X-1001675001Y1055549979D01*
X-1001685493Y1055652695D01*
X-1001740642Y1055819122D01*
X-1001832683Y1055968345D01*
X-1001956654Y1056092316D01*
X-1002105877Y1056184357D01*
X-1002272303Y1056239506D01*
X-1002375021Y1056250000D01*
X-1002750000Y1056250000D01*
X-1004191968Y1056250000D01*
X-1004200000Y1056279546D01*
X-1004200000Y1056744588D01*
X-1004199528Y1056755396D01*
X-1004181955Y1056956250D01*
X-1004178202Y1056977535D01*
X-1004127423Y1057167047D01*
X-1004120030Y1057187359D01*
X-1004037116Y1057365169D01*
X-1004026309Y1057383887D01*
X-1003913778Y1057544598D01*
X-1003899884Y1057561156D01*
X-1003761156Y1057699884D01*
X-1003744598Y1057713778D01*
X-1003583887Y1057826309D01*
X-1003565169Y1057837116D01*
X-1003387359Y1057920030D01*
X-1003367047Y1057927423D01*
X-1003177535Y1057978202D01*
X-1003156250Y1057981955D01*
X-1002958916Y1057999220D01*
X-1002955394Y1057999528D01*
X-1002944588Y1058000000D01*
X-989856961Y1058000000D01*
X-989843077Y1057999220D01*
G37*
G04 #@! TD.AperFunction*
M02*
