G04 #@! TF.GenerationSoftware,KiCad,Pcbnew,5.1.5*
G04 #@! TF.CreationDate,2019-12-31T20:12:46-05:00*
G04 #@! TF.ProjectId,cm300-board,636d3330-302d-4626-9f61-72642e6b6963,rev?*
G04 #@! TF.SameCoordinates,Original*
G04 #@! TF.FileFunction,Copper,L1,Top*
G04 #@! TF.FilePolarity,Positive*
%FSLAX46Y46*%
G04 Gerber Fmt 4.6, Leading zero omitted, Abs format (unit mm)*
G04 Created by KiCad (PCBNEW 5.1.5) date 2019-12-31 20:12:46*
%MOMM*%
%LPD*%
G04 APERTURE LIST*
%ADD10C,0.100000*%
%ADD11O,1.600000X1.600000*%
%ADD12C,1.600000*%
%ADD13O,2.600000X2.600000*%
%ADD14R,2.600000X2.600000*%
%ADD15C,2.100000*%
%ADD16R,2.100000X2.100000*%
%ADD17O,2.200000X2.200000*%
%ADD18R,2.200000X2.200000*%
G04 APERTURE END LIST*
G04 #@! TA.AperFunction,ComponentPad*
D10*
G36*
X-972316487Y1053556389D02*
G01*
X-972243682Y1053545589D01*
X-972172286Y1053527705D01*
X-972102987Y1053502910D01*
X-972036452Y1053471441D01*
X-971973322Y1053433602D01*
X-971914205Y1053389758D01*
X-971859670Y1053340330D01*
X-971810242Y1053285795D01*
X-971766398Y1053226678D01*
X-971728559Y1053163548D01*
X-971697090Y1053097013D01*
X-971672295Y1053027714D01*
X-971654411Y1052956318D01*
X-971643611Y1052883513D01*
X-971640000Y1052810000D01*
X-971640000Y1050310000D01*
X-971643611Y1050236487D01*
X-971654411Y1050163682D01*
X-971672295Y1050092286D01*
X-971697090Y1050022987D01*
X-971728559Y1049956452D01*
X-971766398Y1049893322D01*
X-971810242Y1049834205D01*
X-971859670Y1049779670D01*
X-971914205Y1049730242D01*
X-971973322Y1049686398D01*
X-972036452Y1049648559D01*
X-972102987Y1049617090D01*
X-972172286Y1049592295D01*
X-972243682Y1049574411D01*
X-972316487Y1049563611D01*
X-972390000Y1049560000D01*
X-973890000Y1049560000D01*
X-973963513Y1049563611D01*
X-974036318Y1049574411D01*
X-974107714Y1049592295D01*
X-974177013Y1049617090D01*
X-974243548Y1049648559D01*
X-974306678Y1049686398D01*
X-974365795Y1049730242D01*
X-974420330Y1049779670D01*
X-974469758Y1049834205D01*
X-974513602Y1049893322D01*
X-974551441Y1049956452D01*
X-974582910Y1050022987D01*
X-974607705Y1050092286D01*
X-974625589Y1050163682D01*
X-974636389Y1050236487D01*
X-974640000Y1050310000D01*
X-974640000Y1052810000D01*
X-974636389Y1052883513D01*
X-974625589Y1052956318D01*
X-974607705Y1053027714D01*
X-974582910Y1053097013D01*
X-974551441Y1053163548D01*
X-974513602Y1053226678D01*
X-974469758Y1053285795D01*
X-974420330Y1053340330D01*
X-974365795Y1053389758D01*
X-974306678Y1053433602D01*
X-974243548Y1053471441D01*
X-974177013Y1053502910D01*
X-974107714Y1053527705D01*
X-974036318Y1053545589D01*
X-973963513Y1053556389D01*
X-973890000Y1053560000D01*
X-972390000Y1053560000D01*
X-972316487Y1053556389D01*
G37*
G04 #@! TD.AperFunction*
G04 #@! TA.AperFunction,ComponentPad*
G36*
X-972316487Y1057216389D02*
G01*
X-972243682Y1057205589D01*
X-972172286Y1057187705D01*
X-972102987Y1057162910D01*
X-972036452Y1057131441D01*
X-971973322Y1057093602D01*
X-971914205Y1057049758D01*
X-971859670Y1057000330D01*
X-971810242Y1056945795D01*
X-971766398Y1056886678D01*
X-971728559Y1056823548D01*
X-971697090Y1056757013D01*
X-971672295Y1056687714D01*
X-971654411Y1056616318D01*
X-971643611Y1056543513D01*
X-971640000Y1056470000D01*
X-971640000Y1053970000D01*
X-971643611Y1053896487D01*
X-971654411Y1053823682D01*
X-971672295Y1053752286D01*
X-971697090Y1053682987D01*
X-971728559Y1053616452D01*
X-971766398Y1053553322D01*
X-971810242Y1053494205D01*
X-971859670Y1053439670D01*
X-971914205Y1053390242D01*
X-971973322Y1053346398D01*
X-972036452Y1053308559D01*
X-972102987Y1053277090D01*
X-972172286Y1053252295D01*
X-972243682Y1053234411D01*
X-972316487Y1053223611D01*
X-972390000Y1053220000D01*
X-973890000Y1053220000D01*
X-973963513Y1053223611D01*
X-974036318Y1053234411D01*
X-974107714Y1053252295D01*
X-974177013Y1053277090D01*
X-974243548Y1053308559D01*
X-974306678Y1053346398D01*
X-974365795Y1053390242D01*
X-974420330Y1053439670D01*
X-974469758Y1053494205D01*
X-974513602Y1053553322D01*
X-974551441Y1053616452D01*
X-974582910Y1053682987D01*
X-974607705Y1053752286D01*
X-974625589Y1053823682D01*
X-974636389Y1053896487D01*
X-974640000Y1053970000D01*
X-974640000Y1056470000D01*
X-974636389Y1056543513D01*
X-974625589Y1056616318D01*
X-974607705Y1056687714D01*
X-974582910Y1056757013D01*
X-974551441Y1056823548D01*
X-974513602Y1056886678D01*
X-974469758Y1056945795D01*
X-974420330Y1057000330D01*
X-974365795Y1057049758D01*
X-974306678Y1057093602D01*
X-974243548Y1057131441D01*
X-974177013Y1057162910D01*
X-974107714Y1057187705D01*
X-974036318Y1057205589D01*
X-973963513Y1057216389D01*
X-973890000Y1057220000D01*
X-972390000Y1057220000D01*
X-972316487Y1057216389D01*
G37*
G04 #@! TD.AperFunction*
G04 #@! TA.AperFunction,ComponentPad*
G36*
X-978316487Y1053556389D02*
G01*
X-978243682Y1053545589D01*
X-978172286Y1053527705D01*
X-978102987Y1053502910D01*
X-978036452Y1053471441D01*
X-977973322Y1053433602D01*
X-977914205Y1053389758D01*
X-977859670Y1053340330D01*
X-977810242Y1053285795D01*
X-977766398Y1053226678D01*
X-977728559Y1053163548D01*
X-977697090Y1053097013D01*
X-977672295Y1053027714D01*
X-977654411Y1052956318D01*
X-977643611Y1052883513D01*
X-977640000Y1052810000D01*
X-977640000Y1050310000D01*
X-977643611Y1050236487D01*
X-977654411Y1050163682D01*
X-977672295Y1050092286D01*
X-977697090Y1050022987D01*
X-977728559Y1049956452D01*
X-977766398Y1049893322D01*
X-977810242Y1049834205D01*
X-977859670Y1049779670D01*
X-977914205Y1049730242D01*
X-977973322Y1049686398D01*
X-978036452Y1049648559D01*
X-978102987Y1049617090D01*
X-978172286Y1049592295D01*
X-978243682Y1049574411D01*
X-978316487Y1049563611D01*
X-978390000Y1049560000D01*
X-979890000Y1049560000D01*
X-979963513Y1049563611D01*
X-980036318Y1049574411D01*
X-980107714Y1049592295D01*
X-980177013Y1049617090D01*
X-980243548Y1049648559D01*
X-980306678Y1049686398D01*
X-980365795Y1049730242D01*
X-980420330Y1049779670D01*
X-980469758Y1049834205D01*
X-980513602Y1049893322D01*
X-980551441Y1049956452D01*
X-980582910Y1050022987D01*
X-980607705Y1050092286D01*
X-980625589Y1050163682D01*
X-980636389Y1050236487D01*
X-980640000Y1050310000D01*
X-980640000Y1052810000D01*
X-980636389Y1052883513D01*
X-980625589Y1052956318D01*
X-980607705Y1053027714D01*
X-980582910Y1053097013D01*
X-980551441Y1053163548D01*
X-980513602Y1053226678D01*
X-980469758Y1053285795D01*
X-980420330Y1053340330D01*
X-980365795Y1053389758D01*
X-980306678Y1053433602D01*
X-980243548Y1053471441D01*
X-980177013Y1053502910D01*
X-980107714Y1053527705D01*
X-980036318Y1053545589D01*
X-979963513Y1053556389D01*
X-979890000Y1053560000D01*
X-978390000Y1053560000D01*
X-978316487Y1053556389D01*
G37*
G04 #@! TD.AperFunction*
G04 #@! TA.AperFunction,ComponentPad*
G36*
X-978316487Y1057216389D02*
G01*
X-978243682Y1057205589D01*
X-978172286Y1057187705D01*
X-978102987Y1057162910D01*
X-978036452Y1057131441D01*
X-977973322Y1057093602D01*
X-977914205Y1057049758D01*
X-977859670Y1057000330D01*
X-977810242Y1056945795D01*
X-977766398Y1056886678D01*
X-977728559Y1056823548D01*
X-977697090Y1056757013D01*
X-977672295Y1056687714D01*
X-977654411Y1056616318D01*
X-977643611Y1056543513D01*
X-977640000Y1056470000D01*
X-977640000Y1053970000D01*
X-977643611Y1053896487D01*
X-977654411Y1053823682D01*
X-977672295Y1053752286D01*
X-977697090Y1053682987D01*
X-977728559Y1053616452D01*
X-977766398Y1053553322D01*
X-977810242Y1053494205D01*
X-977859670Y1053439670D01*
X-977914205Y1053390242D01*
X-977973322Y1053346398D01*
X-978036452Y1053308559D01*
X-978102987Y1053277090D01*
X-978172286Y1053252295D01*
X-978243682Y1053234411D01*
X-978316487Y1053223611D01*
X-978390000Y1053220000D01*
X-979890000Y1053220000D01*
X-979963513Y1053223611D01*
X-980036318Y1053234411D01*
X-980107714Y1053252295D01*
X-980177013Y1053277090D01*
X-980243548Y1053308559D01*
X-980306678Y1053346398D01*
X-980365795Y1053390242D01*
X-980420330Y1053439670D01*
X-980469758Y1053494205D01*
X-980513602Y1053553322D01*
X-980551441Y1053616452D01*
X-980582910Y1053682987D01*
X-980607705Y1053752286D01*
X-980625589Y1053823682D01*
X-980636389Y1053896487D01*
X-980640000Y1053970000D01*
X-980640000Y1056470000D01*
X-980636389Y1056543513D01*
X-980625589Y1056616318D01*
X-980607705Y1056687714D01*
X-980582910Y1056757013D01*
X-980551441Y1056823548D01*
X-980513602Y1056886678D01*
X-980469758Y1056945795D01*
X-980420330Y1057000330D01*
X-980365795Y1057049758D01*
X-980306678Y1057093602D01*
X-980243548Y1057131441D01*
X-980177013Y1057162910D01*
X-980107714Y1057187705D01*
X-980036318Y1057205589D01*
X-979963513Y1057216389D01*
X-979890000Y1057220000D01*
X-978390000Y1057220000D01*
X-978316487Y1057216389D01*
G37*
G04 #@! TD.AperFunction*
G04 #@! TA.AperFunction,ComponentPad*
G36*
X-998316487Y1053556389D02*
G01*
X-998243682Y1053545589D01*
X-998172286Y1053527705D01*
X-998102987Y1053502910D01*
X-998036452Y1053471441D01*
X-997973322Y1053433602D01*
X-997914205Y1053389758D01*
X-997859670Y1053340330D01*
X-997810242Y1053285795D01*
X-997766398Y1053226678D01*
X-997728559Y1053163548D01*
X-997697090Y1053097013D01*
X-997672295Y1053027714D01*
X-997654411Y1052956318D01*
X-997643611Y1052883513D01*
X-997640000Y1052810000D01*
X-997640000Y1050310000D01*
X-997643611Y1050236487D01*
X-997654411Y1050163682D01*
X-997672295Y1050092286D01*
X-997697090Y1050022987D01*
X-997728559Y1049956452D01*
X-997766398Y1049893322D01*
X-997810242Y1049834205D01*
X-997859670Y1049779670D01*
X-997914205Y1049730242D01*
X-997973322Y1049686398D01*
X-998036452Y1049648559D01*
X-998102987Y1049617090D01*
X-998172286Y1049592295D01*
X-998243682Y1049574411D01*
X-998316487Y1049563611D01*
X-998390000Y1049560000D01*
X-999890000Y1049560000D01*
X-999963513Y1049563611D01*
X-1000036318Y1049574411D01*
X-1000107714Y1049592295D01*
X-1000177013Y1049617090D01*
X-1000243548Y1049648559D01*
X-1000306678Y1049686398D01*
X-1000365795Y1049730242D01*
X-1000420330Y1049779670D01*
X-1000469758Y1049834205D01*
X-1000513602Y1049893322D01*
X-1000551441Y1049956452D01*
X-1000582910Y1050022987D01*
X-1000607705Y1050092286D01*
X-1000625589Y1050163682D01*
X-1000636389Y1050236487D01*
X-1000640000Y1050310000D01*
X-1000640000Y1052810000D01*
X-1000636389Y1052883513D01*
X-1000625589Y1052956318D01*
X-1000607705Y1053027714D01*
X-1000582910Y1053097013D01*
X-1000551441Y1053163548D01*
X-1000513602Y1053226678D01*
X-1000469758Y1053285795D01*
X-1000420330Y1053340330D01*
X-1000365795Y1053389758D01*
X-1000306678Y1053433602D01*
X-1000243548Y1053471441D01*
X-1000177013Y1053502910D01*
X-1000107714Y1053527705D01*
X-1000036318Y1053545589D01*
X-999963513Y1053556389D01*
X-999890000Y1053560000D01*
X-998390000Y1053560000D01*
X-998316487Y1053556389D01*
G37*
G04 #@! TD.AperFunction*
G04 #@! TA.AperFunction,ComponentPad*
G36*
X-998316487Y1057216389D02*
G01*
X-998243682Y1057205589D01*
X-998172286Y1057187705D01*
X-998102987Y1057162910D01*
X-998036452Y1057131441D01*
X-997973322Y1057093602D01*
X-997914205Y1057049758D01*
X-997859670Y1057000330D01*
X-997810242Y1056945795D01*
X-997766398Y1056886678D01*
X-997728559Y1056823548D01*
X-997697090Y1056757013D01*
X-997672295Y1056687714D01*
X-997654411Y1056616318D01*
X-997643611Y1056543513D01*
X-997640000Y1056470000D01*
X-997640000Y1053970000D01*
X-997643611Y1053896487D01*
X-997654411Y1053823682D01*
X-997672295Y1053752286D01*
X-997697090Y1053682987D01*
X-997728559Y1053616452D01*
X-997766398Y1053553322D01*
X-997810242Y1053494205D01*
X-997859670Y1053439670D01*
X-997914205Y1053390242D01*
X-997973322Y1053346398D01*
X-998036452Y1053308559D01*
X-998102987Y1053277090D01*
X-998172286Y1053252295D01*
X-998243682Y1053234411D01*
X-998316487Y1053223611D01*
X-998390000Y1053220000D01*
X-999890000Y1053220000D01*
X-999963513Y1053223611D01*
X-1000036318Y1053234411D01*
X-1000107714Y1053252295D01*
X-1000177013Y1053277090D01*
X-1000243548Y1053308559D01*
X-1000306678Y1053346398D01*
X-1000365795Y1053390242D01*
X-1000420330Y1053439670D01*
X-1000469758Y1053494205D01*
X-1000513602Y1053553322D01*
X-1000551441Y1053616452D01*
X-1000582910Y1053682987D01*
X-1000607705Y1053752286D01*
X-1000625589Y1053823682D01*
X-1000636389Y1053896487D01*
X-1000640000Y1053970000D01*
X-1000640000Y1056470000D01*
X-1000636389Y1056543513D01*
X-1000625589Y1056616318D01*
X-1000607705Y1056687714D01*
X-1000582910Y1056757013D01*
X-1000551441Y1056823548D01*
X-1000513602Y1056886678D01*
X-1000469758Y1056945795D01*
X-1000420330Y1057000330D01*
X-1000365795Y1057049758D01*
X-1000306678Y1057093602D01*
X-1000243548Y1057131441D01*
X-1000177013Y1057162910D01*
X-1000107714Y1057187705D01*
X-1000036318Y1057205589D01*
X-999963513Y1057216389D01*
X-999890000Y1057220000D01*
X-998390000Y1057220000D01*
X-998316487Y1057216389D01*
G37*
G04 #@! TD.AperFunction*
G04 #@! TA.AperFunction,ComponentPad*
G36*
X-992316487Y1053556389D02*
G01*
X-992243682Y1053545589D01*
X-992172286Y1053527705D01*
X-992102987Y1053502910D01*
X-992036452Y1053471441D01*
X-991973322Y1053433602D01*
X-991914205Y1053389758D01*
X-991859670Y1053340330D01*
X-991810242Y1053285795D01*
X-991766398Y1053226678D01*
X-991728559Y1053163548D01*
X-991697090Y1053097013D01*
X-991672295Y1053027714D01*
X-991654411Y1052956318D01*
X-991643611Y1052883513D01*
X-991640000Y1052810000D01*
X-991640000Y1050310000D01*
X-991643611Y1050236487D01*
X-991654411Y1050163682D01*
X-991672295Y1050092286D01*
X-991697090Y1050022987D01*
X-991728559Y1049956452D01*
X-991766398Y1049893322D01*
X-991810242Y1049834205D01*
X-991859670Y1049779670D01*
X-991914205Y1049730242D01*
X-991973322Y1049686398D01*
X-992036452Y1049648559D01*
X-992102987Y1049617090D01*
X-992172286Y1049592295D01*
X-992243682Y1049574411D01*
X-992316487Y1049563611D01*
X-992390000Y1049560000D01*
X-993890000Y1049560000D01*
X-993963513Y1049563611D01*
X-994036318Y1049574411D01*
X-994107714Y1049592295D01*
X-994177013Y1049617090D01*
X-994243548Y1049648559D01*
X-994306678Y1049686398D01*
X-994365795Y1049730242D01*
X-994420330Y1049779670D01*
X-994469758Y1049834205D01*
X-994513602Y1049893322D01*
X-994551441Y1049956452D01*
X-994582910Y1050022987D01*
X-994607705Y1050092286D01*
X-994625589Y1050163682D01*
X-994636389Y1050236487D01*
X-994640000Y1050310000D01*
X-994640000Y1052810000D01*
X-994636389Y1052883513D01*
X-994625589Y1052956318D01*
X-994607705Y1053027714D01*
X-994582910Y1053097013D01*
X-994551441Y1053163548D01*
X-994513602Y1053226678D01*
X-994469758Y1053285795D01*
X-994420330Y1053340330D01*
X-994365795Y1053389758D01*
X-994306678Y1053433602D01*
X-994243548Y1053471441D01*
X-994177013Y1053502910D01*
X-994107714Y1053527705D01*
X-994036318Y1053545589D01*
X-993963513Y1053556389D01*
X-993890000Y1053560000D01*
X-992390000Y1053560000D01*
X-992316487Y1053556389D01*
G37*
G04 #@! TD.AperFunction*
G04 #@! TA.AperFunction,ComponentPad*
G36*
X-992316487Y1057216389D02*
G01*
X-992243682Y1057205589D01*
X-992172286Y1057187705D01*
X-992102987Y1057162910D01*
X-992036452Y1057131441D01*
X-991973322Y1057093602D01*
X-991914205Y1057049758D01*
X-991859670Y1057000330D01*
X-991810242Y1056945795D01*
X-991766398Y1056886678D01*
X-991728559Y1056823548D01*
X-991697090Y1056757013D01*
X-991672295Y1056687714D01*
X-991654411Y1056616318D01*
X-991643611Y1056543513D01*
X-991640000Y1056470000D01*
X-991640000Y1053970000D01*
X-991643611Y1053896487D01*
X-991654411Y1053823682D01*
X-991672295Y1053752286D01*
X-991697090Y1053682987D01*
X-991728559Y1053616452D01*
X-991766398Y1053553322D01*
X-991810242Y1053494205D01*
X-991859670Y1053439670D01*
X-991914205Y1053390242D01*
X-991973322Y1053346398D01*
X-992036452Y1053308559D01*
X-992102987Y1053277090D01*
X-992172286Y1053252295D01*
X-992243682Y1053234411D01*
X-992316487Y1053223611D01*
X-992390000Y1053220000D01*
X-993890000Y1053220000D01*
X-993963513Y1053223611D01*
X-994036318Y1053234411D01*
X-994107714Y1053252295D01*
X-994177013Y1053277090D01*
X-994243548Y1053308559D01*
X-994306678Y1053346398D01*
X-994365795Y1053390242D01*
X-994420330Y1053439670D01*
X-994469758Y1053494205D01*
X-994513602Y1053553322D01*
X-994551441Y1053616452D01*
X-994582910Y1053682987D01*
X-994607705Y1053752286D01*
X-994625589Y1053823682D01*
X-994636389Y1053896487D01*
X-994640000Y1053970000D01*
X-994640000Y1056470000D01*
X-994636389Y1056543513D01*
X-994625589Y1056616318D01*
X-994607705Y1056687714D01*
X-994582910Y1056757013D01*
X-994551441Y1056823548D01*
X-994513602Y1056886678D01*
X-994469758Y1056945795D01*
X-994420330Y1057000330D01*
X-994365795Y1057049758D01*
X-994306678Y1057093602D01*
X-994243548Y1057131441D01*
X-994177013Y1057162910D01*
X-994107714Y1057187705D01*
X-994036318Y1057205589D01*
X-993963513Y1057216389D01*
X-993890000Y1057220000D01*
X-992390000Y1057220000D01*
X-992316487Y1057216389D01*
G37*
G04 #@! TD.AperFunction*
D11*
X-964184000Y1046226000D03*
D12*
X-964184000Y1056386000D03*
D11*
X-966470000Y1038352000D03*
D12*
X-976630000Y1038352000D03*
D11*
X-1005332000Y1038352000D03*
D12*
X-995172000Y1038352000D03*
D11*
X-1007872000Y1046226000D03*
D12*
X-1007872000Y1056386000D03*
D13*
X-989330000Y1046226000D03*
D14*
X-1004570000Y1046226000D03*
D15*
X-980186000Y1039368000D03*
D16*
X-982726000Y1039368000D03*
D13*
X-982726000Y1046226000D03*
D14*
X-967486000Y1046226000D03*
D17*
X-966470000Y1041654000D03*
D18*
X-976630000Y1041654000D03*
D15*
X-991870000Y1039368000D03*
D16*
X-989330000Y1039368000D03*
D17*
X-1005332000Y1041654000D03*
D18*
X-995172000Y1041654000D03*
M02*
