G04 #@! TF.GenerationSoftware,KiCad,Pcbnew,7.0.1*
G04 #@! TF.CreationDate,2023-05-13T21:13:20-04:00*
G04 #@! TF.ProjectId,cm300-board,636d3330-302d-4626-9f61-72642e6b6963,rev?*
G04 #@! TF.SameCoordinates,Original*
G04 #@! TF.FileFunction,Copper,L2,Bot*
G04 #@! TF.FilePolarity,Positive*
%FSLAX46Y46*%
G04 Gerber Fmt 4.6, Leading zero omitted, Abs format (unit mm)*
G04 Created by KiCad (PCBNEW 7.0.1) date 2023-05-13 21:13:20*
%MOMM*%
%LPD*%
G01*
G04 APERTURE LIST*
G04 Aperture macros list*
%AMRoundRect*
0 Rectangle with rounded corners*
0 $1 Rounding radius*
0 $2 $3 $4 $5 $6 $7 $8 $9 X,Y pos of 4 corners*
0 Add a 4 corners polygon primitive as box body*
4,1,4,$2,$3,$4,$5,$6,$7,$8,$9,$2,$3,0*
0 Add four circle primitives for the rounded corners*
1,1,$1+$1,$2,$3*
1,1,$1+$1,$4,$5*
1,1,$1+$1,$6,$7*
1,1,$1+$1,$8,$9*
0 Add four rect primitives between the rounded corners*
20,1,$1+$1,$2,$3,$4,$5,0*
20,1,$1+$1,$4,$5,$6,$7,0*
20,1,$1+$1,$6,$7,$8,$9,0*
20,1,$1+$1,$8,$9,$2,$3,0*%
G04 Aperture macros list end*
G04 #@! TA.AperFunction,ComponentPad*
%ADD10R,2.100000X2.100000*%
G04 #@! TD*
G04 #@! TA.AperFunction,ComponentPad*
%ADD11C,2.100000*%
G04 #@! TD*
G04 #@! TA.AperFunction,ComponentPad*
%ADD12RoundRect,0.750000X0.750000X-1.250000X0.750000X1.250000X-0.750000X1.250000X-0.750000X-1.250000X0*%
G04 #@! TD*
G04 #@! TA.AperFunction,ViaPad*
%ADD13C,0.800000*%
G04 #@! TD*
G04 #@! TA.AperFunction,Conductor*
%ADD14C,0.250000*%
G04 #@! TD*
G04 #@! TA.AperFunction,Conductor*
%ADD15C,1.574800*%
G04 #@! TD*
G04 APERTURE END LIST*
D10*
X-993040000Y1039368000D03*
D11*
X-990500000Y1039368000D03*
D12*
X-999140000Y1055220000D03*
X-999140000Y1051560000D03*
X-993140000Y1055220000D03*
X-993140000Y1051560000D03*
X-979140000Y1055220000D03*
X-979140000Y1051560000D03*
X-973140000Y1055220000D03*
X-973140000Y1051560000D03*
D10*
X-981540000Y1039368000D03*
D11*
X-979000000Y1039368000D03*
D13*
X-1003050000Y1052000000D03*
X-1003300000Y1037550000D03*
X-995550000Y1045850000D03*
X-1003550000Y1046050000D03*
X-969050000Y1051950000D03*
X-976600000Y1045850000D03*
X-968800000Y1037600000D03*
X-968400000Y1046050000D03*
D14*
X-999490000Y1051560000D02*
X-999490000Y1051560000D01*
X-999490000Y1051560000D02*
X-999140000Y1051560000D01*
X-972820000Y1051560000D02*
X-973140000Y1051560000D01*
X-972820000Y1051560000D02*
X-972820000Y1051560000D01*
X-979170000Y1051560000D02*
X-979140000Y1051560000D01*
D15*
X-979140000Y1051060000D02*
X-979140000Y1051560000D01*
G04 #@! TA.AperFunction,Conductor*
G36*
X-989843077Y1057999220D02*
G01*
X-989685869Y1057981506D01*
X-989658798Y1057975328D01*
X-989516078Y1057925388D01*
X-989491061Y1057913340D01*
X-989363036Y1057832897D01*
X-989341327Y1057815584D01*
X-989234415Y1057708672D01*
X-989217103Y1057686965D01*
X-989196781Y1057654622D01*
X-989136659Y1057558938D01*
X-989124611Y1057533921D01*
X-989074671Y1057391201D01*
X-989068493Y1057364132D01*
X-989058375Y1057274332D01*
X-989050780Y1057206923D01*
X-989050000Y1057193039D01*
X-989050000Y1040393796D01*
X-989064413Y1040335773D01*
X-989104302Y1040291238D01*
X-989160393Y1040270545D01*
X-989219647Y1040278504D01*
X-989268290Y1040313264D01*
X-989337071Y1040393796D01*
X-989400241Y1040467759D01*
X-989585821Y1040626259D01*
X-989664887Y1040674711D01*
X-989793911Y1040753778D01*
X-990019384Y1040847171D01*
X-990019388Y1040847172D01*
X-990256698Y1040904146D01*
X-990500000Y1040923294D01*
X-990743302Y1040904146D01*
X-990980612Y1040847172D01*
X-990980613Y1040847171D01*
X-990980615Y1040847171D01*
X-991206085Y1040753779D01*
X-991206087Y1040753778D01*
X-991206089Y1040753777D01*
X-991390860Y1040640548D01*
X-991448567Y1040622479D01*
X-991507962Y1040633853D01*
X-991554914Y1040671966D01*
X-991632453Y1040775545D01*
X-991747668Y1040861795D01*
X-991747669Y1040861796D01*
X-991882517Y1040912091D01*
X-991942127Y1040918500D01*
X-994137872Y1040918499D01*
X-994197483Y1040912091D01*
X-994332331Y1040861796D01*
X-994447546Y1040775546D01*
X-994533796Y1040660331D01*
X-994584091Y1040525483D01*
X-994590500Y1040465873D01*
X-994590499Y1038270128D01*
X-994584091Y1038210517D01*
X-994533796Y1038075669D01*
X-994447546Y1037960454D01*
X-994332331Y1037874204D01*
X-994197483Y1037823909D01*
X-994137873Y1037817500D01*
X-994137869Y1037817500D01*
X-991942130Y1037817500D01*
X-991882515Y1037823909D01*
X-991747669Y1037874204D01*
X-991632451Y1037960456D01*
X-991554913Y1038064033D01*
X-991507962Y1038102146D01*
X-991448567Y1038113520D01*
X-991390857Y1038095449D01*
X-991206088Y1037982221D01*
X-990980615Y1037888828D01*
X-990743303Y1037831854D01*
X-990500000Y1037812706D01*
X-990256696Y1037831854D01*
X-990019384Y1037888828D01*
X-989793911Y1037982221D01*
X-989585822Y1038109740D01*
X-989400241Y1038268241D01*
X-989268290Y1038422736D01*
X-989219647Y1038457496D01*
X-989160393Y1038465455D01*
X-989104302Y1038444762D01*
X-989064413Y1038400227D01*
X-989050000Y1038342204D01*
X-989050000Y1036355412D01*
X-989050472Y1036344605D01*
X-989068044Y1036143750D01*
X-989071796Y1036122464D01*
X-989122578Y1035932944D01*
X-989129964Y1035912651D01*
X-989212889Y1035734819D01*
X-989223683Y1035716123D01*
X-989336226Y1035555393D01*
X-989350109Y1035538849D01*
X-989488849Y1035400109D01*
X-989505393Y1035386226D01*
X-989666123Y1035273683D01*
X-989684819Y1035262889D01*
X-989862651Y1035179964D01*
X-989882944Y1035172578D01*
X-990072464Y1035121797D01*
X-990093747Y1035118044D01*
X-990290216Y1035100855D01*
X-990294605Y1035100472D01*
X-990305412Y1035100000D01*
X-1002944588Y1035100000D01*
X-1002955395Y1035100472D01*
X-1002961912Y1035101042D01*
X-1003156250Y1035118044D01*
X-1003177535Y1035121797D01*
X-1003243839Y1035139563D01*
X-1003367051Y1035172577D01*
X-1003387352Y1035179966D01*
X-1003565175Y1035262886D01*
X-1003583881Y1035273686D01*
X-1003744600Y1035386222D01*
X-1003761156Y1035400115D01*
X-1003899884Y1035538843D01*
X-1003913778Y1035555401D01*
X-1004026309Y1035716112D01*
X-1004037116Y1035734830D01*
X-1004120030Y1035912640D01*
X-1004127423Y1035932952D01*
X-1004178202Y1036122464D01*
X-1004181955Y1036143749D01*
X-1004199528Y1036344604D01*
X-1004200000Y1036355412D01*
X-1004200000Y1051260000D01*
X-1001139999Y1051260000D01*
X-1001139999Y1050245812D01*
X-1001129599Y1050113668D01*
X-1001074622Y1049895481D01*
X-1000981569Y1049690620D01*
X-1000853434Y1049505667D01*
X-1000694332Y1049346565D01*
X-1000509379Y1049218430D01*
X-1000304518Y1049125377D01*
X-1000086332Y1049070400D01*
X-999954188Y1049060000D01*
X-999440000Y1049060000D01*
X-999440000Y1051260000D01*
X-998840000Y1051260000D01*
X-998840000Y1049060001D01*
X-998325812Y1049060001D01*
X-998193668Y1049070400D01*
X-997975481Y1049125377D01*
X-997770620Y1049218430D01*
X-997585667Y1049346565D01*
X-997426565Y1049505667D01*
X-997298430Y1049690620D01*
X-997205377Y1049895481D01*
X-997150400Y1050113667D01*
X-997140000Y1050245812D01*
X-997140000Y1051260000D01*
X-998840000Y1051260000D01*
X-999440000Y1051260000D01*
X-1001139999Y1051260000D01*
X-1004200000Y1051260000D01*
X-1004200000Y1051860000D01*
X-1001140000Y1051860000D01*
X-999440000Y1051860000D01*
X-999440000Y1054920000D01*
X-998840000Y1054920000D01*
X-998840000Y1051860000D01*
X-997140001Y1051860000D01*
X-997140001Y1052874188D01*
X-997140003Y1052874217D01*
X-995140500Y1052874217D01*
X-995140499Y1050245784D01*
X-995130096Y1050113588D01*
X-995130095Y1050113584D01*
X-995130095Y1050113583D01*
X-995075097Y1049895318D01*
X-994982007Y1049690374D01*
X-994853819Y1049505345D01*
X-994694654Y1049346180D01*
X-994509625Y1049217992D01*
X-994304681Y1049124902D01*
X-994086416Y1049069904D01*
X-994020314Y1049064701D01*
X-993954217Y1049059500D01*
X-993954213Y1049059500D01*
X-992325785Y1049059500D01*
X-992193583Y1049069904D01*
X-991975318Y1049124902D01*
X-991770374Y1049217992D01*
X-991585345Y1049346180D01*
X-991426180Y1049505345D01*
X-991297992Y1049690374D01*
X-991204902Y1049895318D01*
X-991149904Y1050113583D01*
X-991139500Y1050245786D01*
X-991139500Y1052874214D01*
X-991149904Y1053006416D01*
X-991204902Y1053224681D01*
X-991256701Y1053338719D01*
X-991267802Y1053390000D01*
X-991256701Y1053441281D01*
X-991204902Y1053555318D01*
X-991149904Y1053773583D01*
X-991139500Y1053905786D01*
X-991139500Y1056534214D01*
X-991149904Y1056666416D01*
X-991204902Y1056884681D01*
X-991297992Y1057089625D01*
X-991426180Y1057274654D01*
X-991585345Y1057433819D01*
X-991770374Y1057562007D01*
X-991975318Y1057655097D01*
X-992193583Y1057710095D01*
X-992193584Y1057710095D01*
X-992193588Y1057710096D01*
X-992325783Y1057720500D01*
X-993954216Y1057720499D01*
X-994086412Y1057710096D01*
X-994086415Y1057710095D01*
X-994086416Y1057710095D01*
X-994304681Y1057655097D01*
X-994304683Y1057655096D01*
X-994509626Y1057562007D01*
X-994694654Y1057433819D01*
X-994853819Y1057274654D01*
X-994982007Y1057089626D01*
X-995075096Y1056884683D01*
X-995130096Y1056666412D01*
X-995140500Y1056534217D01*
X-995140499Y1053905784D01*
X-995130096Y1053773588D01*
X-995130095Y1053773584D01*
X-995130095Y1053773583D01*
X-995075137Y1053555478D01*
X-995075096Y1053555317D01*
X-995023298Y1053441281D01*
X-995012197Y1053390000D01*
X-995023297Y1053338720D01*
X-995075096Y1053224683D01*
X-995130096Y1053006412D01*
X-995140500Y1052874217D01*
X-997140003Y1052874217D01*
X-997150400Y1053006331D01*
X-997205378Y1053224521D01*
X-997257249Y1053338719D01*
X-997268350Y1053390000D01*
X-997257249Y1053441281D01*
X-997205378Y1053555478D01*
X-997150400Y1053773667D01*
X-997140000Y1053905812D01*
X-997140000Y1054920000D01*
X-998840000Y1054920000D01*
X-999440000Y1054920000D01*
X-1001139999Y1054920000D01*
X-1001139999Y1053905812D01*
X-1001129599Y1053773668D01*
X-1001074622Y1053555481D01*
X-1001022749Y1053441282D01*
X-1001011648Y1053390000D01*
X-1001022749Y1053338718D01*
X-1001074622Y1053224518D01*
X-1001129599Y1053006332D01*
X-1001140000Y1052874188D01*
X-1001140000Y1051860000D01*
X-1004200000Y1051860000D01*
X-1004200000Y1055520000D01*
X-1001140000Y1055520000D01*
X-999440000Y1055520000D01*
X-999440000Y1057719999D01*
X-999954188Y1057719999D01*
X-1000086331Y1057709599D01*
X-1000304518Y1057654622D01*
X-1000509379Y1057561569D01*
X-1000694332Y1057433434D01*
X-1000853434Y1057274332D01*
X-1000981569Y1057089379D01*
X-1001074622Y1056884518D01*
X-1001129599Y1056666332D01*
X-1001140000Y1056534188D01*
X-1001140000Y1055520000D01*
X-1004200000Y1055520000D01*
X-1004200000Y1056744588D01*
X-1004199528Y1056755396D01*
X-1004181955Y1056956250D01*
X-1004178202Y1056977535D01*
X-1004127423Y1057167047D01*
X-1004120030Y1057187359D01*
X-1004037116Y1057365169D01*
X-1004026309Y1057383887D01*
X-1003913778Y1057544598D01*
X-1003899884Y1057561156D01*
X-1003761156Y1057699884D01*
X-1003744598Y1057713778D01*
X-1003735712Y1057720000D01*
X-998840000Y1057720000D01*
X-998840000Y1055520000D01*
X-997140001Y1055520000D01*
X-997140001Y1056534188D01*
X-997150400Y1056666331D01*
X-997205377Y1056884518D01*
X-997298430Y1057089379D01*
X-997426565Y1057274332D01*
X-997585667Y1057433434D01*
X-997770620Y1057561569D01*
X-997975481Y1057654622D01*
X-998193667Y1057709599D01*
X-998325812Y1057720000D01*
X-998840000Y1057720000D01*
X-1003735712Y1057720000D01*
X-1003583887Y1057826309D01*
X-1003565169Y1057837116D01*
X-1003387359Y1057920030D01*
X-1003367047Y1057927423D01*
X-1003177535Y1057978202D01*
X-1003156250Y1057981955D01*
X-1002958916Y1057999220D01*
X-1002955394Y1057999528D01*
X-1002944588Y1058000000D01*
X-989856961Y1058000000D01*
X-989843077Y1057999220D01*
G37*
G04 #@! TD.AperFunction*
G04 #@! TA.AperFunction,Conductor*
G36*
X-969044605Y1057999528D02*
G01*
X-969022209Y1057997568D01*
X-968843749Y1057981955D01*
X-968822464Y1057978202D01*
X-968632952Y1057927423D01*
X-968612640Y1057920030D01*
X-968434830Y1057837116D01*
X-968416115Y1057826310D01*
X-968265000Y1057720499D01*
X-968255401Y1057713778D01*
X-968238843Y1057699884D01*
X-968100115Y1057561156D01*
X-968086222Y1057544600D01*
X-967973686Y1057383881D01*
X-967962886Y1057365175D01*
X-967879966Y1057187352D01*
X-967872576Y1057167047D01*
X-967821797Y1056977535D01*
X-967818044Y1056956249D01*
X-967800472Y1056755395D01*
X-967800000Y1056744588D01*
X-967800000Y1036251283D01*
X-967800470Y1036240499D01*
X-967817970Y1036040049D01*
X-967821705Y1036018821D01*
X-967872275Y1035829675D01*
X-967879635Y1035809405D01*
X-967962219Y1035631878D01*
X-967972970Y1035613209D01*
X-968085075Y1035452668D01*
X-968098903Y1035436140D01*
X-968135678Y1035399244D01*
X-968237123Y1035297465D01*
X-968253612Y1035283576D01*
X-968413779Y1035170943D01*
X-968432408Y1035160134D01*
X-968609667Y1035076962D01*
X-968629902Y1035069538D01*
X-968818890Y1035018341D01*
X-968840098Y1035014537D01*
X-969035003Y1034996873D01*
X-969040499Y1034996375D01*
X-969051278Y1034995870D01*
X-981690469Y1034954156D01*
X-981701259Y1034954593D01*
X-981902621Y1034971577D01*
X-981923954Y1034975275D01*
X-982114001Y1035025639D01*
X-982134373Y1035032994D01*
X-982312753Y1035115657D01*
X-982331534Y1035126446D01*
X-982492810Y1035238888D01*
X-982509424Y1035252776D01*
X-982648678Y1035391571D01*
X-982662616Y1035408132D01*
X-982775599Y1035569047D01*
X-982786447Y1035587790D01*
X-982869698Y1035765896D01*
X-982877121Y1035786245D01*
X-982928110Y1035976121D01*
X-982931879Y1035997450D01*
X-982949526Y1036198726D01*
X-982950000Y1036209556D01*
X-982950000Y1037739499D01*
X-982935876Y1037796974D01*
X-982896720Y1037841355D01*
X-982841453Y1037862532D01*
X-982782669Y1037855681D01*
X-982697483Y1037823909D01*
X-982637873Y1037817500D01*
X-982637869Y1037817500D01*
X-980442130Y1037817500D01*
X-980382515Y1037823909D01*
X-980247669Y1037874204D01*
X-980132451Y1037960456D01*
X-980054913Y1038064033D01*
X-980007962Y1038102146D01*
X-979948567Y1038113520D01*
X-979890857Y1038095449D01*
X-979706088Y1037982221D01*
X-979480615Y1037888828D01*
X-979243303Y1037831854D01*
X-979000000Y1037812706D01*
X-978756696Y1037831854D01*
X-978519384Y1037888828D01*
X-978293911Y1037982221D01*
X-978085822Y1038109740D01*
X-977900241Y1038268241D01*
X-977741740Y1038453822D01*
X-977614221Y1038661911D01*
X-977520828Y1038887384D01*
X-977463854Y1039124696D01*
X-977461250Y1039157784D01*
X-977444706Y1039368000D01*
X-977463854Y1039611302D01*
X-977463854Y1039611303D01*
X-977520828Y1039848615D01*
X-977614221Y1040074088D01*
X-977741740Y1040282177D01*
X-977741741Y1040282179D01*
X-977900241Y1040467759D01*
X-978085821Y1040626259D01*
X-978164887Y1040674711D01*
X-978293911Y1040753778D01*
X-978519384Y1040847171D01*
X-978519388Y1040847172D01*
X-978756698Y1040904146D01*
X-979000000Y1040923294D01*
X-979243302Y1040904146D01*
X-979480612Y1040847172D01*
X-979480613Y1040847171D01*
X-979480615Y1040847171D01*
X-979706085Y1040753779D01*
X-979706087Y1040753778D01*
X-979706089Y1040753777D01*
X-979890860Y1040640548D01*
X-979948567Y1040622479D01*
X-980007962Y1040633853D01*
X-980054914Y1040671966D01*
X-980132453Y1040775545D01*
X-980247668Y1040861795D01*
X-980247669Y1040861796D01*
X-980382517Y1040912091D01*
X-980442127Y1040918500D01*
X-982637872Y1040918499D01*
X-982697483Y1040912091D01*
X-982782669Y1040880318D01*
X-982841453Y1040873468D01*
X-982896720Y1040894645D01*
X-982935876Y1040939026D01*
X-982950000Y1040996501D01*
X-982950000Y1052874217D01*
X-981140500Y1052874217D01*
X-981140499Y1050245784D01*
X-981130096Y1050113588D01*
X-981130095Y1050113584D01*
X-981130095Y1050113583D01*
X-981075097Y1049895318D01*
X-980982007Y1049690374D01*
X-980853819Y1049505345D01*
X-980694654Y1049346180D01*
X-980509625Y1049217992D01*
X-980304681Y1049124902D01*
X-980086416Y1049069904D01*
X-980020314Y1049064701D01*
X-979954217Y1049059500D01*
X-979954213Y1049059500D01*
X-978325785Y1049059500D01*
X-978193583Y1049069904D01*
X-977975318Y1049124902D01*
X-977770374Y1049217992D01*
X-977585345Y1049346180D01*
X-977426180Y1049505345D01*
X-977297992Y1049690374D01*
X-977204902Y1049895318D01*
X-977149904Y1050113583D01*
X-977139500Y1050245786D01*
X-977139500Y1051260000D01*
X-975139999Y1051260000D01*
X-975139999Y1050245812D01*
X-975129599Y1050113668D01*
X-975074622Y1049895481D01*
X-974981569Y1049690620D01*
X-974853434Y1049505667D01*
X-974694332Y1049346565D01*
X-974509379Y1049218430D01*
X-974304518Y1049125377D01*
X-974086332Y1049070400D01*
X-973954188Y1049060000D01*
X-973440000Y1049060000D01*
X-973440000Y1051260000D01*
X-972840000Y1051260000D01*
X-972840000Y1049060001D01*
X-972325812Y1049060001D01*
X-972193668Y1049070400D01*
X-971975481Y1049125377D01*
X-971770620Y1049218430D01*
X-971585667Y1049346565D01*
X-971426565Y1049505667D01*
X-971298430Y1049690620D01*
X-971205377Y1049895481D01*
X-971150400Y1050113667D01*
X-971140000Y1050245812D01*
X-971140000Y1051260000D01*
X-972840000Y1051260000D01*
X-973440000Y1051260000D01*
X-975139999Y1051260000D01*
X-977139500Y1051260000D01*
X-977139500Y1051860000D01*
X-975140000Y1051860000D01*
X-973440000Y1051860000D01*
X-973440000Y1054920000D01*
X-972840000Y1054920000D01*
X-972840000Y1051860000D01*
X-971140001Y1051860000D01*
X-971140001Y1052874188D01*
X-971150400Y1053006331D01*
X-971205378Y1053224521D01*
X-971257249Y1053338719D01*
X-971268350Y1053390000D01*
X-971257249Y1053441281D01*
X-971205378Y1053555478D01*
X-971150400Y1053773667D01*
X-971140000Y1053905812D01*
X-971140000Y1054920000D01*
X-972840000Y1054920000D01*
X-973440000Y1054920000D01*
X-975139999Y1054920000D01*
X-975139999Y1053905812D01*
X-975129599Y1053773668D01*
X-975074622Y1053555481D01*
X-975022749Y1053441282D01*
X-975011648Y1053390000D01*
X-975022749Y1053338718D01*
X-975074622Y1053224518D01*
X-975129599Y1053006332D01*
X-975140000Y1052874188D01*
X-975140000Y1051860000D01*
X-977139500Y1051860000D01*
X-977139500Y1052874214D01*
X-977149904Y1053006416D01*
X-977204902Y1053224681D01*
X-977256701Y1053338719D01*
X-977267802Y1053390000D01*
X-977256701Y1053441281D01*
X-977204902Y1053555318D01*
X-977149904Y1053773583D01*
X-977139500Y1053905786D01*
X-977139500Y1055520000D01*
X-975140000Y1055520000D01*
X-973440000Y1055520000D01*
X-973440000Y1057719999D01*
X-973954188Y1057719999D01*
X-974086331Y1057709599D01*
X-974304518Y1057654622D01*
X-974509379Y1057561569D01*
X-974694332Y1057433434D01*
X-974853434Y1057274332D01*
X-974981569Y1057089379D01*
X-975074622Y1056884518D01*
X-975129599Y1056666332D01*
X-975140000Y1056534188D01*
X-975140000Y1055520000D01*
X-977139500Y1055520000D01*
X-977139500Y1056534214D01*
X-977149904Y1056666416D01*
X-977204902Y1056884681D01*
X-977297992Y1057089625D01*
X-977426180Y1057274654D01*
X-977585345Y1057433819D01*
X-977770374Y1057562007D01*
X-977975318Y1057655097D01*
X-978193583Y1057710095D01*
X-978193584Y1057710095D01*
X-978193588Y1057710096D01*
X-978319430Y1057720000D01*
X-972840000Y1057720000D01*
X-972840000Y1055520000D01*
X-971140001Y1055520000D01*
X-971140001Y1056534188D01*
X-971150400Y1056666331D01*
X-971205377Y1056884518D01*
X-971298430Y1057089379D01*
X-971426565Y1057274332D01*
X-971585667Y1057433434D01*
X-971770620Y1057561569D01*
X-971975481Y1057654622D01*
X-972193667Y1057709599D01*
X-972325812Y1057720000D01*
X-972840000Y1057720000D01*
X-978319430Y1057720000D01*
X-978325783Y1057720500D01*
X-979954216Y1057720499D01*
X-980086412Y1057710096D01*
X-980086415Y1057710095D01*
X-980086416Y1057710095D01*
X-980304681Y1057655097D01*
X-980304683Y1057655096D01*
X-980509626Y1057562007D01*
X-980694654Y1057433819D01*
X-980853819Y1057274654D01*
X-980982007Y1057089626D01*
X-981075096Y1056884683D01*
X-981130096Y1056666412D01*
X-981140500Y1056534217D01*
X-981140499Y1053905784D01*
X-981130096Y1053773588D01*
X-981130095Y1053773584D01*
X-981130095Y1053773583D01*
X-981075137Y1053555478D01*
X-981075096Y1053555317D01*
X-981023298Y1053441281D01*
X-981012197Y1053390000D01*
X-981023297Y1053338720D01*
X-981075096Y1053224683D01*
X-981130096Y1053006412D01*
X-981140500Y1052874217D01*
X-982950000Y1052874217D01*
X-982950000Y1056744588D01*
X-982949528Y1056755396D01*
X-982931955Y1056956250D01*
X-982928202Y1056977535D01*
X-982877423Y1057167047D01*
X-982870030Y1057187359D01*
X-982787116Y1057365169D01*
X-982776309Y1057383887D01*
X-982663778Y1057544598D01*
X-982649884Y1057561156D01*
X-982511156Y1057699884D01*
X-982494598Y1057713778D01*
X-982333887Y1057826309D01*
X-982315169Y1057837116D01*
X-982137359Y1057920030D01*
X-982117047Y1057927423D01*
X-981927535Y1057978202D01*
X-981906250Y1057981955D01*
X-981725400Y1057997777D01*
X-981705394Y1057999528D01*
X-981694588Y1058000000D01*
X-969055412Y1058000000D01*
X-969044605Y1057999528D01*
G37*
G04 #@! TD.AperFunction*
M02*
