M48
; DRILL file {KiCad 7.0.1} date Sat 13 May 2023 09:13:24 PM EDT
; FORMAT={-:-/ absolute / inch / decimal}
; #@! TF.CreationDate,2023-05-13T21:13:24-04:00
; #@! TF.GenerationSoftware,Kicad,Pcbnew,7.0.1
; #@! TF.FileFunction,Plated,1,2,PTH
FMAT,2
INCH
; #@! TA.AperFunction,Plated,PTH,ViaDrill
T1C0.0157
; #@! TA.AperFunction,Plated,PTH,ComponentDrill
T2C0.0433
; #@! TA.AperFunction,Plated,PTH,ComponentDrill
T3C0.0650
%
G90
G05
T1
X-39.5098Y41.1831
X-39.5Y40.8484
X-39.4902Y41.4173
X-39.1949Y41.1752
X-38.4488Y41.1752
X-38.1516Y41.4154
X-38.1417Y40.8504
X-38.126Y41.1831
T2
X-39.0961Y40.92
X-38.9961Y40.92
X-38.6433Y40.92
X-38.5433Y40.92
T3
X-39.3362Y41.5441
X-39.3362Y41.4
X-39.1Y41.5441
X-39.1Y41.4
X-38.5488Y41.5441
X-38.5488Y41.4
X-38.3126Y41.5441
X-38.3126Y41.4
T0
M30
