M48
; DRILL file {KiCad 5.1.5} date Tue 31 Dec 2019 08:12:49 PM EST
; FORMAT={-:-/ absolute / inch / decimal}
; #@! TF.CreationDate,2019-12-31T20:12:49-05:00
; #@! TF.GenerationSoftware,Kicad,Pcbnew,5.1.5
FMAT,2
INCH
T1C0.0315
T2C0.0433
T3C0.0512
T4C0.0650
%
G90
G05
T1
X-39.58Y40.88
X-37.96Y41.59
X-37.96Y41.19
X-39.68Y41.59
X-39.68Y41.19
X-38.45Y40.88
X-38.05Y40.88
X-39.18Y40.88
T2
X-39.05Y40.92
X-38.95Y40.92
X-38.69Y40.92
X-38.59Y40.92
X-39.58Y41.01
X-39.18Y41.01
X-38.45Y41.01
X-38.05Y41.01
T3
X-39.55Y41.19
X-38.95Y41.19
X-38.69Y41.19
X-38.09Y41.19
T4
X-39.3362Y41.5441
X-39.3362Y41.4
X-39.1Y41.5441
X-39.1Y41.4
X-38.5488Y41.5441
X-38.5488Y41.4
X-38.3126Y41.5441
X-38.3126Y41.4
T0
M30
