G04 #@! TF.GenerationSoftware,KiCad,Pcbnew,5.1.5*
G04 #@! TF.CreationDate,2019-12-31T20:12:46-05:00*
G04 #@! TF.ProjectId,cm300-board,636d3330-302d-4626-9f61-72642e6b6963,rev?*
G04 #@! TF.SameCoordinates,Original*
G04 #@! TF.FileFunction,Legend,Top*
G04 #@! TF.FilePolarity,Positive*
%FSLAX46Y46*%
G04 Gerber Fmt 4.6, Leading zero omitted, Abs format (unit mm)*
G04 Created by KiCad (PCBNEW 5.1.5) date 2019-12-31 20:12:46*
%MOMM*%
%LPD*%
G04 APERTURE LIST*
%ADD10C,0.120000*%
%ADD11C,0.150000*%
G04 APERTURE END LIST*
D10*
X-986028000Y1057402000D02*
X-986028000Y1035304000D01*
D11*
X-992084285Y1035296000D02*
X-992179523Y1035343619D01*
X-992322380Y1035343619D01*
X-992465238Y1035296000D01*
X-992560476Y1035200761D01*
X-992608095Y1035105523D01*
X-992655714Y1034915047D01*
X-992655714Y1034772190D01*
X-992608095Y1034581714D01*
X-992560476Y1034486476D01*
X-992465238Y1034391238D01*
X-992322380Y1034343619D01*
X-992227142Y1034343619D01*
X-992084285Y1034391238D01*
X-992036666Y1034438857D01*
X-992036666Y1034772190D01*
X-992227142Y1034772190D01*
X-991084285Y1034343619D02*
X-991655714Y1034343619D01*
X-991370000Y1034343619D02*
X-991370000Y1035343619D01*
X-991465238Y1035200761D01*
X-991560476Y1035105523D01*
X-991655714Y1035057904D01*
X-980400285Y1035296000D02*
X-980495523Y1035343619D01*
X-980638380Y1035343619D01*
X-980781238Y1035296000D01*
X-980876476Y1035200761D01*
X-980924095Y1035105523D01*
X-980971714Y1034915047D01*
X-980971714Y1034772190D01*
X-980924095Y1034581714D01*
X-980876476Y1034486476D01*
X-980781238Y1034391238D01*
X-980638380Y1034343619D01*
X-980543142Y1034343619D01*
X-980400285Y1034391238D01*
X-980352666Y1034438857D01*
X-980352666Y1034772190D01*
X-980543142Y1034772190D01*
X-979971714Y1035248380D02*
X-979924095Y1035296000D01*
X-979828857Y1035343619D01*
X-979590761Y1035343619D01*
X-979495523Y1035296000D01*
X-979447904Y1035248380D01*
X-979400285Y1035153142D01*
X-979400285Y1035057904D01*
X-979447904Y1034915047D01*
X-980019333Y1034343619D01*
X-979400285Y1034343619D01*
X-983416476Y1034867428D02*
X-983083142Y1034867428D01*
X-982940285Y1034343619D02*
X-983416476Y1034343619D01*
X-983416476Y1035343619D01*
X-982940285Y1035343619D01*
X-982559333Y1035248380D02*
X-982511714Y1035296000D01*
X-982416476Y1035343619D01*
X-982178380Y1035343619D01*
X-982083142Y1035296000D01*
X-982035523Y1035248380D01*
X-981987904Y1035153142D01*
X-981987904Y1035057904D01*
X-982035523Y1034915047D01*
X-982606952Y1034343619D01*
X-981987904Y1034343619D01*
X-990020476Y1034867428D02*
X-989687142Y1034867428D01*
X-989544285Y1034343619D02*
X-990020476Y1034343619D01*
X-990020476Y1035343619D01*
X-989544285Y1035343619D01*
X-988591904Y1034343619D02*
X-989163333Y1034343619D01*
X-988877619Y1034343619D02*
X-988877619Y1035343619D01*
X-988972857Y1035200761D01*
X-989068095Y1035105523D01*
X-989163333Y1035057904D01*
X-1009506857Y1035010285D02*
X-1009268761Y1034343619D01*
X-1009030666Y1035010285D01*
X-1008459238Y1035343619D02*
X-1008364000Y1035343619D01*
X-1008268761Y1035296000D01*
X-1008221142Y1035248380D01*
X-1008173523Y1035153142D01*
X-1008125904Y1034962666D01*
X-1008125904Y1034724571D01*
X-1008173523Y1034534095D01*
X-1008221142Y1034438857D01*
X-1008268761Y1034391238D01*
X-1008364000Y1034343619D01*
X-1008459238Y1034343619D01*
X-1008554476Y1034391238D01*
X-1008602095Y1034438857D01*
X-1008649714Y1034534095D01*
X-1008697333Y1034724571D01*
X-1008697333Y1034962666D01*
X-1008649714Y1035153142D01*
X-1008602095Y1035248380D01*
X-1008554476Y1035296000D01*
X-1008459238Y1035343619D01*
X-1007697333Y1034438857D02*
X-1007649714Y1034391238D01*
X-1007697333Y1034343619D01*
X-1007744952Y1034391238D01*
X-1007697333Y1034438857D01*
X-1007697333Y1034343619D01*
X-1007268761Y1035248380D02*
X-1007221142Y1035296000D01*
X-1007125904Y1035343619D01*
X-1006887809Y1035343619D01*
X-1006792571Y1035296000D01*
X-1006744952Y1035248380D01*
X-1006697333Y1035153142D01*
X-1006697333Y1035057904D01*
X-1006744952Y1034915047D01*
X-1007316380Y1034343619D01*
X-1006697333Y1034343619D01*
X-1006268761Y1034438857D02*
X-1006221142Y1034391238D01*
X-1006268761Y1034343619D01*
X-1006316380Y1034391238D01*
X-1006268761Y1034438857D01*
X-1006268761Y1034343619D01*
X-1005268761Y1034343619D02*
X-1005840190Y1034343619D01*
X-1005554476Y1034343619D02*
X-1005554476Y1035343619D01*
X-1005649714Y1035200761D01*
X-1005744952Y1035105523D01*
X-1005840190Y1035057904D01*
X-975113142Y1034629333D02*
X-974636952Y1034629333D01*
X-975208380Y1034343619D02*
X-974875047Y1035343619D01*
X-974541714Y1034343619D01*
X-974208380Y1034438857D02*
X-974160761Y1034391238D01*
X-974208380Y1034343619D01*
X-974256000Y1034391238D01*
X-974208380Y1034438857D01*
X-974208380Y1034343619D01*
X-972398857Y1034438857D02*
X-972446476Y1034391238D01*
X-972589333Y1034343619D01*
X-972684571Y1034343619D01*
X-972827428Y1034391238D01*
X-972922666Y1034486476D01*
X-972970285Y1034581714D01*
X-973017904Y1034772190D01*
X-973017904Y1034915047D01*
X-972970285Y1035105523D01*
X-972922666Y1035200761D01*
X-972827428Y1035296000D01*
X-972684571Y1035343619D01*
X-972589333Y1035343619D01*
X-972446476Y1035296000D01*
X-972398857Y1035248380D01*
X-971827428Y1034343619D02*
X-971922666Y1034391238D01*
X-971970285Y1034438857D01*
X-972017904Y1034534095D01*
X-972017904Y1034819809D01*
X-971970285Y1034915047D01*
X-971922666Y1034962666D01*
X-971827428Y1035010285D01*
X-971684571Y1035010285D01*
X-971589333Y1034962666D01*
X-971541714Y1034915047D01*
X-971494095Y1034819809D01*
X-971494095Y1034534095D01*
X-971541714Y1034438857D01*
X-971589333Y1034391238D01*
X-971684571Y1034343619D01*
X-971827428Y1034343619D01*
X-971065523Y1034343619D02*
X-971065523Y1035343619D01*
X-971065523Y1034962666D02*
X-970970285Y1035010285D01*
X-970779809Y1035010285D01*
X-970684571Y1034962666D01*
X-970636952Y1034915047D01*
X-970589333Y1034819809D01*
X-970589333Y1034534095D01*
X-970636952Y1034438857D01*
X-970684571Y1034391238D01*
X-970779809Y1034343619D01*
X-970970285Y1034343619D01*
X-971065523Y1034391238D01*
X-969732190Y1034343619D02*
X-969732190Y1034867428D01*
X-969779809Y1034962666D01*
X-969875047Y1035010285D01*
X-970065523Y1035010285D01*
X-970160761Y1034962666D01*
X-969732190Y1034391238D02*
X-969827428Y1034343619D01*
X-970065523Y1034343619D01*
X-970160761Y1034391238D01*
X-970208380Y1034486476D01*
X-970208380Y1034581714D01*
X-970160761Y1034676952D01*
X-970065523Y1034724571D01*
X-969827428Y1034724571D01*
X-969732190Y1034772190D01*
X-968827428Y1035010285D02*
X-968827428Y1034343619D01*
X-969256000Y1035010285D02*
X-969256000Y1034486476D01*
X-969208380Y1034391238D01*
X-969113142Y1034343619D01*
X-968970285Y1034343619D01*
X-968875047Y1034391238D01*
X-968827428Y1034438857D01*
X-967922666Y1035010285D02*
X-967922666Y1034200761D01*
X-967970285Y1034105523D01*
X-968017904Y1034057904D01*
X-968113142Y1034010285D01*
X-968256000Y1034010285D01*
X-968351238Y1034057904D01*
X-967922666Y1034391238D02*
X-968017904Y1034343619D01*
X-968208380Y1034343619D01*
X-968303619Y1034391238D01*
X-968351238Y1034438857D01*
X-968398857Y1034534095D01*
X-968398857Y1034819809D01*
X-968351238Y1034915047D01*
X-968303619Y1034962666D01*
X-968208380Y1035010285D01*
X-968017904Y1035010285D01*
X-967922666Y1034962666D01*
X-967446476Y1034343619D02*
X-967446476Y1035343619D01*
X-967017904Y1034343619D02*
X-967017904Y1034867428D01*
X-967065523Y1034962666D01*
X-967160761Y1035010285D01*
X-967303619Y1035010285D01*
X-967398857Y1034962666D01*
X-967446476Y1034915047D01*
X-965827428Y1035248380D02*
X-965779809Y1035296000D01*
X-965684571Y1035343619D01*
X-965446476Y1035343619D01*
X-965351238Y1035296000D01*
X-965303619Y1035248380D01*
X-965256000Y1035153142D01*
X-965256000Y1035057904D01*
X-965303619Y1034915047D01*
X-965875047Y1034343619D01*
X-965256000Y1034343619D01*
X-964636952Y1035343619D02*
X-964541714Y1035343619D01*
X-964446476Y1035296000D01*
X-964398857Y1035248380D01*
X-964351238Y1035153142D01*
X-964303619Y1034962666D01*
X-964303619Y1034724571D01*
X-964351238Y1034534095D01*
X-964398857Y1034438857D01*
X-964446476Y1034391238D01*
X-964541714Y1034343619D01*
X-964636952Y1034343619D01*
X-964732190Y1034391238D01*
X-964779809Y1034438857D01*
X-964827428Y1034534095D01*
X-964875047Y1034724571D01*
X-964875047Y1034962666D01*
X-964827428Y1035153142D01*
X-964779809Y1035248380D01*
X-964732190Y1035296000D01*
X-964636952Y1035343619D01*
X-963351238Y1034343619D02*
X-963922666Y1034343619D01*
X-963636952Y1034343619D02*
X-963636952Y1035343619D01*
X-963732190Y1035200761D01*
X-963827428Y1035105523D01*
X-963922666Y1035057904D01*
X-962875047Y1034343619D02*
X-962684571Y1034343619D01*
X-962589333Y1034391238D01*
X-962541714Y1034438857D01*
X-962446476Y1034581714D01*
X-962398857Y1034772190D01*
X-962398857Y1035153142D01*
X-962446476Y1035248380D01*
X-962494095Y1035296000D01*
X-962589333Y1035343619D01*
X-962779809Y1035343619D01*
X-962875047Y1035296000D01*
X-962922666Y1035248380D01*
X-962970285Y1035153142D01*
X-962970285Y1034915047D01*
X-962922666Y1034819809D01*
X-962875047Y1034772190D01*
X-962779809Y1034724571D01*
X-962589333Y1034724571D01*
X-962494095Y1034772190D01*
X-962446476Y1034819809D01*
X-962398857Y1034915047D01*
D10*
X-981140000Y1049060000D02*
X-971140000Y1049060000D01*
X-1001140000Y1049060000D02*
X-991140000Y1049060000D01*
X-981140000Y1057560000D02*
X-971140000Y1057560000D01*
X-1001140000Y1057560000D02*
X-991140000Y1057560000D01*
X-981140000Y1057560000D02*
X-981140000Y1049060000D01*
X-991140000Y1057560000D02*
X-991140000Y1049060000D01*
X-1001140000Y1057560000D02*
X-1001140000Y1049060000D01*
X-971140000Y1049060000D02*
X-971140000Y1057560000D01*
X-964184000Y1047266000D02*
X-964184000Y1048036000D01*
X-964184000Y1055346000D02*
X-964184000Y1054576000D01*
X-962814000Y1048036000D02*
X-962814000Y1054576000D01*
X-965554000Y1048036000D02*
X-962814000Y1048036000D01*
X-965554000Y1054576000D02*
X-965554000Y1048036000D01*
X-962814000Y1054576000D02*
X-965554000Y1054576000D01*
X-967510000Y1038352000D02*
X-968280000Y1038352000D01*
X-975590000Y1038352000D02*
X-974820000Y1038352000D01*
X-968280000Y1039722000D02*
X-974820000Y1039722000D01*
X-968280000Y1036982000D02*
X-968280000Y1039722000D01*
X-974820000Y1036982000D02*
X-968280000Y1036982000D01*
X-974820000Y1039722000D02*
X-974820000Y1036982000D01*
X-1004292000Y1038352000D02*
X-1003522000Y1038352000D01*
X-996212000Y1038352000D02*
X-996982000Y1038352000D01*
X-1003522000Y1036982000D02*
X-996982000Y1036982000D01*
X-1003522000Y1039722000D02*
X-1003522000Y1036982000D01*
X-996982000Y1039722000D02*
X-1003522000Y1039722000D01*
X-996982000Y1036982000D02*
X-996982000Y1039722000D01*
X-1007872000Y1047266000D02*
X-1007872000Y1048036000D01*
X-1007872000Y1055346000D02*
X-1007872000Y1054576000D01*
X-1006502000Y1048036000D02*
X-1006502000Y1054576000D01*
X-1009242000Y1048036000D02*
X-1006502000Y1048036000D01*
X-1009242000Y1054576000D02*
X-1009242000Y1048036000D01*
X-1006502000Y1054576000D02*
X-1009242000Y1054576000D01*
X-1000220000Y1048996000D02*
X-1000220000Y1043456000D01*
X-999980000Y1048996000D02*
X-999980000Y1043456000D01*
X-1000100000Y1048996000D02*
X-1000100000Y1043456000D01*
X-990870000Y1046226000D02*
X-992330000Y1046226000D01*
X-1003030000Y1046226000D02*
X-1001570000Y1046226000D01*
X-992330000Y1048996000D02*
X-1001570000Y1048996000D01*
X-992330000Y1043456000D02*
X-992330000Y1048996000D01*
X-1001570000Y1043456000D02*
X-992330000Y1043456000D01*
X-1001570000Y1048996000D02*
X-1001570000Y1043456000D01*
X-984586000Y1035758000D02*
X-984186000Y1035758000D01*
X-984586000Y1036398000D02*
X-984586000Y1035758000D01*
X-978566000Y1042738000D02*
X-978566000Y1035998000D01*
X-984346000Y1042738000D02*
X-984346000Y1035998000D01*
X-984346000Y1035998000D02*
X-978566000Y1035998000D01*
X-984346000Y1042738000D02*
X-978566000Y1042738000D01*
X-984346000Y1041618000D02*
X-978566000Y1041618000D01*
X-984346000Y1036518000D02*
X-978566000Y1036518000D01*
X-971836000Y1043456000D02*
X-971836000Y1048996000D01*
X-972076000Y1043456000D02*
X-972076000Y1048996000D01*
X-971956000Y1043456000D02*
X-971956000Y1048996000D01*
X-981186000Y1046226000D02*
X-979726000Y1046226000D01*
X-969026000Y1046226000D02*
X-970486000Y1046226000D01*
X-979726000Y1043456000D02*
X-970486000Y1043456000D01*
X-979726000Y1048996000D02*
X-979726000Y1043456000D01*
X-970486000Y1048996000D02*
X-979726000Y1048996000D01*
X-970486000Y1043456000D02*
X-970486000Y1048996000D01*
X-973490000Y1043124000D02*
X-973490000Y1040184000D01*
X-973250000Y1043124000D02*
X-973250000Y1040184000D01*
X-973370000Y1043124000D02*
X-973370000Y1040184000D01*
X-967810000Y1041654000D02*
X-968830000Y1041654000D01*
X-975290000Y1041654000D02*
X-974270000Y1041654000D01*
X-968830000Y1043124000D02*
X-974270000Y1043124000D01*
X-968830000Y1040184000D02*
X-968830000Y1043124000D01*
X-974270000Y1040184000D02*
X-968830000Y1040184000D01*
X-974270000Y1043124000D02*
X-974270000Y1040184000D01*
X-987470000Y1042978000D02*
X-987870000Y1042978000D01*
X-987470000Y1042338000D02*
X-987470000Y1042978000D01*
X-993490000Y1035998000D02*
X-993490000Y1042738000D01*
X-987710000Y1035998000D02*
X-987710000Y1042738000D01*
X-987710000Y1042738000D02*
X-993490000Y1042738000D01*
X-987710000Y1035998000D02*
X-993490000Y1035998000D01*
X-987710000Y1037118000D02*
X-993490000Y1037118000D01*
X-987710000Y1042218000D02*
X-993490000Y1042218000D01*
X-998312000Y1040184000D02*
X-998312000Y1043124000D01*
X-998552000Y1040184000D02*
X-998552000Y1043124000D01*
X-998432000Y1040184000D02*
X-998432000Y1043124000D01*
X-1003992000Y1041654000D02*
X-1002972000Y1041654000D01*
X-996512000Y1041654000D02*
X-997532000Y1041654000D01*
X-1002972000Y1040184000D02*
X-997532000Y1040184000D01*
X-1002972000Y1043124000D02*
X-1002972000Y1040184000D01*
X-997532000Y1043124000D02*
X-1002972000Y1043124000D01*
X-997532000Y1040184000D02*
X-997532000Y1043124000D01*
D11*
X-970494285Y1054600000D02*
X-970589523Y1054647619D01*
X-970732380Y1054647619D01*
X-970875238Y1054600000D01*
X-970970476Y1054504761D01*
X-971018095Y1054409523D01*
X-971065714Y1054219047D01*
X-971065714Y1054076190D01*
X-971018095Y1053885714D01*
X-970970476Y1053790476D01*
X-970875238Y1053695238D01*
X-970732380Y1053647619D01*
X-970637142Y1053647619D01*
X-970494285Y1053695238D01*
X-970446666Y1053742857D01*
X-970446666Y1054076190D01*
X-970637142Y1054076190D01*
X-970065714Y1054552380D02*
X-970018095Y1054600000D01*
X-969922857Y1054647619D01*
X-969684761Y1054647619D01*
X-969589523Y1054600000D01*
X-969541904Y1054552380D01*
X-969494285Y1054457142D01*
X-969494285Y1054361904D01*
X-969541904Y1054219047D01*
X-970113333Y1053647619D01*
X-969494285Y1053647619D01*
X-982400476Y1054171428D02*
X-982067142Y1054171428D01*
X-981924285Y1053647619D02*
X-982400476Y1053647619D01*
X-982400476Y1054647619D01*
X-981924285Y1054647619D01*
X-981543333Y1054552380D02*
X-981495714Y1054600000D01*
X-981400476Y1054647619D01*
X-981162380Y1054647619D01*
X-981067142Y1054600000D01*
X-981019523Y1054552380D01*
X-980971904Y1054457142D01*
X-980971904Y1054361904D01*
X-981019523Y1054219047D01*
X-981590952Y1053647619D01*
X-980971904Y1053647619D01*
X-991290476Y1054171428D02*
X-990957142Y1054171428D01*
X-990814285Y1053647619D02*
X-991290476Y1053647619D01*
X-991290476Y1054647619D01*
X-990814285Y1054647619D01*
X-989861904Y1053647619D02*
X-990433333Y1053647619D01*
X-990147619Y1053647619D02*
X-990147619Y1054647619D01*
X-990242857Y1054504761D01*
X-990338095Y1054409523D01*
X-990433333Y1054361904D01*
X-1002244285Y1054600000D02*
X-1002339523Y1054647619D01*
X-1002482380Y1054647619D01*
X-1002625238Y1054600000D01*
X-1002720476Y1054504761D01*
X-1002768095Y1054409523D01*
X-1002815714Y1054219047D01*
X-1002815714Y1054076190D01*
X-1002768095Y1053885714D01*
X-1002720476Y1053790476D01*
X-1002625238Y1053695238D01*
X-1002482380Y1053647619D01*
X-1002387142Y1053647619D01*
X-1002244285Y1053695238D01*
X-1002196666Y1053742857D01*
X-1002196666Y1054076190D01*
X-1002387142Y1054076190D01*
X-1001244285Y1053647619D02*
X-1001815714Y1053647619D01*
X-1001530000Y1053647619D02*
X-1001530000Y1054647619D01*
X-1001625238Y1054504761D01*
X-1001720476Y1054409523D01*
X-1001815714Y1054361904D01*
X-966890666Y1054917619D02*
X-967224000Y1055393809D01*
X-967462095Y1054917619D02*
X-967462095Y1055917619D01*
X-967081142Y1055917619D01*
X-966985904Y1055870000D01*
X-966938285Y1055822380D01*
X-966890666Y1055727142D01*
X-966890666Y1055584285D01*
X-966938285Y1055489047D01*
X-966985904Y1055441428D01*
X-967081142Y1055393809D01*
X-967462095Y1055393809D01*
X-966033523Y1055584285D02*
X-966033523Y1054917619D01*
X-966271619Y1055965238D02*
X-966509714Y1055250952D01*
X-965890666Y1055250952D01*
X-964350666Y1037899619D02*
X-964684000Y1038375809D01*
X-964922095Y1037899619D02*
X-964922095Y1038899619D01*
X-964541142Y1038899619D01*
X-964445904Y1038852000D01*
X-964398285Y1038804380D01*
X-964350666Y1038709142D01*
X-964350666Y1038566285D01*
X-964398285Y1038471047D01*
X-964445904Y1038423428D01*
X-964541142Y1038375809D01*
X-964922095Y1038375809D01*
X-964017333Y1038899619D02*
X-963398285Y1038899619D01*
X-963731619Y1038518666D01*
X-963588761Y1038518666D01*
X-963493523Y1038471047D01*
X-963445904Y1038423428D01*
X-963398285Y1038328190D01*
X-963398285Y1038090095D01*
X-963445904Y1037994857D01*
X-963493523Y1037947238D01*
X-963588761Y1037899619D01*
X-963874476Y1037899619D01*
X-963969714Y1037947238D01*
X-964017333Y1037994857D01*
X-1007784666Y1037899619D02*
X-1008118000Y1038375809D01*
X-1008356095Y1037899619D02*
X-1008356095Y1038899619D01*
X-1007975142Y1038899619D01*
X-1007879904Y1038852000D01*
X-1007832285Y1038804380D01*
X-1007784666Y1038709142D01*
X-1007784666Y1038566285D01*
X-1007832285Y1038471047D01*
X-1007879904Y1038423428D01*
X-1007975142Y1038375809D01*
X-1008356095Y1038375809D01*
X-1007403714Y1038804380D02*
X-1007356095Y1038852000D01*
X-1007260857Y1038899619D01*
X-1007022761Y1038899619D01*
X-1006927523Y1038852000D01*
X-1006879904Y1038804380D01*
X-1006832285Y1038709142D01*
X-1006832285Y1038613904D01*
X-1006879904Y1038471047D01*
X-1007451333Y1037899619D01*
X-1006832285Y1037899619D01*
X-1005498666Y1054917619D02*
X-1005832000Y1055393809D01*
X-1006070095Y1054917619D02*
X-1006070095Y1055917619D01*
X-1005689142Y1055917619D01*
X-1005593904Y1055870000D01*
X-1005546285Y1055822380D01*
X-1005498666Y1055727142D01*
X-1005498666Y1055584285D01*
X-1005546285Y1055489047D01*
X-1005593904Y1055441428D01*
X-1005689142Y1055393809D01*
X-1006070095Y1055393809D01*
X-1004546285Y1054917619D02*
X-1005117714Y1054917619D01*
X-1004832000Y1054917619D02*
X-1004832000Y1055917619D01*
X-1004927238Y1055774761D01*
X-1005022476Y1055679523D01*
X-1005117714Y1055631904D01*
X-1005308095Y1049329619D02*
X-1005308095Y1050329619D01*
X-1005070000Y1050329619D01*
X-1004927142Y1050282000D01*
X-1004831904Y1050186761D01*
X-1004784285Y1050091523D01*
X-1004736666Y1049901047D01*
X-1004736666Y1049758190D01*
X-1004784285Y1049567714D01*
X-1004831904Y1049472476D01*
X-1004927142Y1049377238D01*
X-1005070000Y1049329619D01*
X-1005308095Y1049329619D01*
X-1004355714Y1050234380D02*
X-1004308095Y1050282000D01*
X-1004212857Y1050329619D01*
X-1003974761Y1050329619D01*
X-1003879523Y1050282000D01*
X-1003831904Y1050234380D01*
X-1003784285Y1050139142D01*
X-1003784285Y1050043904D01*
X-1003831904Y1049901047D01*
X-1004403333Y1049329619D01*
X-1003784285Y1049329619D01*
X-968986095Y1049329619D02*
X-968986095Y1050329619D01*
X-968748000Y1050329619D01*
X-968605142Y1050282000D01*
X-968509904Y1050186761D01*
X-968462285Y1050091523D01*
X-968414666Y1049901047D01*
X-968414666Y1049758190D01*
X-968462285Y1049567714D01*
X-968509904Y1049472476D01*
X-968605142Y1049377238D01*
X-968748000Y1049329619D01*
X-968986095Y1049329619D01*
X-967557523Y1049996285D02*
X-967557523Y1049329619D01*
X-967795619Y1050377238D02*
X-968033714Y1049662952D01*
X-967414666Y1049662952D01*
X-964922095Y1041201619D02*
X-964922095Y1042201619D01*
X-964684000Y1042201619D01*
X-964541142Y1042154000D01*
X-964445904Y1042058761D01*
X-964398285Y1041963523D01*
X-964350666Y1041773047D01*
X-964350666Y1041630190D01*
X-964398285Y1041439714D01*
X-964445904Y1041344476D01*
X-964541142Y1041249238D01*
X-964684000Y1041201619D01*
X-964922095Y1041201619D01*
X-964017333Y1042201619D02*
X-963398285Y1042201619D01*
X-963731619Y1041820666D01*
X-963588761Y1041820666D01*
X-963493523Y1041773047D01*
X-963445904Y1041725428D01*
X-963398285Y1041630190D01*
X-963398285Y1041392095D01*
X-963445904Y1041296857D01*
X-963493523Y1041249238D01*
X-963588761Y1041201619D01*
X-963874476Y1041201619D01*
X-963969714Y1041249238D01*
X-964017333Y1041296857D01*
X-1008356095Y1041201619D02*
X-1008356095Y1042201619D01*
X-1008118000Y1042201619D01*
X-1007975142Y1042154000D01*
X-1007879904Y1042058761D01*
X-1007832285Y1041963523D01*
X-1007784666Y1041773047D01*
X-1007784666Y1041630190D01*
X-1007832285Y1041439714D01*
X-1007879904Y1041344476D01*
X-1007975142Y1041249238D01*
X-1008118000Y1041201619D01*
X-1008356095Y1041201619D01*
X-1006832285Y1041201619D02*
X-1007403714Y1041201619D01*
X-1007118000Y1041201619D02*
X-1007118000Y1042201619D01*
X-1007213238Y1042058761D01*
X-1007308476Y1041963523D01*
X-1007403714Y1041915904D01*
M02*
