G04 #@! TF.GenerationSoftware,KiCad,Pcbnew,7.0.1*
G04 #@! TF.CreationDate,2023-05-13T21:13:21-04:00*
G04 #@! TF.ProjectId,cm300-board,636d3330-302d-4626-9f61-72642e6b6963,rev?*
G04 #@! TF.SameCoordinates,Original*
G04 #@! TF.FileFunction,Legend,Bot*
G04 #@! TF.FilePolarity,Positive*
%FSLAX46Y46*%
G04 Gerber Fmt 4.6, Leading zero omitted, Abs format (unit mm)*
G04 Created by KiCad (PCBNEW 7.0.1) date 2023-05-13 21:13:21*
%MOMM*%
%LPD*%
G01*
G04 APERTURE LIST*
%ADD10C,0.150000*%
G04 APERTURE END LIST*
D10*
X-994530951Y1036387380D02*
X-994530951Y1035673095D01*
X-994530951Y1035673095D02*
X-994483332Y1035530238D01*
X-994483332Y1035530238D02*
X-994388094Y1035435000D01*
X-994388094Y1035435000D02*
X-994245237Y1035387380D01*
X-994245237Y1035387380D02*
X-994149999Y1035387380D01*
X-995483332Y1035387380D02*
X-995007142Y1035387380D01*
X-995007142Y1035387380D02*
X-995007142Y1036387380D01*
X-996388094Y1035482619D02*
X-996340475Y1035435000D01*
X-996340475Y1035435000D02*
X-996197618Y1035387380D01*
X-996197618Y1035387380D02*
X-996102380Y1035387380D01*
X-996102380Y1035387380D02*
X-995959523Y1035435000D01*
X-995959523Y1035435000D02*
X-995864285Y1035530238D01*
X-995864285Y1035530238D02*
X-995816666Y1035625476D01*
X-995816666Y1035625476D02*
X-995769047Y1035815952D01*
X-995769047Y1035815952D02*
X-995769047Y1035958809D01*
X-995769047Y1035958809D02*
X-995816666Y1036149285D01*
X-995816666Y1036149285D02*
X-995864285Y1036244523D01*
X-995864285Y1036244523D02*
X-995959523Y1036339761D01*
X-995959523Y1036339761D02*
X-996102380Y1036387380D01*
X-996102380Y1036387380D02*
X-996197618Y1036387380D01*
X-996197618Y1036387380D02*
X-996340475Y1036339761D01*
X-996340475Y1036339761D02*
X-996388094Y1036292142D01*
X-997102380Y1036387380D02*
X-997102380Y1035673095D01*
X-997102380Y1035673095D02*
X-997054761Y1035530238D01*
X-997054761Y1035530238D02*
X-996959523Y1035435000D01*
X-996959523Y1035435000D02*
X-996816666Y1035387380D01*
X-996816666Y1035387380D02*
X-996721428Y1035387380D01*
X-998054761Y1035387380D02*
X-997578571Y1035387380D01*
X-997578571Y1035387380D02*
X-997578571Y1036387380D01*
X-998959523Y1035482619D02*
X-998911904Y1035435000D01*
X-998911904Y1035435000D02*
X-998769047Y1035387380D01*
X-998769047Y1035387380D02*
X-998673809Y1035387380D01*
X-998673809Y1035387380D02*
X-998530952Y1035435000D01*
X-998530952Y1035435000D02*
X-998435714Y1035530238D01*
X-998435714Y1035530238D02*
X-998388095Y1035625476D01*
X-998388095Y1035625476D02*
X-998340476Y1035815952D01*
X-998340476Y1035815952D02*
X-998340476Y1035958809D01*
X-998340476Y1035958809D02*
X-998388095Y1036149285D01*
X-998388095Y1036149285D02*
X-998435714Y1036244523D01*
X-998435714Y1036244523D02*
X-998530952Y1036339761D01*
X-998530952Y1036339761D02*
X-998673809Y1036387380D01*
X-998673809Y1036387380D02*
X-998769047Y1036387380D01*
X-998769047Y1036387380D02*
X-998911904Y1036339761D01*
X-998911904Y1036339761D02*
X-998959523Y1036292142D01*
X-999673809Y1036387380D02*
X-999673809Y1035673095D01*
X-999673809Y1035673095D02*
X-999626190Y1035530238D01*
X-999626190Y1035530238D02*
X-999530952Y1035435000D01*
X-999530952Y1035435000D02*
X-999388095Y1035387380D01*
X-999388095Y1035387380D02*
X-999292857Y1035387380D01*
X-1000626190Y1035387380D02*
X-1000150000Y1035387380D01*
X-1000150000Y1035387380D02*
X-1000150000Y1036387380D01*
X-1001530952Y1035482619D02*
X-1001483333Y1035435000D01*
X-1001483333Y1035435000D02*
X-1001340476Y1035387380D01*
X-1001340476Y1035387380D02*
X-1001245238Y1035387380D01*
X-1001245238Y1035387380D02*
X-1001102381Y1035435000D01*
X-1001102381Y1035435000D02*
X-1001007143Y1035530238D01*
X-1001007143Y1035530238D02*
X-1000959524Y1035625476D01*
X-1000959524Y1035625476D02*
X-1000911905Y1035815952D01*
X-1000911905Y1035815952D02*
X-1000911905Y1035958809D01*
X-1000911905Y1035958809D02*
X-1000959524Y1036149285D01*
X-1000959524Y1036149285D02*
X-1001007143Y1036244523D01*
X-1001007143Y1036244523D02*
X-1001102381Y1036339761D01*
X-1001102381Y1036339761D02*
X-1001245238Y1036387380D01*
X-1001245238Y1036387380D02*
X-1001340476Y1036387380D01*
X-1001340476Y1036387380D02*
X-1001483333Y1036339761D01*
X-1001483333Y1036339761D02*
X-1001530952Y1036292142D01*
X-1002245238Y1036387380D02*
X-1002245238Y1035673095D01*
X-1002245238Y1035673095D02*
X-1002197619Y1035530238D01*
X-1002197619Y1035530238D02*
X-1002102381Y1035435000D01*
X-1002102381Y1035435000D02*
X-1001959524Y1035387380D01*
X-1001959524Y1035387380D02*
X-1001864286Y1035387380D01*
X-1003197619Y1035387380D02*
X-1002721429Y1035387380D01*
X-1002721429Y1035387380D02*
X-1002721429Y1036387380D01*
X-1004102381Y1035482619D02*
X-1004054762Y1035435000D01*
X-1004054762Y1035435000D02*
X-1003911905Y1035387380D01*
X-1003911905Y1035387380D02*
X-1003816667Y1035387380D01*
X-1003816667Y1035387380D02*
X-1003673810Y1035435000D01*
X-1003673810Y1035435000D02*
X-1003578572Y1035530238D01*
X-1003578572Y1035530238D02*
X-1003530953Y1035625476D01*
X-1003530953Y1035625476D02*
X-1003483334Y1035815952D01*
X-1003483334Y1035815952D02*
X-1003483334Y1035958809D01*
X-1003483334Y1035958809D02*
X-1003530953Y1036149285D01*
X-1003530953Y1036149285D02*
X-1003578572Y1036244523D01*
X-1003578572Y1036244523D02*
X-1003673810Y1036339761D01*
X-1003673810Y1036339761D02*
X-1003816667Y1036387380D01*
X-1003816667Y1036387380D02*
X-1003911905Y1036387380D01*
X-1003911905Y1036387380D02*
X-1004054762Y1036339761D01*
X-1004054762Y1036339761D02*
X-1004102381Y1036292142D01*
M02*
