G04 #@! TF.GenerationSoftware,KiCad,Pcbnew,5.1.5*
G04 #@! TF.CreationDate,2019-12-31T20:12:46-05:00*
G04 #@! TF.ProjectId,cm300-board,636d3330-302d-4626-9f61-72642e6b6963,rev?*
G04 #@! TF.SameCoordinates,Original*
G04 #@! TF.FileFunction,Soldermask,Bot*
G04 #@! TF.FilePolarity,Negative*
%FSLAX46Y46*%
G04 Gerber Fmt 4.6, Leading zero omitted, Abs format (unit mm)*
G04 Created by KiCad (PCBNEW 5.1.5) date 2019-12-31 20:12:46*
%MOMM*%
%LPD*%
G04 APERTURE LIST*
%ADD10C,0.100000*%
G04 APERTURE END LIST*
D10*
G36*
X-966221772Y1039170297D02*
G01*
X-966066900Y1039106147D01*
X-965927519Y1039013015D01*
X-965808985Y1038894481D01*
X-965715853Y1038755100D01*
X-965651703Y1038600228D01*
X-965619000Y1038435816D01*
X-965619000Y1038268184D01*
X-965651703Y1038103772D01*
X-965715853Y1037948900D01*
X-965808985Y1037809519D01*
X-965927519Y1037690985D01*
X-966066900Y1037597853D01*
X-966221772Y1037533703D01*
X-966386184Y1037501000D01*
X-966553816Y1037501000D01*
X-966718228Y1037533703D01*
X-966873100Y1037597853D01*
X-967012481Y1037690985D01*
X-967131015Y1037809519D01*
X-967224147Y1037948900D01*
X-967288297Y1038103772D01*
X-967321000Y1038268184D01*
X-967321000Y1038435816D01*
X-967288297Y1038600228D01*
X-967224147Y1038755100D01*
X-967131015Y1038894481D01*
X-967012481Y1039013015D01*
X-966873100Y1039106147D01*
X-966718228Y1039170297D01*
X-966553816Y1039203000D01*
X-966386184Y1039203000D01*
X-966221772Y1039170297D01*
G37*
G36*
X-1005083772Y1039170297D02*
G01*
X-1004928900Y1039106147D01*
X-1004789519Y1039013015D01*
X-1004670985Y1038894481D01*
X-1004577853Y1038755100D01*
X-1004513703Y1038600228D01*
X-1004481000Y1038435816D01*
X-1004481000Y1038268184D01*
X-1004513703Y1038103772D01*
X-1004577853Y1037948900D01*
X-1004670985Y1037809519D01*
X-1004789519Y1037690985D01*
X-1004928900Y1037597853D01*
X-1005083772Y1037533703D01*
X-1005248184Y1037501000D01*
X-1005415816Y1037501000D01*
X-1005580228Y1037533703D01*
X-1005735100Y1037597853D01*
X-1005874481Y1037690985D01*
X-1005993015Y1037809519D01*
X-1006086147Y1037948900D01*
X-1006150297Y1038103772D01*
X-1006183000Y1038268184D01*
X-1006183000Y1038435816D01*
X-1006150297Y1038600228D01*
X-1006086147Y1038755100D01*
X-1005993015Y1038894481D01*
X-1005874481Y1039013015D01*
X-1005735100Y1039106147D01*
X-1005580228Y1039170297D01*
X-1005415816Y1039203000D01*
X-1005248184Y1039203000D01*
X-1005083772Y1039170297D01*
G37*
G36*
X-994923772Y1039170297D02*
G01*
X-994768900Y1039106147D01*
X-994629519Y1039013015D01*
X-994510985Y1038894481D01*
X-994417853Y1038755100D01*
X-994353703Y1038600228D01*
X-994321000Y1038435816D01*
X-994321000Y1038268184D01*
X-994353703Y1038103772D01*
X-994417853Y1037948900D01*
X-994510985Y1037809519D01*
X-994629519Y1037690985D01*
X-994768900Y1037597853D01*
X-994923772Y1037533703D01*
X-995088184Y1037501000D01*
X-995255816Y1037501000D01*
X-995420228Y1037533703D01*
X-995575100Y1037597853D01*
X-995714481Y1037690985D01*
X-995833015Y1037809519D01*
X-995926147Y1037948900D01*
X-995990297Y1038103772D01*
X-996023000Y1038268184D01*
X-996023000Y1038435816D01*
X-995990297Y1038600228D01*
X-995926147Y1038755100D01*
X-995833015Y1038894481D01*
X-995714481Y1039013015D01*
X-995575100Y1039106147D01*
X-995420228Y1039170297D01*
X-995255816Y1039203000D01*
X-995088184Y1039203000D01*
X-994923772Y1039170297D01*
G37*
G36*
X-976381772Y1039170297D02*
G01*
X-976226900Y1039106147D01*
X-976087519Y1039013015D01*
X-975968985Y1038894481D01*
X-975875853Y1038755100D01*
X-975811703Y1038600228D01*
X-975779000Y1038435816D01*
X-975779000Y1038268184D01*
X-975811703Y1038103772D01*
X-975875853Y1037948900D01*
X-975968985Y1037809519D01*
X-976087519Y1037690985D01*
X-976226900Y1037597853D01*
X-976381772Y1037533703D01*
X-976546184Y1037501000D01*
X-976713816Y1037501000D01*
X-976878228Y1037533703D01*
X-977033100Y1037597853D01*
X-977172481Y1037690985D01*
X-977291015Y1037809519D01*
X-977384147Y1037948900D01*
X-977448297Y1038103772D01*
X-977481000Y1038268184D01*
X-977481000Y1038435816D01*
X-977448297Y1038600228D01*
X-977384147Y1038755100D01*
X-977291015Y1038894481D01*
X-977172481Y1039013015D01*
X-977033100Y1039106147D01*
X-976878228Y1039170297D01*
X-976713816Y1039203000D01*
X-976546184Y1039203000D01*
X-976381772Y1039170297D01*
G37*
G36*
X-988229000Y1038267000D02*
G01*
X-990431000Y1038267000D01*
X-990431000Y1040469000D01*
X-988229000Y1040469000D01*
X-988229000Y1038267000D01*
G37*
G36*
X-991655206Y1040447845D02*
G01*
X-991548850Y1040426689D01*
X-991348480Y1040343693D01*
X-991168156Y1040223205D01*
X-991014795Y1040069844D01*
X-990894307Y1039889520D01*
X-990811311Y1039689149D01*
X-990769000Y1039476440D01*
X-990769000Y1039259560D01*
X-990811311Y1039046851D01*
X-990894307Y1038846480D01*
X-991014795Y1038666156D01*
X-991168156Y1038512795D01*
X-991348480Y1038392307D01*
X-991448666Y1038350809D01*
X-991548850Y1038309311D01*
X-991655205Y1038288156D01*
X-991761560Y1038267000D01*
X-991978440Y1038267000D01*
X-992084795Y1038288156D01*
X-992191150Y1038309311D01*
X-992291334Y1038350809D01*
X-992391520Y1038392307D01*
X-992571844Y1038512795D01*
X-992725205Y1038666156D01*
X-992845693Y1038846480D01*
X-992928689Y1039046851D01*
X-992971000Y1039259560D01*
X-992971000Y1039476440D01*
X-992928689Y1039689149D01*
X-992845693Y1039889520D01*
X-992725205Y1040069844D01*
X-992571844Y1040223205D01*
X-992391520Y1040343693D01*
X-992191150Y1040426689D01*
X-992084794Y1040447845D01*
X-991978440Y1040469000D01*
X-991761560Y1040469000D01*
X-991655206Y1040447845D01*
G37*
G36*
X-981625000Y1038267000D02*
G01*
X-983827000Y1038267000D01*
X-983827000Y1040469000D01*
X-981625000Y1040469000D01*
X-981625000Y1038267000D01*
G37*
G36*
X-979971206Y1040447845D02*
G01*
X-979864850Y1040426689D01*
X-979664480Y1040343693D01*
X-979484156Y1040223205D01*
X-979330795Y1040069844D01*
X-979210307Y1039889520D01*
X-979127311Y1039689149D01*
X-979085000Y1039476440D01*
X-979085000Y1039259560D01*
X-979127311Y1039046851D01*
X-979210307Y1038846480D01*
X-979330795Y1038666156D01*
X-979484156Y1038512795D01*
X-979664480Y1038392307D01*
X-979764666Y1038350809D01*
X-979864850Y1038309311D01*
X-979971205Y1038288156D01*
X-980077560Y1038267000D01*
X-980294440Y1038267000D01*
X-980400795Y1038288156D01*
X-980507150Y1038309311D01*
X-980607334Y1038350809D01*
X-980707520Y1038392307D01*
X-980887844Y1038512795D01*
X-981041205Y1038666156D01*
X-981161693Y1038846480D01*
X-981244689Y1039046851D01*
X-981287000Y1039259560D01*
X-981287000Y1039476440D01*
X-981244689Y1039689149D01*
X-981161693Y1039889520D01*
X-981041205Y1040069844D01*
X-980887844Y1040223205D01*
X-980707520Y1040343693D01*
X-980507150Y1040426689D01*
X-980400794Y1040447845D01*
X-980294440Y1040469000D01*
X-980077560Y1040469000D01*
X-979971206Y1040447845D01*
G37*
G36*
X-1005107451Y1042782884D02*
G01*
X-1004996266Y1042760768D01*
X-1004786797Y1042674003D01*
X-1004598280Y1042548040D01*
X-1004437960Y1042387720D01*
X-1004311997Y1042199203D01*
X-1004225232Y1041989734D01*
X-1004181000Y1041767364D01*
X-1004181000Y1041540636D01*
X-1004225232Y1041318266D01*
X-1004311997Y1041108797D01*
X-1004437960Y1040920280D01*
X-1004598280Y1040759960D01*
X-1004786797Y1040633997D01*
X-1004996266Y1040547232D01*
X-1005107451Y1040525116D01*
X-1005218635Y1040503000D01*
X-1005445365Y1040503000D01*
X-1005556549Y1040525116D01*
X-1005667734Y1040547232D01*
X-1005877203Y1040633997D01*
X-1006065720Y1040759960D01*
X-1006226040Y1040920280D01*
X-1006352003Y1041108797D01*
X-1006438768Y1041318266D01*
X-1006483000Y1041540636D01*
X-1006483000Y1041767364D01*
X-1006438768Y1041989734D01*
X-1006352003Y1042199203D01*
X-1006226040Y1042387720D01*
X-1006065720Y1042548040D01*
X-1005877203Y1042674003D01*
X-1005667734Y1042760768D01*
X-1005556549Y1042782884D01*
X-1005445365Y1042805000D01*
X-1005218635Y1042805000D01*
X-1005107451Y1042782884D01*
G37*
G36*
X-975479000Y1040503000D02*
G01*
X-977781000Y1040503000D01*
X-977781000Y1042805000D01*
X-975479000Y1042805000D01*
X-975479000Y1040503000D01*
G37*
G36*
X-966245451Y1042782884D02*
G01*
X-966134266Y1042760768D01*
X-965924797Y1042674003D01*
X-965736280Y1042548040D01*
X-965575960Y1042387720D01*
X-965449997Y1042199203D01*
X-965363232Y1041989734D01*
X-965319000Y1041767364D01*
X-965319000Y1041540636D01*
X-965363232Y1041318266D01*
X-965449997Y1041108797D01*
X-965575960Y1040920280D01*
X-965736280Y1040759960D01*
X-965924797Y1040633997D01*
X-966134266Y1040547232D01*
X-966245451Y1040525116D01*
X-966356635Y1040503000D01*
X-966583365Y1040503000D01*
X-966694549Y1040525116D01*
X-966805734Y1040547232D01*
X-967015203Y1040633997D01*
X-967203720Y1040759960D01*
X-967364040Y1040920280D01*
X-967490003Y1041108797D01*
X-967576768Y1041318266D01*
X-967621000Y1041540636D01*
X-967621000Y1041767364D01*
X-967576768Y1041989734D01*
X-967490003Y1042199203D01*
X-967364040Y1042387720D01*
X-967203720Y1042548040D01*
X-967015203Y1042674003D01*
X-966805734Y1042760768D01*
X-966694549Y1042782884D01*
X-966583365Y1042805000D01*
X-966356635Y1042805000D01*
X-966245451Y1042782884D01*
G37*
G36*
X-994021000Y1040503000D02*
G01*
X-996323000Y1040503000D01*
X-996323000Y1042805000D01*
X-994021000Y1042805000D01*
X-994021000Y1040503000D01*
G37*
G36*
X-966135000Y1044875000D02*
G01*
X-968837000Y1044875000D01*
X-968837000Y1047577000D01*
X-966135000Y1047577000D01*
X-966135000Y1044875000D01*
G37*
G36*
X-1003219000Y1044875000D02*
G01*
X-1005921000Y1044875000D01*
X-1005921000Y1047577000D01*
X-1003219000Y1047577000D01*
X-1003219000Y1044875000D01*
G37*
G36*
X-988935928Y1047525082D02*
G01*
X-988690061Y1047423241D01*
X-988578672Y1047348813D01*
X-988468789Y1047275391D01*
X-988280609Y1047087211D01*
X-988132758Y1046865937D01*
X-988030918Y1046620072D01*
X-987979000Y1046359063D01*
X-987979000Y1046092937D01*
X-988030918Y1045831928D01*
X-988132758Y1045586063D01*
X-988273786Y1045375000D01*
X-988280610Y1045364788D01*
X-988468788Y1045176610D01*
X-988690061Y1045028759D01*
X-988690062Y1045028758D01*
X-988690063Y1045028758D01*
X-988935928Y1044926918D01*
X-989196937Y1044875000D01*
X-989463063Y1044875000D01*
X-989724072Y1044926918D01*
X-989969937Y1045028758D01*
X-989969938Y1045028758D01*
X-989969939Y1045028759D01*
X-990191212Y1045176610D01*
X-990379390Y1045364788D01*
X-990386213Y1045375000D01*
X-990527242Y1045586063D01*
X-990629082Y1045831928D01*
X-990681000Y1046092937D01*
X-990681000Y1046359063D01*
X-990629082Y1046620072D01*
X-990527242Y1046865937D01*
X-990379391Y1047087211D01*
X-990191211Y1047275391D01*
X-990081328Y1047348813D01*
X-989969939Y1047423241D01*
X-989724072Y1047525082D01*
X-989463063Y1047577000D01*
X-989196937Y1047577000D01*
X-988935928Y1047525082D01*
G37*
G36*
X-982331928Y1047525082D02*
G01*
X-982086061Y1047423241D01*
X-981974672Y1047348813D01*
X-981864789Y1047275391D01*
X-981676609Y1047087211D01*
X-981528758Y1046865937D01*
X-981426918Y1046620072D01*
X-981375000Y1046359063D01*
X-981375000Y1046092937D01*
X-981426918Y1045831928D01*
X-981528758Y1045586063D01*
X-981669786Y1045375000D01*
X-981676610Y1045364788D01*
X-981864788Y1045176610D01*
X-982086061Y1045028759D01*
X-982086062Y1045028758D01*
X-982086063Y1045028758D01*
X-982331928Y1044926918D01*
X-982592937Y1044875000D01*
X-982859063Y1044875000D01*
X-983120072Y1044926918D01*
X-983365937Y1045028758D01*
X-983365938Y1045028758D01*
X-983365939Y1045028759D01*
X-983587212Y1045176610D01*
X-983775390Y1045364788D01*
X-983782213Y1045375000D01*
X-983923242Y1045586063D01*
X-984025082Y1045831928D01*
X-984077000Y1046092937D01*
X-984077000Y1046359063D01*
X-984025082Y1046620072D01*
X-983923242Y1046865937D01*
X-983775391Y1047087211D01*
X-983587211Y1047275391D01*
X-983477328Y1047348813D01*
X-983365939Y1047423241D01*
X-983120072Y1047525082D01*
X-982859063Y1047577000D01*
X-982592937Y1047577000D01*
X-982331928Y1047525082D01*
G37*
G36*
X-1007623772Y1047044297D02*
G01*
X-1007468900Y1046980147D01*
X-1007329519Y1046887015D01*
X-1007210985Y1046768481D01*
X-1007117853Y1046629100D01*
X-1007053703Y1046474228D01*
X-1007021000Y1046309816D01*
X-1007021000Y1046142184D01*
X-1007053703Y1045977772D01*
X-1007117853Y1045822900D01*
X-1007210985Y1045683519D01*
X-1007329519Y1045564985D01*
X-1007468900Y1045471853D01*
X-1007623772Y1045407703D01*
X-1007788184Y1045375000D01*
X-1007955816Y1045375000D01*
X-1008120228Y1045407703D01*
X-1008275100Y1045471853D01*
X-1008414481Y1045564985D01*
X-1008533015Y1045683519D01*
X-1008626147Y1045822900D01*
X-1008690297Y1045977772D01*
X-1008723000Y1046142184D01*
X-1008723000Y1046309816D01*
X-1008690297Y1046474228D01*
X-1008626147Y1046629100D01*
X-1008533015Y1046768481D01*
X-1008414481Y1046887015D01*
X-1008275100Y1046980147D01*
X-1008120228Y1047044297D01*
X-1007955816Y1047077000D01*
X-1007788184Y1047077000D01*
X-1007623772Y1047044297D01*
G37*
G36*
X-963935772Y1047044297D02*
G01*
X-963780900Y1046980147D01*
X-963641519Y1046887015D01*
X-963522985Y1046768481D01*
X-963429853Y1046629100D01*
X-963365703Y1046474228D01*
X-963333000Y1046309816D01*
X-963333000Y1046142184D01*
X-963365703Y1045977772D01*
X-963429853Y1045822900D01*
X-963522985Y1045683519D01*
X-963641519Y1045564985D01*
X-963780900Y1045471853D01*
X-963935772Y1045407703D01*
X-964100184Y1045375000D01*
X-964267816Y1045375000D01*
X-964432228Y1045407703D01*
X-964587100Y1045471853D01*
X-964726481Y1045564985D01*
X-964845015Y1045683519D01*
X-964938147Y1045822900D01*
X-965002297Y1045977772D01*
X-965035000Y1046142184D01*
X-965035000Y1046309816D01*
X-965002297Y1046474228D01*
X-964938147Y1046629100D01*
X-964845015Y1046768481D01*
X-964726481Y1046887015D01*
X-964587100Y1046980147D01*
X-964432228Y1047044297D01*
X-964267816Y1047077000D01*
X-964100184Y1047077000D01*
X-963935772Y1047044297D01*
G37*
G36*
X-992163021Y1057256707D02*
G01*
X-992029375Y1057216166D01*
X-991906216Y1057150336D01*
X-991798260Y1057061740D01*
X-991709664Y1056953784D01*
X-991643834Y1056830625D01*
X-991603293Y1056696979D01*
X-991589000Y1056551860D01*
X-991589000Y1053888140D01*
X-991603293Y1053743021D01*
X-991643834Y1053609375D01*
X-991709662Y1053486219D01*
X-991723548Y1053469299D01*
X-991737161Y1053448924D01*
X-991746539Y1053426285D01*
X-991751319Y1053402252D01*
X-991751319Y1053377748D01*
X-991746539Y1053353715D01*
X-991737161Y1053331076D01*
X-991723548Y1053310701D01*
X-991709662Y1053293781D01*
X-991643834Y1053170625D01*
X-991603293Y1053036979D01*
X-991589000Y1052891860D01*
X-991589000Y1050228140D01*
X-991603293Y1050083021D01*
X-991643834Y1049949375D01*
X-991709664Y1049826216D01*
X-991798260Y1049718260D01*
X-991906216Y1049629664D01*
X-992029375Y1049563834D01*
X-992163021Y1049523293D01*
X-992308140Y1049509000D01*
X-993971860Y1049509000D01*
X-994116979Y1049523293D01*
X-994250625Y1049563834D01*
X-994373784Y1049629664D01*
X-994481740Y1049718260D01*
X-994570336Y1049826216D01*
X-994636166Y1049949375D01*
X-994676707Y1050083021D01*
X-994691000Y1050228140D01*
X-994691000Y1052891860D01*
X-994676707Y1053036979D01*
X-994636166Y1053170625D01*
X-994570338Y1053293781D01*
X-994556452Y1053310701D01*
X-994542839Y1053331076D01*
X-994533461Y1053353715D01*
X-994528681Y1053377748D01*
X-994528681Y1053402252D01*
X-994533461Y1053426285D01*
X-994542839Y1053448924D01*
X-994556452Y1053469299D01*
X-994570338Y1053486219D01*
X-994636166Y1053609375D01*
X-994676707Y1053743021D01*
X-994691000Y1053888140D01*
X-994691000Y1056551860D01*
X-994676707Y1056696979D01*
X-994636166Y1056830625D01*
X-994570336Y1056953784D01*
X-994481740Y1057061740D01*
X-994373784Y1057150336D01*
X-994250625Y1057216166D01*
X-994116979Y1057256707D01*
X-993971860Y1057271000D01*
X-992308140Y1057271000D01*
X-992163021Y1057256707D01*
G37*
G36*
X-998163021Y1057256707D02*
G01*
X-998029375Y1057216166D01*
X-997906216Y1057150336D01*
X-997798260Y1057061740D01*
X-997709664Y1056953784D01*
X-997643834Y1056830625D01*
X-997603293Y1056696979D01*
X-997589000Y1056551860D01*
X-997589000Y1053888140D01*
X-997603293Y1053743021D01*
X-997643834Y1053609375D01*
X-997709662Y1053486219D01*
X-997723548Y1053469299D01*
X-997737161Y1053448924D01*
X-997746539Y1053426285D01*
X-997751319Y1053402252D01*
X-997751319Y1053377748D01*
X-997746539Y1053353715D01*
X-997737161Y1053331076D01*
X-997723548Y1053310701D01*
X-997709662Y1053293781D01*
X-997643834Y1053170625D01*
X-997603293Y1053036979D01*
X-997589000Y1052891860D01*
X-997589000Y1050228140D01*
X-997603293Y1050083021D01*
X-997643834Y1049949375D01*
X-997709664Y1049826216D01*
X-997798260Y1049718260D01*
X-997906216Y1049629664D01*
X-998029375Y1049563834D01*
X-998163021Y1049523293D01*
X-998308140Y1049509000D01*
X-999971860Y1049509000D01*
X-1000116979Y1049523293D01*
X-1000250625Y1049563834D01*
X-1000373784Y1049629664D01*
X-1000481740Y1049718260D01*
X-1000570336Y1049826216D01*
X-1000636166Y1049949375D01*
X-1000676707Y1050083021D01*
X-1000691000Y1050228140D01*
X-1000691000Y1052891860D01*
X-1000676707Y1053036979D01*
X-1000636166Y1053170625D01*
X-1000570338Y1053293781D01*
X-1000556452Y1053310701D01*
X-1000542839Y1053331076D01*
X-1000533461Y1053353715D01*
X-1000528681Y1053377748D01*
X-1000528681Y1053402252D01*
X-1000533461Y1053426285D01*
X-1000542839Y1053448924D01*
X-1000556452Y1053469299D01*
X-1000570338Y1053486219D01*
X-1000636166Y1053609375D01*
X-1000676707Y1053743021D01*
X-1000691000Y1053888140D01*
X-1000691000Y1056551860D01*
X-1000676707Y1056696979D01*
X-1000636166Y1056830625D01*
X-1000570336Y1056953784D01*
X-1000481740Y1057061740D01*
X-1000373784Y1057150336D01*
X-1000250625Y1057216166D01*
X-1000116979Y1057256707D01*
X-999971860Y1057271000D01*
X-998308140Y1057271000D01*
X-998163021Y1057256707D01*
G37*
G36*
X-972163021Y1057256707D02*
G01*
X-972029375Y1057216166D01*
X-971906216Y1057150336D01*
X-971798260Y1057061740D01*
X-971709664Y1056953784D01*
X-971643834Y1056830625D01*
X-971603293Y1056696979D01*
X-971589000Y1056551860D01*
X-971589000Y1053888140D01*
X-971603293Y1053743021D01*
X-971643834Y1053609375D01*
X-971709662Y1053486219D01*
X-971723548Y1053469299D01*
X-971737161Y1053448924D01*
X-971746539Y1053426285D01*
X-971751319Y1053402252D01*
X-971751319Y1053377748D01*
X-971746539Y1053353715D01*
X-971737161Y1053331076D01*
X-971723548Y1053310701D01*
X-971709662Y1053293781D01*
X-971643834Y1053170625D01*
X-971603293Y1053036979D01*
X-971589000Y1052891860D01*
X-971589000Y1050228140D01*
X-971603293Y1050083021D01*
X-971643834Y1049949375D01*
X-971709664Y1049826216D01*
X-971798260Y1049718260D01*
X-971906216Y1049629664D01*
X-972029375Y1049563834D01*
X-972163021Y1049523293D01*
X-972308140Y1049509000D01*
X-973971860Y1049509000D01*
X-974116979Y1049523293D01*
X-974250625Y1049563834D01*
X-974373784Y1049629664D01*
X-974481740Y1049718260D01*
X-974570336Y1049826216D01*
X-974636166Y1049949375D01*
X-974676707Y1050083021D01*
X-974691000Y1050228140D01*
X-974691000Y1052891860D01*
X-974676707Y1053036979D01*
X-974636166Y1053170625D01*
X-974570338Y1053293781D01*
X-974556452Y1053310701D01*
X-974542839Y1053331076D01*
X-974533461Y1053353715D01*
X-974528681Y1053377748D01*
X-974528681Y1053402252D01*
X-974533461Y1053426285D01*
X-974542839Y1053448924D01*
X-974556452Y1053469299D01*
X-974570338Y1053486219D01*
X-974636166Y1053609375D01*
X-974676707Y1053743021D01*
X-974691000Y1053888140D01*
X-974691000Y1056551860D01*
X-974676707Y1056696979D01*
X-974636166Y1056830625D01*
X-974570336Y1056953784D01*
X-974481740Y1057061740D01*
X-974373784Y1057150336D01*
X-974250625Y1057216166D01*
X-974116979Y1057256707D01*
X-973971860Y1057271000D01*
X-972308140Y1057271000D01*
X-972163021Y1057256707D01*
G37*
G36*
X-978163021Y1057256707D02*
G01*
X-978029375Y1057216166D01*
X-977906216Y1057150336D01*
X-977798260Y1057061740D01*
X-977709664Y1056953784D01*
X-977643834Y1056830625D01*
X-977603293Y1056696979D01*
X-977589000Y1056551860D01*
X-977589000Y1053888140D01*
X-977603293Y1053743021D01*
X-977643834Y1053609375D01*
X-977709662Y1053486219D01*
X-977723548Y1053469299D01*
X-977737161Y1053448924D01*
X-977746539Y1053426285D01*
X-977751319Y1053402252D01*
X-977751319Y1053377748D01*
X-977746539Y1053353715D01*
X-977737161Y1053331076D01*
X-977723548Y1053310701D01*
X-977709662Y1053293781D01*
X-977643834Y1053170625D01*
X-977603293Y1053036979D01*
X-977589000Y1052891860D01*
X-977589000Y1050228140D01*
X-977603293Y1050083021D01*
X-977643834Y1049949375D01*
X-977709664Y1049826216D01*
X-977798260Y1049718260D01*
X-977906216Y1049629664D01*
X-978029375Y1049563834D01*
X-978163021Y1049523293D01*
X-978308140Y1049509000D01*
X-979971860Y1049509000D01*
X-980116979Y1049523293D01*
X-980250625Y1049563834D01*
X-980373784Y1049629664D01*
X-980481740Y1049718260D01*
X-980570336Y1049826216D01*
X-980636166Y1049949375D01*
X-980676707Y1050083021D01*
X-980691000Y1050228140D01*
X-980691000Y1052891860D01*
X-980676707Y1053036979D01*
X-980636166Y1053170625D01*
X-980570338Y1053293781D01*
X-980556452Y1053310701D01*
X-980542839Y1053331076D01*
X-980533461Y1053353715D01*
X-980528681Y1053377748D01*
X-980528681Y1053402252D01*
X-980533461Y1053426285D01*
X-980542839Y1053448924D01*
X-980556452Y1053469299D01*
X-980570338Y1053486219D01*
X-980636166Y1053609375D01*
X-980676707Y1053743021D01*
X-980691000Y1053888140D01*
X-980691000Y1056551860D01*
X-980676707Y1056696979D01*
X-980636166Y1056830625D01*
X-980570336Y1056953784D01*
X-980481740Y1057061740D01*
X-980373784Y1057150336D01*
X-980250625Y1057216166D01*
X-980116979Y1057256707D01*
X-979971860Y1057271000D01*
X-978308140Y1057271000D01*
X-978163021Y1057256707D01*
G37*
G36*
X-1007623772Y1057204297D02*
G01*
X-1007468900Y1057140147D01*
X-1007329519Y1057047015D01*
X-1007210985Y1056928481D01*
X-1007117853Y1056789100D01*
X-1007053703Y1056634228D01*
X-1007021000Y1056469816D01*
X-1007021000Y1056302184D01*
X-1007053703Y1056137772D01*
X-1007117853Y1055982900D01*
X-1007210985Y1055843519D01*
X-1007329519Y1055724985D01*
X-1007468900Y1055631853D01*
X-1007623772Y1055567703D01*
X-1007788184Y1055535000D01*
X-1007955816Y1055535000D01*
X-1008120228Y1055567703D01*
X-1008275100Y1055631853D01*
X-1008414481Y1055724985D01*
X-1008533015Y1055843519D01*
X-1008626147Y1055982900D01*
X-1008690297Y1056137772D01*
X-1008723000Y1056302184D01*
X-1008723000Y1056469816D01*
X-1008690297Y1056634228D01*
X-1008626147Y1056789100D01*
X-1008533015Y1056928481D01*
X-1008414481Y1057047015D01*
X-1008275100Y1057140147D01*
X-1008120228Y1057204297D01*
X-1007955816Y1057237000D01*
X-1007788184Y1057237000D01*
X-1007623772Y1057204297D01*
G37*
G36*
X-963935772Y1057204297D02*
G01*
X-963780900Y1057140147D01*
X-963641519Y1057047015D01*
X-963522985Y1056928481D01*
X-963429853Y1056789100D01*
X-963365703Y1056634228D01*
X-963333000Y1056469816D01*
X-963333000Y1056302184D01*
X-963365703Y1056137772D01*
X-963429853Y1055982900D01*
X-963522985Y1055843519D01*
X-963641519Y1055724985D01*
X-963780900Y1055631853D01*
X-963935772Y1055567703D01*
X-964100184Y1055535000D01*
X-964267816Y1055535000D01*
X-964432228Y1055567703D01*
X-964587100Y1055631853D01*
X-964726481Y1055724985D01*
X-964845015Y1055843519D01*
X-964938147Y1055982900D01*
X-965002297Y1056137772D01*
X-965035000Y1056302184D01*
X-965035000Y1056469816D01*
X-965002297Y1056634228D01*
X-964938147Y1056789100D01*
X-964845015Y1056928481D01*
X-964726481Y1057047015D01*
X-964587100Y1057140147D01*
X-964432228Y1057204297D01*
X-964267816Y1057237000D01*
X-964100184Y1057237000D01*
X-963935772Y1057204297D01*
G37*
M02*
