G04 #@! TF.GenerationSoftware,KiCad,Pcbnew,7.0.8*
G04 #@! TF.CreationDate,2024-01-11T23:18:01-05:00*
G04 #@! TF.ProjectId,cm300-board,636d3330-302d-4626-9f61-72642e6b6963,rev?*
G04 #@! TF.SameCoordinates,Original*
G04 #@! TF.FileFunction,Soldermask,Bot*
G04 #@! TF.FilePolarity,Negative*
%FSLAX46Y46*%
G04 Gerber Fmt 4.6, Leading zero omitted, Abs format (unit mm)*
G04 Created by KiCad (PCBNEW 7.0.8) date 2024-01-11 23:18:01*
%MOMM*%
%LPD*%
G01*
G04 APERTURE LIST*
G04 APERTURE END LIST*
G36*
X-992351086Y1039470005D02*
G01*
X-992335270Y1039463021D01*
X-992327468Y1039461786D01*
X-992294967Y1039445226D01*
X-992249894Y1039425324D01*
X-992171676Y1039347106D01*
X-992151776Y1039302039D01*
X-992135213Y1039269531D01*
X-992133976Y1039261726D01*
X-992126995Y1039245914D01*
X-992119000Y1039177000D01*
X-992119000Y1037487000D01*
X-992126995Y1037418086D01*
X-992133976Y1037402274D01*
X-992135213Y1037394468D01*
X-992151780Y1037361953D01*
X-992171676Y1037316894D01*
X-992249894Y1037238676D01*
X-992294953Y1037218780D01*
X-992327468Y1037202213D01*
X-992335274Y1037200976D01*
X-992351086Y1037193995D01*
X-992420000Y1037186000D01*
X-992429836Y1037186000D01*
X-993650162Y1037186000D01*
X-993660000Y1037186000D01*
X-993728914Y1037193995D01*
X-993744726Y1037200976D01*
X-993752531Y1037202213D01*
X-993785039Y1037218776D01*
X-993830106Y1037238676D01*
X-993908324Y1037316894D01*
X-993928226Y1037361967D01*
X-993944786Y1037394468D01*
X-993946021Y1037402270D01*
X-993953005Y1037418086D01*
X-993961000Y1037487000D01*
X-993961000Y1039177000D01*
X-993953005Y1039245914D01*
X-993946021Y1039261729D01*
X-993944786Y1039269531D01*
X-993928229Y1039302024D01*
X-993908324Y1039347106D01*
X-993830106Y1039425324D01*
X-993785024Y1039445229D01*
X-993752531Y1039461786D01*
X-993744729Y1039463021D01*
X-993728914Y1039470005D01*
X-993660000Y1039478000D01*
X-992420000Y1039478000D01*
X-992351086Y1039470005D01*
G37*
G36*
X-980851086Y1039470005D02*
G01*
X-980835270Y1039463021D01*
X-980827468Y1039461786D01*
X-980794967Y1039445226D01*
X-980749894Y1039425324D01*
X-980671676Y1039347106D01*
X-980651776Y1039302039D01*
X-980635213Y1039269531D01*
X-980633976Y1039261726D01*
X-980626995Y1039245914D01*
X-980619000Y1039177000D01*
X-980619000Y1037487000D01*
X-980626995Y1037418086D01*
X-980633976Y1037402274D01*
X-980635213Y1037394468D01*
X-980651780Y1037361953D01*
X-980671676Y1037316894D01*
X-980749894Y1037238676D01*
X-980794953Y1037218780D01*
X-980827468Y1037202213D01*
X-980835274Y1037200976D01*
X-980851086Y1037193995D01*
X-980920000Y1037186000D01*
X-980929836Y1037186000D01*
X-982150162Y1037186000D01*
X-982160000Y1037186000D01*
X-982228914Y1037193995D01*
X-982244726Y1037200976D01*
X-982252531Y1037202213D01*
X-982285039Y1037218776D01*
X-982330106Y1037238676D01*
X-982408324Y1037316894D01*
X-982428226Y1037361967D01*
X-982444786Y1037394468D01*
X-982446021Y1037402270D01*
X-982453005Y1037418086D01*
X-982461000Y1037487000D01*
X-982461000Y1039177000D01*
X-982453005Y1039245914D01*
X-982446021Y1039261729D01*
X-982444786Y1039269531D01*
X-982428229Y1039302024D01*
X-982408324Y1039347106D01*
X-982330106Y1039425324D01*
X-982285024Y1039445229D01*
X-982252531Y1039461786D01*
X-982244729Y1039463021D01*
X-982228914Y1039470005D01*
X-982160000Y1039478000D01*
X-980920000Y1039478000D01*
X-980851086Y1039470005D01*
G37*
G36*
X-990454923Y1039472955D02*
G01*
X-990403729Y1039472955D01*
X-990359520Y1039463558D01*
X-990320442Y1039459709D01*
X-990271344Y1039444815D01*
X-990215395Y1039432923D01*
X-990179595Y1039416984D01*
X-990147777Y1039407332D01*
X-990097205Y1039380301D01*
X-990039500Y1039354609D01*
X-990012674Y1039335118D01*
X-989988656Y1039322281D01*
X-989939660Y1039282071D01*
X-989883731Y1039241436D01*
X-989865570Y1039221266D01*
X-989849182Y1039207817D01*
X-989805143Y1039154156D01*
X-989754895Y1039098350D01*
X-989744338Y1039080065D01*
X-989734718Y1039068343D01*
X-989699126Y1039001755D01*
X-989658625Y1038931604D01*
X-989653965Y1038917264D01*
X-989649667Y1038909222D01*
X-989625972Y1038831109D01*
X-989599126Y1038748487D01*
X-989598180Y1038739493D01*
X-989597290Y1038736557D01*
X-989588616Y1038648491D01*
X-989579000Y1038557000D01*
X-989579000Y1038107000D01*
X-989588614Y1038015523D01*
X-989597290Y1037927442D01*
X-989598180Y1037924505D01*
X-989599126Y1037915513D01*
X-989625967Y1037832904D01*
X-989649667Y1037754777D01*
X-989653966Y1037746732D01*
X-989658625Y1037732396D01*
X-989699119Y1037662256D01*
X-989734718Y1037595656D01*
X-989744340Y1037583930D01*
X-989754895Y1037565650D01*
X-989805134Y1037509853D01*
X-989849182Y1037456182D01*
X-989865573Y1037442729D01*
X-989883731Y1037422564D01*
X-989939650Y1037381936D01*
X-989988656Y1037341718D01*
X-990012679Y1037328877D01*
X-990039500Y1037309391D01*
X-990097194Y1037283703D01*
X-990147777Y1037256667D01*
X-990179602Y1037247012D01*
X-990215395Y1037231077D01*
X-990271333Y1037219186D01*
X-990320442Y1037204290D01*
X-990359529Y1037200439D01*
X-990403729Y1037191045D01*
X-990454913Y1037191045D01*
X-990500000Y1037186604D01*
X-990545087Y1037191045D01*
X-990596271Y1037191045D01*
X-990640471Y1037200440D01*
X-990679557Y1037204290D01*
X-990728663Y1037219186D01*
X-990784605Y1037231077D01*
X-990820399Y1037247013D01*
X-990852222Y1037256667D01*
X-990902799Y1037283700D01*
X-990960500Y1037309391D01*
X-990987323Y1037328879D01*
X-991011343Y1037341718D01*
X-991060341Y1037381929D01*
X-991116269Y1037422564D01*
X-991134429Y1037442732D01*
X-991150817Y1037456182D01*
X-991194854Y1037509841D01*
X-991245105Y1037565650D01*
X-991255661Y1037583934D01*
X-991265281Y1037595656D01*
X-991300867Y1037662233D01*
X-991341375Y1037732396D01*
X-991346034Y1037746737D01*
X-991350332Y1037754777D01*
X-991374017Y1037832857D01*
X-991400874Y1037915513D01*
X-991401819Y1037924510D01*
X-991402709Y1037927442D01*
X-991411377Y1038015444D01*
X-991421000Y1038107000D01*
X-991421000Y1038557000D01*
X-991411375Y1038648570D01*
X-991402709Y1038736557D01*
X-991401819Y1038739488D01*
X-991400874Y1038748487D01*
X-991374012Y1038831156D01*
X-991350332Y1038909222D01*
X-991346035Y1038917259D01*
X-991341375Y1038931604D01*
X-991300859Y1039001778D01*
X-991265281Y1039068343D01*
X-991255663Y1039080061D01*
X-991245105Y1039098350D01*
X-991194844Y1039154169D01*
X-991150817Y1039207817D01*
X-991134432Y1039221263D01*
X-991116269Y1039241436D01*
X-991060330Y1039282077D01*
X-991011343Y1039322281D01*
X-990987328Y1039335116D01*
X-990960500Y1039354609D01*
X-990902788Y1039380304D01*
X-990852222Y1039407332D01*
X-990820406Y1039416983D01*
X-990784605Y1039432923D01*
X-990728652Y1039444816D01*
X-990679557Y1039459709D01*
X-990640479Y1039463558D01*
X-990596271Y1039472955D01*
X-990545077Y1039472955D01*
X-990500000Y1039477395D01*
X-990454923Y1039472955D01*
G37*
G36*
X-978954923Y1039472955D02*
G01*
X-978903729Y1039472955D01*
X-978859520Y1039463558D01*
X-978820442Y1039459709D01*
X-978771344Y1039444815D01*
X-978715395Y1039432923D01*
X-978679595Y1039416984D01*
X-978647777Y1039407332D01*
X-978597205Y1039380301D01*
X-978539500Y1039354609D01*
X-978512674Y1039335118D01*
X-978488656Y1039322281D01*
X-978439660Y1039282071D01*
X-978383731Y1039241436D01*
X-978365570Y1039221266D01*
X-978349182Y1039207817D01*
X-978305143Y1039154156D01*
X-978254895Y1039098350D01*
X-978244338Y1039080065D01*
X-978234718Y1039068343D01*
X-978199126Y1039001755D01*
X-978158625Y1038931604D01*
X-978153965Y1038917264D01*
X-978149667Y1038909222D01*
X-978125972Y1038831109D01*
X-978099126Y1038748487D01*
X-978098180Y1038739493D01*
X-978097290Y1038736557D01*
X-978088616Y1038648491D01*
X-978079000Y1038557000D01*
X-978079000Y1038107000D01*
X-978088614Y1038015523D01*
X-978097290Y1037927442D01*
X-978098180Y1037924505D01*
X-978099126Y1037915513D01*
X-978125967Y1037832904D01*
X-978149667Y1037754777D01*
X-978153966Y1037746732D01*
X-978158625Y1037732396D01*
X-978199119Y1037662256D01*
X-978234718Y1037595656D01*
X-978244340Y1037583930D01*
X-978254895Y1037565650D01*
X-978305134Y1037509853D01*
X-978349182Y1037456182D01*
X-978365573Y1037442729D01*
X-978383731Y1037422564D01*
X-978439650Y1037381936D01*
X-978488656Y1037341718D01*
X-978512679Y1037328877D01*
X-978539500Y1037309391D01*
X-978597194Y1037283703D01*
X-978647777Y1037256667D01*
X-978679602Y1037247012D01*
X-978715395Y1037231077D01*
X-978771333Y1037219186D01*
X-978820442Y1037204290D01*
X-978859529Y1037200439D01*
X-978903729Y1037191045D01*
X-978954913Y1037191045D01*
X-979000000Y1037186604D01*
X-979045087Y1037191045D01*
X-979096271Y1037191045D01*
X-979140471Y1037200440D01*
X-979179557Y1037204290D01*
X-979228663Y1037219186D01*
X-979284605Y1037231077D01*
X-979320399Y1037247013D01*
X-979352222Y1037256667D01*
X-979402799Y1037283700D01*
X-979460500Y1037309391D01*
X-979487323Y1037328879D01*
X-979511343Y1037341718D01*
X-979560341Y1037381929D01*
X-979616269Y1037422564D01*
X-979634429Y1037442732D01*
X-979650817Y1037456182D01*
X-979694854Y1037509841D01*
X-979745105Y1037565650D01*
X-979755661Y1037583934D01*
X-979765281Y1037595656D01*
X-979800867Y1037662233D01*
X-979841375Y1037732396D01*
X-979846034Y1037746737D01*
X-979850332Y1037754777D01*
X-979874017Y1037832857D01*
X-979900874Y1037915513D01*
X-979901819Y1037924510D01*
X-979902709Y1037927442D01*
X-979911377Y1038015444D01*
X-979921000Y1038107000D01*
X-979921000Y1038557000D01*
X-979911375Y1038648570D01*
X-979902709Y1038736557D01*
X-979901819Y1038739488D01*
X-979900874Y1038748487D01*
X-979874012Y1038831156D01*
X-979850332Y1038909222D01*
X-979846035Y1038917259D01*
X-979841375Y1038931604D01*
X-979800859Y1039001778D01*
X-979765281Y1039068343D01*
X-979755663Y1039080061D01*
X-979745105Y1039098350D01*
X-979694844Y1039154169D01*
X-979650817Y1039207817D01*
X-979634432Y1039221263D01*
X-979616269Y1039241436D01*
X-979560330Y1039282077D01*
X-979511343Y1039322281D01*
X-979487328Y1039335116D01*
X-979460500Y1039354609D01*
X-979402788Y1039380304D01*
X-979352222Y1039407332D01*
X-979320406Y1039416983D01*
X-979284605Y1039432923D01*
X-979228652Y1039444816D01*
X-979179557Y1039459709D01*
X-979140479Y1039463558D01*
X-979096271Y1039472955D01*
X-979045077Y1039472955D01*
X-979000000Y1039477395D01*
X-978954923Y1039472955D01*
G37*
G36*
X-998378584Y1057269713D02*
G01*
X-998266398Y1057260885D01*
X-998241849Y1057254307D01*
X-998211761Y1057250917D01*
X-998154762Y1057230972D01*
X-998103195Y1057217155D01*
X-998076714Y1057203662D01*
X-998042459Y1057191676D01*
X-997996443Y1057162762D01*
X-997954115Y1057141195D01*
X-997926397Y1057118749D01*
X-997890585Y1057096247D01*
X-997856421Y1057062083D01*
X-997824094Y1057035905D01*
X-997797915Y1057003577D01*
X-997763753Y1056969415D01*
X-997741251Y1056933603D01*
X-997718804Y1056905884D01*
X-997697235Y1056863552D01*
X-997668324Y1056817541D01*
X-997656338Y1056783289D01*
X-997642844Y1056756804D01*
X-997629024Y1056705229D01*
X-997609083Y1056648239D01*
X-997605693Y1056618155D01*
X-997599114Y1056593601D01*
X-997590282Y1056481386D01*
X-997589000Y1056470000D01*
X-997589000Y1053970000D01*
X-997590282Y1053958613D01*
X-997599114Y1053846398D01*
X-997605693Y1053821842D01*
X-997609083Y1053791761D01*
X-997629023Y1053734774D01*
X-997642844Y1053683195D01*
X-997656339Y1053656708D01*
X-997668324Y1053622459D01*
X-997697234Y1053576448D01*
X-997718803Y1053534118D01*
X-997741250Y1053506398D01*
X-997763753Y1053470585D01*
X-997797913Y1053436424D01*
X-997799663Y1053434264D01*
X-997799663Y1053345736D01*
X-997797913Y1053343575D01*
X-997763753Y1053309415D01*
X-997741248Y1053273598D01*
X-997718803Y1053245881D01*
X-997697237Y1053203555D01*
X-997668324Y1053157541D01*
X-997656338Y1053123288D01*
X-997642844Y1053096804D01*
X-997629024Y1053045229D01*
X-997609083Y1052988239D01*
X-997605693Y1052958155D01*
X-997599114Y1052933601D01*
X-997590282Y1052821386D01*
X-997589000Y1052810000D01*
X-997589000Y1050310000D01*
X-997590282Y1050298613D01*
X-997599114Y1050186398D01*
X-997605693Y1050161842D01*
X-997609083Y1050131761D01*
X-997629023Y1050074774D01*
X-997642844Y1050023195D01*
X-997656339Y1049996707D01*
X-997668324Y1049962459D01*
X-997697232Y1049916451D01*
X-997718804Y1049874115D01*
X-997741254Y1049846391D01*
X-997763753Y1049810585D01*
X-997797910Y1049776427D01*
X-997824094Y1049744094D01*
X-997856427Y1049717910D01*
X-997890585Y1049683753D01*
X-997926391Y1049661254D01*
X-997954115Y1049638804D01*
X-997996451Y1049617232D01*
X-998042459Y1049588324D01*
X-998076707Y1049576339D01*
X-998103195Y1049562844D01*
X-998154774Y1049549023D01*
X-998211761Y1049529083D01*
X-998241842Y1049525693D01*
X-998266398Y1049519114D01*
X-998378615Y1049510282D01*
X-998390000Y1049509000D01*
X-998394915Y1049509000D01*
X-999885083Y1049509000D01*
X-999890000Y1049509000D01*
X-999901388Y1049510283D01*
X-1000013601Y1049519114D01*
X-1000038155Y1049525693D01*
X-1000068239Y1049529083D01*
X-1000125229Y1049549024D01*
X-1000176804Y1049562844D01*
X-1000203289Y1049576338D01*
X-1000237541Y1049588324D01*
X-1000283552Y1049617235D01*
X-1000325884Y1049638804D01*
X-1000353603Y1049661251D01*
X-1000389415Y1049683753D01*
X-1000423577Y1049717915D01*
X-1000455905Y1049744094D01*
X-1000482083Y1049776421D01*
X-1000516247Y1049810585D01*
X-1000538749Y1049846397D01*
X-1000561195Y1049874115D01*
X-1000582762Y1049916443D01*
X-1000611676Y1049962459D01*
X-1000623662Y1049996714D01*
X-1000637155Y1050023195D01*
X-1000650972Y1050074762D01*
X-1000670917Y1050131761D01*
X-1000674307Y1050161849D01*
X-1000680885Y1050186398D01*
X-1000689713Y1050298586D01*
X-1000691000Y1050310000D01*
X-1000691000Y1052810000D01*
X-1000689713Y1052821417D01*
X-1000680885Y1052933601D01*
X-1000674307Y1052958149D01*
X-1000670917Y1052988239D01*
X-1000650971Y1053045241D01*
X-1000637155Y1053096804D01*
X-1000623663Y1053123282D01*
X-1000611676Y1053157541D01*
X-1000582757Y1053203564D01*
X-1000561196Y1053245881D01*
X-1000538756Y1053273591D01*
X-1000516247Y1053309415D01*
X-1000482077Y1053343584D01*
X-1000480336Y1053345735D01*
X-1000480336Y1053434265D01*
X-1000482077Y1053436415D01*
X-1000516247Y1053470585D01*
X-1000538754Y1053506404D01*
X-1000561196Y1053534118D01*
X-1000582760Y1053576439D01*
X-1000611676Y1053622459D01*
X-1000623662Y1053656714D01*
X-1000637155Y1053683195D01*
X-1000650972Y1053734762D01*
X-1000670917Y1053791761D01*
X-1000674307Y1053821849D01*
X-1000680885Y1053846398D01*
X-1000689713Y1053958586D01*
X-1000691000Y1053970000D01*
X-1000691000Y1056470000D01*
X-1000689713Y1056481417D01*
X-1000680885Y1056593601D01*
X-1000674307Y1056618149D01*
X-1000670917Y1056648239D01*
X-1000650971Y1056705241D01*
X-1000637155Y1056756804D01*
X-1000623663Y1056783282D01*
X-1000611676Y1056817541D01*
X-1000582759Y1056863561D01*
X-1000561195Y1056905884D01*
X-1000538752Y1056933598D01*
X-1000516247Y1056969415D01*
X-1000482079Y1057003582D01*
X-1000455905Y1057035905D01*
X-1000423582Y1057062079D01*
X-1000389415Y1057096247D01*
X-1000353598Y1057118752D01*
X-1000325884Y1057141195D01*
X-1000283561Y1057162759D01*
X-1000237541Y1057191676D01*
X-1000203282Y1057203663D01*
X-1000176804Y1057217155D01*
X-1000125241Y1057230971D01*
X-1000068239Y1057250917D01*
X-1000038149Y1057254307D01*
X-1000013601Y1057260885D01*
X-999901415Y1057269713D01*
X-999890000Y1057271000D01*
X-998390000Y1057271000D01*
X-998378584Y1057269713D01*
G37*
G36*
X-992378584Y1057269713D02*
G01*
X-992266398Y1057260885D01*
X-992241849Y1057254307D01*
X-992211761Y1057250917D01*
X-992154762Y1057230972D01*
X-992103195Y1057217155D01*
X-992076714Y1057203662D01*
X-992042459Y1057191676D01*
X-991996443Y1057162762D01*
X-991954115Y1057141195D01*
X-991926397Y1057118749D01*
X-991890585Y1057096247D01*
X-991856421Y1057062083D01*
X-991824094Y1057035905D01*
X-991797915Y1057003577D01*
X-991763753Y1056969415D01*
X-991741251Y1056933603D01*
X-991718804Y1056905884D01*
X-991697235Y1056863552D01*
X-991668324Y1056817541D01*
X-991656338Y1056783289D01*
X-991642844Y1056756804D01*
X-991629024Y1056705229D01*
X-991609083Y1056648239D01*
X-991605693Y1056618155D01*
X-991599114Y1056593601D01*
X-991590282Y1056481386D01*
X-991589000Y1056470000D01*
X-991589000Y1053970000D01*
X-991590282Y1053958613D01*
X-991599114Y1053846398D01*
X-991605693Y1053821842D01*
X-991609083Y1053791761D01*
X-991629023Y1053734774D01*
X-991642844Y1053683195D01*
X-991656339Y1053656708D01*
X-991668324Y1053622459D01*
X-991697234Y1053576448D01*
X-991718803Y1053534118D01*
X-991741250Y1053506398D01*
X-991763753Y1053470585D01*
X-991797913Y1053436424D01*
X-991799663Y1053434264D01*
X-991799663Y1053345736D01*
X-991797913Y1053343575D01*
X-991763753Y1053309415D01*
X-991741248Y1053273598D01*
X-991718803Y1053245881D01*
X-991697237Y1053203555D01*
X-991668324Y1053157541D01*
X-991656338Y1053123288D01*
X-991642844Y1053096804D01*
X-991629024Y1053045229D01*
X-991609083Y1052988239D01*
X-991605693Y1052958155D01*
X-991599114Y1052933601D01*
X-991590282Y1052821386D01*
X-991589000Y1052810000D01*
X-991589000Y1050310000D01*
X-991590282Y1050298613D01*
X-991599114Y1050186398D01*
X-991605693Y1050161842D01*
X-991609083Y1050131761D01*
X-991629023Y1050074774D01*
X-991642844Y1050023195D01*
X-991656339Y1049996707D01*
X-991668324Y1049962459D01*
X-991697232Y1049916451D01*
X-991718804Y1049874115D01*
X-991741254Y1049846391D01*
X-991763753Y1049810585D01*
X-991797910Y1049776427D01*
X-991824094Y1049744094D01*
X-991856427Y1049717910D01*
X-991890585Y1049683753D01*
X-991926391Y1049661254D01*
X-991954115Y1049638804D01*
X-991996451Y1049617232D01*
X-992042459Y1049588324D01*
X-992076707Y1049576339D01*
X-992103195Y1049562844D01*
X-992154774Y1049549023D01*
X-992211761Y1049529083D01*
X-992241842Y1049525693D01*
X-992266398Y1049519114D01*
X-992378615Y1049510282D01*
X-992390000Y1049509000D01*
X-992394915Y1049509000D01*
X-993885083Y1049509000D01*
X-993890000Y1049509000D01*
X-993901388Y1049510283D01*
X-994013601Y1049519114D01*
X-994038155Y1049525693D01*
X-994068239Y1049529083D01*
X-994125229Y1049549024D01*
X-994176804Y1049562844D01*
X-994203289Y1049576338D01*
X-994237541Y1049588324D01*
X-994283552Y1049617235D01*
X-994325884Y1049638804D01*
X-994353603Y1049661251D01*
X-994389415Y1049683753D01*
X-994423577Y1049717915D01*
X-994455905Y1049744094D01*
X-994482083Y1049776421D01*
X-994516247Y1049810585D01*
X-994538749Y1049846397D01*
X-994561195Y1049874115D01*
X-994582762Y1049916443D01*
X-994611676Y1049962459D01*
X-994623662Y1049996714D01*
X-994637155Y1050023195D01*
X-994650972Y1050074762D01*
X-994670917Y1050131761D01*
X-994674307Y1050161849D01*
X-994680885Y1050186398D01*
X-994689713Y1050298586D01*
X-994691000Y1050310000D01*
X-994691000Y1052810000D01*
X-994689713Y1052821417D01*
X-994680885Y1052933601D01*
X-994674307Y1052958149D01*
X-994670917Y1052988239D01*
X-994650971Y1053045241D01*
X-994637155Y1053096804D01*
X-994623663Y1053123282D01*
X-994611676Y1053157541D01*
X-994582757Y1053203564D01*
X-994561196Y1053245881D01*
X-994538756Y1053273591D01*
X-994516247Y1053309415D01*
X-994482077Y1053343584D01*
X-994480336Y1053345735D01*
X-994480336Y1053434265D01*
X-994482077Y1053436415D01*
X-994516247Y1053470585D01*
X-994538754Y1053506404D01*
X-994561196Y1053534118D01*
X-994582760Y1053576439D01*
X-994611676Y1053622459D01*
X-994623662Y1053656714D01*
X-994637155Y1053683195D01*
X-994650972Y1053734762D01*
X-994670917Y1053791761D01*
X-994674307Y1053821849D01*
X-994680885Y1053846398D01*
X-994689713Y1053958586D01*
X-994691000Y1053970000D01*
X-994691000Y1056470000D01*
X-994689713Y1056481417D01*
X-994680885Y1056593601D01*
X-994674307Y1056618149D01*
X-994670917Y1056648239D01*
X-994650971Y1056705241D01*
X-994637155Y1056756804D01*
X-994623663Y1056783282D01*
X-994611676Y1056817541D01*
X-994582759Y1056863561D01*
X-994561195Y1056905884D01*
X-994538752Y1056933598D01*
X-994516247Y1056969415D01*
X-994482079Y1057003582D01*
X-994455905Y1057035905D01*
X-994423582Y1057062079D01*
X-994389415Y1057096247D01*
X-994353598Y1057118752D01*
X-994325884Y1057141195D01*
X-994283561Y1057162759D01*
X-994237541Y1057191676D01*
X-994203282Y1057203663D01*
X-994176804Y1057217155D01*
X-994125241Y1057230971D01*
X-994068239Y1057250917D01*
X-994038149Y1057254307D01*
X-994013601Y1057260885D01*
X-993901415Y1057269713D01*
X-993890000Y1057271000D01*
X-992390000Y1057271000D01*
X-992378584Y1057269713D01*
G37*
G36*
X-978378584Y1057269713D02*
G01*
X-978266398Y1057260885D01*
X-978241849Y1057254307D01*
X-978211761Y1057250917D01*
X-978154762Y1057230972D01*
X-978103195Y1057217155D01*
X-978076714Y1057203662D01*
X-978042459Y1057191676D01*
X-977996443Y1057162762D01*
X-977954115Y1057141195D01*
X-977926397Y1057118749D01*
X-977890585Y1057096247D01*
X-977856421Y1057062083D01*
X-977824094Y1057035905D01*
X-977797915Y1057003577D01*
X-977763753Y1056969415D01*
X-977741251Y1056933603D01*
X-977718804Y1056905884D01*
X-977697235Y1056863552D01*
X-977668324Y1056817541D01*
X-977656338Y1056783289D01*
X-977642844Y1056756804D01*
X-977629024Y1056705229D01*
X-977609083Y1056648239D01*
X-977605693Y1056618155D01*
X-977599114Y1056593601D01*
X-977590282Y1056481386D01*
X-977589000Y1056470000D01*
X-977589000Y1053970000D01*
X-977590282Y1053958613D01*
X-977599114Y1053846398D01*
X-977605693Y1053821842D01*
X-977609083Y1053791761D01*
X-977629023Y1053734774D01*
X-977642844Y1053683195D01*
X-977656339Y1053656708D01*
X-977668324Y1053622459D01*
X-977697234Y1053576448D01*
X-977718803Y1053534118D01*
X-977741250Y1053506398D01*
X-977763753Y1053470585D01*
X-977797913Y1053436424D01*
X-977799663Y1053434264D01*
X-977799663Y1053345736D01*
X-977797913Y1053343575D01*
X-977763753Y1053309415D01*
X-977741248Y1053273598D01*
X-977718803Y1053245881D01*
X-977697237Y1053203555D01*
X-977668324Y1053157541D01*
X-977656338Y1053123288D01*
X-977642844Y1053096804D01*
X-977629024Y1053045229D01*
X-977609083Y1052988239D01*
X-977605693Y1052958155D01*
X-977599114Y1052933601D01*
X-977590282Y1052821386D01*
X-977589000Y1052810000D01*
X-977589000Y1050310000D01*
X-977590282Y1050298613D01*
X-977599114Y1050186398D01*
X-977605693Y1050161842D01*
X-977609083Y1050131761D01*
X-977629023Y1050074774D01*
X-977642844Y1050023195D01*
X-977656339Y1049996707D01*
X-977668324Y1049962459D01*
X-977697232Y1049916451D01*
X-977718804Y1049874115D01*
X-977741254Y1049846391D01*
X-977763753Y1049810585D01*
X-977797910Y1049776427D01*
X-977824094Y1049744094D01*
X-977856427Y1049717910D01*
X-977890585Y1049683753D01*
X-977926391Y1049661254D01*
X-977954115Y1049638804D01*
X-977996451Y1049617232D01*
X-978042459Y1049588324D01*
X-978076707Y1049576339D01*
X-978103195Y1049562844D01*
X-978154774Y1049549023D01*
X-978211761Y1049529083D01*
X-978241842Y1049525693D01*
X-978266398Y1049519114D01*
X-978378615Y1049510282D01*
X-978390000Y1049509000D01*
X-978394915Y1049509000D01*
X-979885083Y1049509000D01*
X-979890000Y1049509000D01*
X-979901388Y1049510283D01*
X-980013601Y1049519114D01*
X-980038155Y1049525693D01*
X-980068239Y1049529083D01*
X-980125229Y1049549024D01*
X-980176804Y1049562844D01*
X-980203289Y1049576338D01*
X-980237541Y1049588324D01*
X-980283552Y1049617235D01*
X-980325884Y1049638804D01*
X-980353603Y1049661251D01*
X-980389415Y1049683753D01*
X-980423577Y1049717915D01*
X-980455905Y1049744094D01*
X-980482083Y1049776421D01*
X-980516247Y1049810585D01*
X-980538749Y1049846397D01*
X-980561195Y1049874115D01*
X-980582762Y1049916443D01*
X-980611676Y1049962459D01*
X-980623662Y1049996714D01*
X-980637155Y1050023195D01*
X-980650972Y1050074762D01*
X-980670917Y1050131761D01*
X-980674307Y1050161849D01*
X-980680885Y1050186398D01*
X-980689713Y1050298586D01*
X-980691000Y1050310000D01*
X-980691000Y1052810000D01*
X-980689713Y1052821417D01*
X-980680885Y1052933601D01*
X-980674307Y1052958149D01*
X-980670917Y1052988239D01*
X-980650971Y1053045241D01*
X-980637155Y1053096804D01*
X-980623663Y1053123282D01*
X-980611676Y1053157541D01*
X-980582757Y1053203564D01*
X-980561196Y1053245881D01*
X-980538756Y1053273591D01*
X-980516247Y1053309415D01*
X-980482077Y1053343584D01*
X-980480336Y1053345735D01*
X-980480336Y1053434265D01*
X-980482077Y1053436415D01*
X-980516247Y1053470585D01*
X-980538754Y1053506404D01*
X-980561196Y1053534118D01*
X-980582760Y1053576439D01*
X-980611676Y1053622459D01*
X-980623662Y1053656714D01*
X-980637155Y1053683195D01*
X-980650972Y1053734762D01*
X-980670917Y1053791761D01*
X-980674307Y1053821849D01*
X-980680885Y1053846398D01*
X-980689713Y1053958586D01*
X-980691000Y1053970000D01*
X-980691000Y1056470000D01*
X-980689713Y1056481417D01*
X-980680885Y1056593601D01*
X-980674307Y1056618149D01*
X-980670917Y1056648239D01*
X-980650971Y1056705241D01*
X-980637155Y1056756804D01*
X-980623663Y1056783282D01*
X-980611676Y1056817541D01*
X-980582759Y1056863561D01*
X-980561195Y1056905884D01*
X-980538752Y1056933598D01*
X-980516247Y1056969415D01*
X-980482079Y1057003582D01*
X-980455905Y1057035905D01*
X-980423582Y1057062079D01*
X-980389415Y1057096247D01*
X-980353598Y1057118752D01*
X-980325884Y1057141195D01*
X-980283561Y1057162759D01*
X-980237541Y1057191676D01*
X-980203282Y1057203663D01*
X-980176804Y1057217155D01*
X-980125241Y1057230971D01*
X-980068239Y1057250917D01*
X-980038149Y1057254307D01*
X-980013601Y1057260885D01*
X-979901415Y1057269713D01*
X-979890000Y1057271000D01*
X-978390000Y1057271000D01*
X-978378584Y1057269713D01*
G37*
G36*
X-972378584Y1057269713D02*
G01*
X-972266398Y1057260885D01*
X-972241849Y1057254307D01*
X-972211761Y1057250917D01*
X-972154762Y1057230972D01*
X-972103195Y1057217155D01*
X-972076714Y1057203662D01*
X-972042459Y1057191676D01*
X-971996443Y1057162762D01*
X-971954115Y1057141195D01*
X-971926397Y1057118749D01*
X-971890585Y1057096247D01*
X-971856421Y1057062083D01*
X-971824094Y1057035905D01*
X-971797915Y1057003577D01*
X-971763753Y1056969415D01*
X-971741251Y1056933603D01*
X-971718804Y1056905884D01*
X-971697235Y1056863552D01*
X-971668324Y1056817541D01*
X-971656338Y1056783289D01*
X-971642844Y1056756804D01*
X-971629024Y1056705229D01*
X-971609083Y1056648239D01*
X-971605693Y1056618155D01*
X-971599114Y1056593601D01*
X-971590282Y1056481386D01*
X-971589000Y1056470000D01*
X-971589000Y1053970000D01*
X-971590282Y1053958613D01*
X-971599114Y1053846398D01*
X-971605693Y1053821842D01*
X-971609083Y1053791761D01*
X-971629023Y1053734774D01*
X-971642844Y1053683195D01*
X-971656339Y1053656708D01*
X-971668324Y1053622459D01*
X-971697234Y1053576448D01*
X-971718803Y1053534118D01*
X-971741250Y1053506398D01*
X-971763753Y1053470585D01*
X-971797913Y1053436424D01*
X-971799663Y1053434264D01*
X-971799663Y1053345736D01*
X-971797913Y1053343575D01*
X-971763753Y1053309415D01*
X-971741248Y1053273598D01*
X-971718803Y1053245881D01*
X-971697237Y1053203555D01*
X-971668324Y1053157541D01*
X-971656338Y1053123288D01*
X-971642844Y1053096804D01*
X-971629024Y1053045229D01*
X-971609083Y1052988239D01*
X-971605693Y1052958155D01*
X-971599114Y1052933601D01*
X-971590282Y1052821386D01*
X-971589000Y1052810000D01*
X-971589000Y1050310000D01*
X-971590282Y1050298613D01*
X-971599114Y1050186398D01*
X-971605693Y1050161842D01*
X-971609083Y1050131761D01*
X-971629023Y1050074774D01*
X-971642844Y1050023195D01*
X-971656339Y1049996707D01*
X-971668324Y1049962459D01*
X-971697232Y1049916451D01*
X-971718804Y1049874115D01*
X-971741254Y1049846391D01*
X-971763753Y1049810585D01*
X-971797910Y1049776427D01*
X-971824094Y1049744094D01*
X-971856427Y1049717910D01*
X-971890585Y1049683753D01*
X-971926391Y1049661254D01*
X-971954115Y1049638804D01*
X-971996451Y1049617232D01*
X-972042459Y1049588324D01*
X-972076707Y1049576339D01*
X-972103195Y1049562844D01*
X-972154774Y1049549023D01*
X-972211761Y1049529083D01*
X-972241842Y1049525693D01*
X-972266398Y1049519114D01*
X-972378615Y1049510282D01*
X-972390000Y1049509000D01*
X-972394915Y1049509000D01*
X-973885083Y1049509000D01*
X-973890000Y1049509000D01*
X-973901388Y1049510283D01*
X-974013601Y1049519114D01*
X-974038155Y1049525693D01*
X-974068239Y1049529083D01*
X-974125229Y1049549024D01*
X-974176804Y1049562844D01*
X-974203289Y1049576338D01*
X-974237541Y1049588324D01*
X-974283552Y1049617235D01*
X-974325884Y1049638804D01*
X-974353603Y1049661251D01*
X-974389415Y1049683753D01*
X-974423577Y1049717915D01*
X-974455905Y1049744094D01*
X-974482083Y1049776421D01*
X-974516247Y1049810585D01*
X-974538749Y1049846397D01*
X-974561195Y1049874115D01*
X-974582762Y1049916443D01*
X-974611676Y1049962459D01*
X-974623662Y1049996714D01*
X-974637155Y1050023195D01*
X-974650972Y1050074762D01*
X-974670917Y1050131761D01*
X-974674307Y1050161849D01*
X-974680885Y1050186398D01*
X-974689713Y1050298586D01*
X-974691000Y1050310000D01*
X-974691000Y1052810000D01*
X-974689713Y1052821417D01*
X-974680885Y1052933601D01*
X-974674307Y1052958149D01*
X-974670917Y1052988239D01*
X-974650971Y1053045241D01*
X-974637155Y1053096804D01*
X-974623663Y1053123282D01*
X-974611676Y1053157541D01*
X-974582757Y1053203564D01*
X-974561196Y1053245881D01*
X-974538756Y1053273591D01*
X-974516247Y1053309415D01*
X-974482077Y1053343584D01*
X-974480336Y1053345735D01*
X-974480336Y1053434265D01*
X-974482077Y1053436415D01*
X-974516247Y1053470585D01*
X-974538754Y1053506404D01*
X-974561196Y1053534118D01*
X-974582760Y1053576439D01*
X-974611676Y1053622459D01*
X-974623662Y1053656714D01*
X-974637155Y1053683195D01*
X-974650972Y1053734762D01*
X-974670917Y1053791761D01*
X-974674307Y1053821849D01*
X-974680885Y1053846398D01*
X-974689713Y1053958586D01*
X-974691000Y1053970000D01*
X-974691000Y1056470000D01*
X-974689713Y1056481417D01*
X-974680885Y1056593601D01*
X-974674307Y1056618149D01*
X-974670917Y1056648239D01*
X-974650971Y1056705241D01*
X-974637155Y1056756804D01*
X-974623663Y1056783282D01*
X-974611676Y1056817541D01*
X-974582759Y1056863561D01*
X-974561195Y1056905884D01*
X-974538752Y1056933598D01*
X-974516247Y1056969415D01*
X-974482079Y1057003582D01*
X-974455905Y1057035905D01*
X-974423582Y1057062079D01*
X-974389415Y1057096247D01*
X-974353598Y1057118752D01*
X-974325884Y1057141195D01*
X-974283561Y1057162759D01*
X-974237541Y1057191676D01*
X-974203282Y1057203663D01*
X-974176804Y1057217155D01*
X-974125241Y1057230971D01*
X-974068239Y1057250917D01*
X-974038149Y1057254307D01*
X-974013601Y1057260885D01*
X-973901415Y1057269713D01*
X-973890000Y1057271000D01*
X-972390000Y1057271000D01*
X-972378584Y1057269713D01*
G37*
M02*
