M48
; DRILL file {KiCad 7.0.8} date Thu 11 Jan 2024 11:17:57 PM EST
; FORMAT={-:-/ absolute / inch / decimal}
; #@! TF.CreationDate,2024-01-11T23:17:57-05:00
; #@! TF.GenerationSoftware,Kicad,Pcbnew,7.0.8
; #@! TF.FileFunction,MixedPlating,1,2
FMAT,2
INCH
; #@! TA.AperFunction,Plated,PTH,ViaDrill
T1C0.0157
; #@! TA.AperFunction,Plated,PTH,ComponentDrill
T2C0.0469
; #@! TA.AperFunction,Plated,PTH,ComponentDrill
T3C0.0650
%
G90
G05
T1
X-39.52Y41.1929
X-39.5Y40.8484
X-39.4902Y41.4173
X-39.2402Y41.175
X-38.3996Y41.1752
X-38.1516Y41.4154
X-38.1417Y40.8504
X-38.11Y41.1951
T2
X-39.0961Y40.8792
X-38.9961Y40.8792
X-38.6433Y40.8792
X-38.5433Y40.8792
T3
X-39.3362Y41.5441
X-39.3362Y41.4
X-39.1Y41.5441
X-39.1Y41.4
X-38.5488Y41.5441
X-38.5488Y41.4
X-38.3126Y41.5441
X-38.3126Y41.4
T0
M30
