G04 #@! TF.GenerationSoftware,KiCad,Pcbnew,7.0.8*
G04 #@! TF.CreationDate,2024-01-11T23:18:00-05:00*
G04 #@! TF.ProjectId,cm300-board,636d3330-302d-4626-9f61-72642e6b6963,rev?*
G04 #@! TF.SameCoordinates,Original*
G04 #@! TF.FileFunction,Soldermask,Top*
G04 #@! TF.FilePolarity,Negative*
%FSLAX46Y46*%
G04 Gerber Fmt 4.6, Leading zero omitted, Abs format (unit mm)*
G04 Created by KiCad (PCBNEW 7.0.8) date 2024-01-11 23:18:00*
%MOMM*%
%LPD*%
G01*
G04 APERTURE LIST*
G04 APERTURE END LIST*
G36*
X-1002607835Y1039275999D02*
G01*
X-1002597999Y1039276000D01*
X-1002529085Y1039268005D01*
X-1002513270Y1039261022D01*
X-1002505466Y1039259786D01*
X-1002472953Y1039243219D01*
X-1002427894Y1039223324D01*
X-1002349676Y1039145106D01*
X-1002329783Y1039100054D01*
X-1002313213Y1039067533D01*
X-1002311976Y1039059726D01*
X-1002304995Y1039043915D01*
X-1002297001Y1038975000D01*
X-1002297000Y1038965169D01*
X-1002297000Y1038965163D01*
X-1002297000Y1037496837D01*
X-1002297000Y1036124999D01*
X-1002304995Y1036056085D01*
X-1002311976Y1036040273D01*
X-1002313213Y1036032466D01*
X-1002329786Y1035999938D01*
X-1002349676Y1035954894D01*
X-1002427894Y1035876676D01*
X-1002472938Y1035856786D01*
X-1002505466Y1035840213D01*
X-1002513273Y1035838976D01*
X-1002529085Y1035831995D01*
X-1002598000Y1035824001D01*
X-1002607829Y1035824000D01*
X-1002607836Y1035824000D01*
X-1003488164Y1035824000D01*
X-1003498001Y1035824000D01*
X-1003566915Y1035831995D01*
X-1003582726Y1035838976D01*
X-1003590533Y1035840213D01*
X-1003623054Y1035856783D01*
X-1003668106Y1035876676D01*
X-1003746324Y1035954894D01*
X-1003766219Y1035999953D01*
X-1003782786Y1036032466D01*
X-1003784022Y1036040270D01*
X-1003791005Y1036056085D01*
X-1003798999Y1036125000D01*
X-1003798999Y1036134829D01*
X-1003799000Y1036134836D01*
X-1003799000Y1038965163D01*
X-1003798999Y1038965163D01*
X-1003799000Y1038975001D01*
X-1003791005Y1039043915D01*
X-1003784021Y1039059729D01*
X-1003782786Y1039067533D01*
X-1003766223Y1039100039D01*
X-1003746324Y1039145106D01*
X-1003668106Y1039223324D01*
X-1003623039Y1039243223D01*
X-1003590533Y1039259786D01*
X-1003582729Y1039261021D01*
X-1003566915Y1039268005D01*
X-1003498000Y1039275999D01*
X-1003488170Y1039275999D01*
X-1003488164Y1039276000D01*
X-1002607836Y1039276000D01*
X-1002607835Y1039275999D01*
G37*
G36*
X-996507835Y1039275999D02*
G01*
X-996497999Y1039276000D01*
X-996429085Y1039268005D01*
X-996413270Y1039261022D01*
X-996405466Y1039259786D01*
X-996372953Y1039243219D01*
X-996327894Y1039223324D01*
X-996249676Y1039145106D01*
X-996229783Y1039100054D01*
X-996213213Y1039067533D01*
X-996211976Y1039059726D01*
X-996204995Y1039043915D01*
X-996197001Y1038975000D01*
X-996197000Y1038965169D01*
X-996197000Y1038965163D01*
X-996197000Y1037496837D01*
X-996197000Y1036124999D01*
X-996204995Y1036056085D01*
X-996211976Y1036040273D01*
X-996213213Y1036032466D01*
X-996229786Y1035999938D01*
X-996249676Y1035954894D01*
X-996327894Y1035876676D01*
X-996372938Y1035856786D01*
X-996405466Y1035840213D01*
X-996413273Y1035838976D01*
X-996429085Y1035831995D01*
X-996498000Y1035824001D01*
X-996507829Y1035824000D01*
X-996507836Y1035824000D01*
X-997388164Y1035824000D01*
X-997398001Y1035824000D01*
X-997466915Y1035831995D01*
X-997482726Y1035838976D01*
X-997490533Y1035840213D01*
X-997523054Y1035856783D01*
X-997568106Y1035876676D01*
X-997646324Y1035954894D01*
X-997666219Y1035999953D01*
X-997682786Y1036032466D01*
X-997684022Y1036040270D01*
X-997691005Y1036056085D01*
X-997698999Y1036125000D01*
X-997698999Y1036134829D01*
X-997699000Y1036134836D01*
X-997699000Y1038965163D01*
X-997698999Y1038965163D01*
X-997699000Y1038975001D01*
X-997691005Y1039043915D01*
X-997684021Y1039059729D01*
X-997682786Y1039067533D01*
X-997666223Y1039100039D01*
X-997646324Y1039145106D01*
X-997568106Y1039223324D01*
X-997523039Y1039243223D01*
X-997490533Y1039259786D01*
X-997482729Y1039261021D01*
X-997466915Y1039268005D01*
X-997398000Y1039275999D01*
X-997388170Y1039275999D01*
X-997388164Y1039276000D01*
X-996507836Y1039276000D01*
X-996507835Y1039275999D01*
G37*
G36*
X-974409835Y1039325999D02*
G01*
X-974399999Y1039326000D01*
X-974331085Y1039318005D01*
X-974315270Y1039311022D01*
X-974307466Y1039309786D01*
X-974274953Y1039293219D01*
X-974229894Y1039273324D01*
X-974151676Y1039195106D01*
X-974131783Y1039150054D01*
X-974115213Y1039117533D01*
X-974113976Y1039109726D01*
X-974106995Y1039093915D01*
X-974099001Y1039025000D01*
X-974099000Y1039015169D01*
X-974099000Y1039015163D01*
X-974099000Y1037595656D01*
X-974099000Y1036174999D01*
X-974106995Y1036106085D01*
X-974113976Y1036090273D01*
X-974115213Y1036082466D01*
X-974131786Y1036049938D01*
X-974151676Y1036004894D01*
X-974229894Y1035926676D01*
X-974274938Y1035906786D01*
X-974307466Y1035890213D01*
X-974315273Y1035888976D01*
X-974331085Y1035881995D01*
X-974400000Y1035874001D01*
X-974409829Y1035874000D01*
X-974409836Y1035874000D01*
X-975290164Y1035874000D01*
X-975300001Y1035874000D01*
X-975368915Y1035881995D01*
X-975384726Y1035888976D01*
X-975392533Y1035890213D01*
X-975425054Y1035906783D01*
X-975470106Y1035926676D01*
X-975548324Y1036004894D01*
X-975568219Y1036049953D01*
X-975584786Y1036082466D01*
X-975586022Y1036090270D01*
X-975593005Y1036106085D01*
X-975600999Y1036175000D01*
X-975600999Y1036184829D01*
X-975601000Y1036184836D01*
X-975601000Y1039015163D01*
X-975600999Y1039015163D01*
X-975601000Y1039025001D01*
X-975593005Y1039093915D01*
X-975586021Y1039109729D01*
X-975584786Y1039117533D01*
X-975568223Y1039150039D01*
X-975548324Y1039195106D01*
X-975470106Y1039273324D01*
X-975425039Y1039293223D01*
X-975392533Y1039309786D01*
X-975384729Y1039311021D01*
X-975368915Y1039318005D01*
X-975300000Y1039325999D01*
X-975290170Y1039325999D01*
X-975290164Y1039326000D01*
X-974409836Y1039326000D01*
X-974409835Y1039325999D01*
G37*
G36*
X-968309835Y1039325999D02*
G01*
X-968299999Y1039326000D01*
X-968231085Y1039318005D01*
X-968215270Y1039311022D01*
X-968207466Y1039309786D01*
X-968174953Y1039293219D01*
X-968129894Y1039273324D01*
X-968051676Y1039195106D01*
X-968031783Y1039150054D01*
X-968015213Y1039117533D01*
X-968013976Y1039109726D01*
X-968006995Y1039093915D01*
X-967999001Y1039025000D01*
X-967999000Y1039015169D01*
X-967999000Y1039015163D01*
X-967999000Y1037595656D01*
X-967999000Y1036174999D01*
X-968006995Y1036106085D01*
X-968013976Y1036090273D01*
X-968015213Y1036082466D01*
X-968031786Y1036049938D01*
X-968051676Y1036004894D01*
X-968129894Y1035926676D01*
X-968174938Y1035906786D01*
X-968207466Y1035890213D01*
X-968215273Y1035888976D01*
X-968231085Y1035881995D01*
X-968300000Y1035874001D01*
X-968309829Y1035874000D01*
X-968309836Y1035874000D01*
X-969190164Y1035874000D01*
X-969200001Y1035874000D01*
X-969268915Y1035881995D01*
X-969284726Y1035888976D01*
X-969292533Y1035890213D01*
X-969325054Y1035906783D01*
X-969370106Y1035926676D01*
X-969448324Y1036004894D01*
X-969468219Y1036049953D01*
X-969484786Y1036082466D01*
X-969486022Y1036090270D01*
X-969493005Y1036106085D01*
X-969500999Y1036175000D01*
X-969500999Y1036184829D01*
X-969501000Y1036184836D01*
X-969501000Y1039015163D01*
X-969500999Y1039015163D01*
X-969501000Y1039025001D01*
X-969493005Y1039093915D01*
X-969486021Y1039109729D01*
X-969484786Y1039117533D01*
X-969468223Y1039150039D01*
X-969448324Y1039195106D01*
X-969370106Y1039273324D01*
X-969325039Y1039293223D01*
X-969292533Y1039309786D01*
X-969284729Y1039311021D01*
X-969268915Y1039318005D01*
X-969200000Y1039325999D01*
X-969190170Y1039325999D01*
X-969190164Y1039326000D01*
X-968309836Y1039326000D01*
X-968309835Y1039325999D01*
G37*
G36*
X-992351086Y1039470005D02*
G01*
X-992335270Y1039463021D01*
X-992327468Y1039461786D01*
X-992294967Y1039445226D01*
X-992249894Y1039425324D01*
X-992171676Y1039347106D01*
X-992151776Y1039302039D01*
X-992135213Y1039269531D01*
X-992133976Y1039261726D01*
X-992126995Y1039245914D01*
X-992119000Y1039177000D01*
X-992119000Y1037487000D01*
X-992126995Y1037418086D01*
X-992133976Y1037402274D01*
X-992135213Y1037394468D01*
X-992151780Y1037361953D01*
X-992171676Y1037316894D01*
X-992249894Y1037238676D01*
X-992294953Y1037218780D01*
X-992327468Y1037202213D01*
X-992335274Y1037200976D01*
X-992351086Y1037193995D01*
X-992420000Y1037186000D01*
X-992429836Y1037186000D01*
X-993650162Y1037186000D01*
X-993660000Y1037186000D01*
X-993728914Y1037193995D01*
X-993744726Y1037200976D01*
X-993752531Y1037202213D01*
X-993785039Y1037218776D01*
X-993830106Y1037238676D01*
X-993908324Y1037316894D01*
X-993928226Y1037361967D01*
X-993944786Y1037394468D01*
X-993946021Y1037402270D01*
X-993953005Y1037418086D01*
X-993961000Y1037487000D01*
X-993961000Y1039177000D01*
X-993953005Y1039245914D01*
X-993946021Y1039261729D01*
X-993944786Y1039269531D01*
X-993928229Y1039302024D01*
X-993908324Y1039347106D01*
X-993830106Y1039425324D01*
X-993785024Y1039445229D01*
X-993752531Y1039461786D01*
X-993744729Y1039463021D01*
X-993728914Y1039470005D01*
X-993660000Y1039478000D01*
X-992420000Y1039478000D01*
X-992351086Y1039470005D01*
G37*
G36*
X-980851086Y1039470005D02*
G01*
X-980835270Y1039463021D01*
X-980827468Y1039461786D01*
X-980794967Y1039445226D01*
X-980749894Y1039425324D01*
X-980671676Y1039347106D01*
X-980651776Y1039302039D01*
X-980635213Y1039269531D01*
X-980633976Y1039261726D01*
X-980626995Y1039245914D01*
X-980619000Y1039177000D01*
X-980619000Y1037487000D01*
X-980626995Y1037418086D01*
X-980633976Y1037402274D01*
X-980635213Y1037394468D01*
X-980651780Y1037361953D01*
X-980671676Y1037316894D01*
X-980749894Y1037238676D01*
X-980794953Y1037218780D01*
X-980827468Y1037202213D01*
X-980835274Y1037200976D01*
X-980851086Y1037193995D01*
X-980920000Y1037186000D01*
X-980929836Y1037186000D01*
X-982150162Y1037186000D01*
X-982160000Y1037186000D01*
X-982228914Y1037193995D01*
X-982244726Y1037200976D01*
X-982252531Y1037202213D01*
X-982285039Y1037218776D01*
X-982330106Y1037238676D01*
X-982408324Y1037316894D01*
X-982428226Y1037361967D01*
X-982444786Y1037394468D01*
X-982446021Y1037402270D01*
X-982453005Y1037418086D01*
X-982461000Y1037487000D01*
X-982461000Y1039177000D01*
X-982453005Y1039245914D01*
X-982446021Y1039261729D01*
X-982444786Y1039269531D01*
X-982428229Y1039302024D01*
X-982408324Y1039347106D01*
X-982330106Y1039425324D01*
X-982285024Y1039445229D01*
X-982252531Y1039461786D01*
X-982244729Y1039463021D01*
X-982228914Y1039470005D01*
X-982160000Y1039478000D01*
X-980920000Y1039478000D01*
X-980851086Y1039470005D01*
G37*
G36*
X-990454923Y1039472955D02*
G01*
X-990403729Y1039472955D01*
X-990359520Y1039463558D01*
X-990320442Y1039459709D01*
X-990271344Y1039444815D01*
X-990215395Y1039432923D01*
X-990179595Y1039416984D01*
X-990147777Y1039407332D01*
X-990097205Y1039380301D01*
X-990039500Y1039354609D01*
X-990012674Y1039335118D01*
X-989988656Y1039322281D01*
X-989939660Y1039282071D01*
X-989883731Y1039241436D01*
X-989865570Y1039221266D01*
X-989849182Y1039207817D01*
X-989805143Y1039154156D01*
X-989754895Y1039098350D01*
X-989744338Y1039080065D01*
X-989734718Y1039068343D01*
X-989699126Y1039001755D01*
X-989658625Y1038931604D01*
X-989653965Y1038917264D01*
X-989649667Y1038909222D01*
X-989625972Y1038831109D01*
X-989599126Y1038748487D01*
X-989598180Y1038739493D01*
X-989597290Y1038736557D01*
X-989588616Y1038648491D01*
X-989579000Y1038557000D01*
X-989579000Y1038107000D01*
X-989588614Y1038015523D01*
X-989597290Y1037927442D01*
X-989598180Y1037924505D01*
X-989599126Y1037915513D01*
X-989625967Y1037832904D01*
X-989649667Y1037754777D01*
X-989653966Y1037746732D01*
X-989658625Y1037732396D01*
X-989699119Y1037662256D01*
X-989734718Y1037595656D01*
X-989744340Y1037583930D01*
X-989754895Y1037565650D01*
X-989805134Y1037509853D01*
X-989849182Y1037456182D01*
X-989865573Y1037442729D01*
X-989883731Y1037422564D01*
X-989939650Y1037381936D01*
X-989988656Y1037341718D01*
X-990012679Y1037328877D01*
X-990039500Y1037309391D01*
X-990097194Y1037283703D01*
X-990147777Y1037256667D01*
X-990179602Y1037247012D01*
X-990215395Y1037231077D01*
X-990271333Y1037219186D01*
X-990320442Y1037204290D01*
X-990359529Y1037200439D01*
X-990403729Y1037191045D01*
X-990454913Y1037191045D01*
X-990500000Y1037186604D01*
X-990545087Y1037191045D01*
X-990596271Y1037191045D01*
X-990640471Y1037200440D01*
X-990679557Y1037204290D01*
X-990728663Y1037219186D01*
X-990784605Y1037231077D01*
X-990820399Y1037247013D01*
X-990852222Y1037256667D01*
X-990902799Y1037283700D01*
X-990960500Y1037309391D01*
X-990987323Y1037328879D01*
X-991011343Y1037341718D01*
X-991060341Y1037381929D01*
X-991116269Y1037422564D01*
X-991134429Y1037442732D01*
X-991150817Y1037456182D01*
X-991194854Y1037509841D01*
X-991245105Y1037565650D01*
X-991255661Y1037583934D01*
X-991265281Y1037595656D01*
X-991300867Y1037662233D01*
X-991341375Y1037732396D01*
X-991346034Y1037746737D01*
X-991350332Y1037754777D01*
X-991374017Y1037832857D01*
X-991400874Y1037915513D01*
X-991401819Y1037924510D01*
X-991402709Y1037927442D01*
X-991411377Y1038015444D01*
X-991421000Y1038107000D01*
X-991421000Y1038557000D01*
X-991411375Y1038648570D01*
X-991402709Y1038736557D01*
X-991401819Y1038739488D01*
X-991400874Y1038748487D01*
X-991374012Y1038831156D01*
X-991350332Y1038909222D01*
X-991346035Y1038917259D01*
X-991341375Y1038931604D01*
X-991300859Y1039001778D01*
X-991265281Y1039068343D01*
X-991255663Y1039080061D01*
X-991245105Y1039098350D01*
X-991194844Y1039154169D01*
X-991150817Y1039207817D01*
X-991134432Y1039221263D01*
X-991116269Y1039241436D01*
X-991060330Y1039282077D01*
X-991011343Y1039322281D01*
X-990987328Y1039335116D01*
X-990960500Y1039354609D01*
X-990902788Y1039380304D01*
X-990852222Y1039407332D01*
X-990820406Y1039416983D01*
X-990784605Y1039432923D01*
X-990728652Y1039444816D01*
X-990679557Y1039459709D01*
X-990640479Y1039463558D01*
X-990596271Y1039472955D01*
X-990545077Y1039472955D01*
X-990500000Y1039477395D01*
X-990454923Y1039472955D01*
G37*
G36*
X-978954923Y1039472955D02*
G01*
X-978903729Y1039472955D01*
X-978859520Y1039463558D01*
X-978820442Y1039459709D01*
X-978771344Y1039444815D01*
X-978715395Y1039432923D01*
X-978679595Y1039416984D01*
X-978647777Y1039407332D01*
X-978597205Y1039380301D01*
X-978539500Y1039354609D01*
X-978512674Y1039335118D01*
X-978488656Y1039322281D01*
X-978439660Y1039282071D01*
X-978383731Y1039241436D01*
X-978365570Y1039221266D01*
X-978349182Y1039207817D01*
X-978305143Y1039154156D01*
X-978254895Y1039098350D01*
X-978244338Y1039080065D01*
X-978234718Y1039068343D01*
X-978199126Y1039001755D01*
X-978158625Y1038931604D01*
X-978153965Y1038917264D01*
X-978149667Y1038909222D01*
X-978125972Y1038831109D01*
X-978099126Y1038748487D01*
X-978098180Y1038739493D01*
X-978097290Y1038736557D01*
X-978088616Y1038648491D01*
X-978079000Y1038557000D01*
X-978079000Y1038107000D01*
X-978088614Y1038015523D01*
X-978097290Y1037927442D01*
X-978098180Y1037924505D01*
X-978099126Y1037915513D01*
X-978125967Y1037832904D01*
X-978149667Y1037754777D01*
X-978153966Y1037746732D01*
X-978158625Y1037732396D01*
X-978199119Y1037662256D01*
X-978234718Y1037595656D01*
X-978244340Y1037583930D01*
X-978254895Y1037565650D01*
X-978305134Y1037509853D01*
X-978349182Y1037456182D01*
X-978365573Y1037442729D01*
X-978383731Y1037422564D01*
X-978439650Y1037381936D01*
X-978488656Y1037341718D01*
X-978512679Y1037328877D01*
X-978539500Y1037309391D01*
X-978597194Y1037283703D01*
X-978647777Y1037256667D01*
X-978679602Y1037247012D01*
X-978715395Y1037231077D01*
X-978771333Y1037219186D01*
X-978820442Y1037204290D01*
X-978859529Y1037200439D01*
X-978903729Y1037191045D01*
X-978954913Y1037191045D01*
X-979000000Y1037186604D01*
X-979045087Y1037191045D01*
X-979096271Y1037191045D01*
X-979140471Y1037200440D01*
X-979179557Y1037204290D01*
X-979228663Y1037219186D01*
X-979284605Y1037231077D01*
X-979320399Y1037247013D01*
X-979352222Y1037256667D01*
X-979402799Y1037283700D01*
X-979460500Y1037309391D01*
X-979487323Y1037328879D01*
X-979511343Y1037341718D01*
X-979560341Y1037381929D01*
X-979616269Y1037422564D01*
X-979634429Y1037442732D01*
X-979650817Y1037456182D01*
X-979694854Y1037509841D01*
X-979745105Y1037565650D01*
X-979755661Y1037583934D01*
X-979765281Y1037595656D01*
X-979800867Y1037662233D01*
X-979841375Y1037732396D01*
X-979846034Y1037746737D01*
X-979850332Y1037754777D01*
X-979874017Y1037832857D01*
X-979900874Y1037915513D01*
X-979901819Y1037924510D01*
X-979902709Y1037927442D01*
X-979911377Y1038015444D01*
X-979921000Y1038107000D01*
X-979921000Y1038557000D01*
X-979911375Y1038648570D01*
X-979902709Y1038736557D01*
X-979901819Y1038739488D01*
X-979900874Y1038748487D01*
X-979874012Y1038831156D01*
X-979850332Y1038909222D01*
X-979846035Y1038917259D01*
X-979841375Y1038931604D01*
X-979800859Y1039001778D01*
X-979765281Y1039068343D01*
X-979755663Y1039080061D01*
X-979745105Y1039098350D01*
X-979694844Y1039154169D01*
X-979650817Y1039207817D01*
X-979634432Y1039221263D01*
X-979616269Y1039241436D01*
X-979560330Y1039282077D01*
X-979511343Y1039322281D01*
X-979487328Y1039335116D01*
X-979460500Y1039354609D01*
X-979402788Y1039380304D01*
X-979352222Y1039407332D01*
X-979320406Y1039416983D01*
X-979284605Y1039432923D01*
X-979228652Y1039444816D01*
X-979179557Y1039459709D01*
X-979140479Y1039463558D01*
X-979096271Y1039472955D01*
X-979045077Y1039472955D01*
X-979000000Y1039477395D01*
X-978954923Y1039472955D01*
G37*
G36*
X-999090835Y1042050999D02*
G01*
X-999080999Y1042051000D01*
X-999012085Y1042043005D01*
X-998996270Y1042036022D01*
X-998988466Y1042034786D01*
X-998955953Y1042018219D01*
X-998910894Y1041998324D01*
X-998832676Y1041920106D01*
X-998812783Y1041875054D01*
X-998796213Y1041842533D01*
X-998794976Y1041834726D01*
X-998787995Y1041818915D01*
X-998780001Y1041750000D01*
X-998780000Y1041740169D01*
X-998780000Y1041740163D01*
X-998780000Y1040959836D01*
X-998780000Y1040849999D01*
X-998787995Y1040781085D01*
X-998794976Y1040765273D01*
X-998796213Y1040757466D01*
X-998812786Y1040724938D01*
X-998832676Y1040679894D01*
X-998910894Y1040601676D01*
X-998955938Y1040581786D01*
X-998988466Y1040565213D01*
X-998996273Y1040563976D01*
X-999012085Y1040556995D01*
X-999081000Y1040549001D01*
X-999090829Y1040549000D01*
X-999090836Y1040549000D01*
X-1001921164Y1040549000D01*
X-1001931001Y1040549000D01*
X-1001999915Y1040556995D01*
X-1002015726Y1040563976D01*
X-1002023533Y1040565213D01*
X-1002056054Y1040581783D01*
X-1002101106Y1040601676D01*
X-1002179324Y1040679894D01*
X-1002199219Y1040724953D01*
X-1002215786Y1040757466D01*
X-1002217022Y1040765270D01*
X-1002224005Y1040781085D01*
X-1002231999Y1040850000D01*
X-1002231999Y1040859829D01*
X-1002232000Y1040859836D01*
X-1002232000Y1041740163D01*
X-1002231999Y1041740163D01*
X-1002232000Y1041750001D01*
X-1002224005Y1041818915D01*
X-1002217021Y1041834729D01*
X-1002215786Y1041842533D01*
X-1002199223Y1041875039D01*
X-1002179324Y1041920106D01*
X-1002101106Y1041998324D01*
X-1002056039Y1042018223D01*
X-1002023533Y1042034786D01*
X-1002015729Y1042036021D01*
X-1001999915Y1042043005D01*
X-1001931000Y1042050999D01*
X-1001921170Y1042050999D01*
X-1001921164Y1042051000D01*
X-999090836Y1042051000D01*
X-999090835Y1042050999D01*
G37*
G36*
X-969880835Y1042150999D02*
G01*
X-969870999Y1042151000D01*
X-969802085Y1042143005D01*
X-969786270Y1042136022D01*
X-969778466Y1042134786D01*
X-969745953Y1042118219D01*
X-969700894Y1042098324D01*
X-969622676Y1042020106D01*
X-969602783Y1041975054D01*
X-969586213Y1041942533D01*
X-969584976Y1041934726D01*
X-969577995Y1041918915D01*
X-969570001Y1041850000D01*
X-969570000Y1041840169D01*
X-969570000Y1041840163D01*
X-969570000Y1040959836D01*
X-969570000Y1040949999D01*
X-969577995Y1040881085D01*
X-969584976Y1040865273D01*
X-969586213Y1040857466D01*
X-969602786Y1040824938D01*
X-969622676Y1040779894D01*
X-969700894Y1040701676D01*
X-969745938Y1040681786D01*
X-969778466Y1040665213D01*
X-969786273Y1040663976D01*
X-969802085Y1040656995D01*
X-969871000Y1040649001D01*
X-969880829Y1040649000D01*
X-969880836Y1040649000D01*
X-972711164Y1040649000D01*
X-972721001Y1040649000D01*
X-972789915Y1040656995D01*
X-972805726Y1040663976D01*
X-972813533Y1040665213D01*
X-972846054Y1040681783D01*
X-972891106Y1040701676D01*
X-972969324Y1040779894D01*
X-972989219Y1040824953D01*
X-973005786Y1040857466D01*
X-973007022Y1040865270D01*
X-973014005Y1040881085D01*
X-973021999Y1040950000D01*
X-973021999Y1040959829D01*
X-973022000Y1040959836D01*
X-973022000Y1041840163D01*
X-973021999Y1041840163D01*
X-973022000Y1041850001D01*
X-973014005Y1041918915D01*
X-973007021Y1041934729D01*
X-973005786Y1041942533D01*
X-972989223Y1041975039D01*
X-972969324Y1042020106D01*
X-972891106Y1042098324D01*
X-972846039Y1042118223D01*
X-972813533Y1042134786D01*
X-972805729Y1042136021D01*
X-972789915Y1042143005D01*
X-972721000Y1042150999D01*
X-972711170Y1042150999D01*
X-972711164Y1042151000D01*
X-969880836Y1042151000D01*
X-969880835Y1042150999D01*
G37*
G36*
X-1003394545Y1043493351D02*
G01*
X-1003348193Y1043486010D01*
X-1003342144Y1043482927D01*
X-1003327379Y1043479991D01*
X-1003298471Y1043460674D01*
X-1003271688Y1043447028D01*
X-1003258881Y1043434221D01*
X-1003237839Y1043420161D01*
X-1003223778Y1043399118D01*
X-1003210971Y1043386311D01*
X-1003197323Y1043359525D01*
X-1003178009Y1043330621D01*
X-1003175072Y1043315857D01*
X-1003171989Y1043309806D01*
X-1003164644Y1043263433D01*
X-1003157000Y1043225000D01*
X-1003157000Y1042775000D01*
X-1003164644Y1042736570D01*
X-1003171989Y1042690193D01*
X-1003175072Y1042684141D01*
X-1003178009Y1042669379D01*
X-1003197320Y1042640477D01*
X-1003210971Y1042613688D01*
X-1003223780Y1042600878D01*
X-1003237839Y1042579839D01*
X-1003258878Y1042565780D01*
X-1003271688Y1042552971D01*
X-1003298477Y1042539320D01*
X-1003327379Y1042520009D01*
X-1003342141Y1042517072D01*
X-1003348193Y1042513989D01*
X-1003394570Y1042506644D01*
X-1003433000Y1042499000D01*
X-1003442836Y1042499000D01*
X-1004173163Y1042499000D01*
X-1004183000Y1042499000D01*
X-1004221433Y1042506644D01*
X-1004267806Y1042513989D01*
X-1004273857Y1042517072D01*
X-1004288621Y1042520009D01*
X-1004317525Y1042539323D01*
X-1004344311Y1042552971D01*
X-1004357118Y1042565778D01*
X-1004378161Y1042579839D01*
X-1004392221Y1042600881D01*
X-1004405028Y1042613688D01*
X-1004418674Y1042640471D01*
X-1004437991Y1042669379D01*
X-1004440927Y1042684144D01*
X-1004444010Y1042690193D01*
X-1004451351Y1042736545D01*
X-1004459000Y1042775000D01*
X-1004459000Y1043225000D01*
X-1004451350Y1043263458D01*
X-1004444010Y1043309806D01*
X-1004440928Y1043315854D01*
X-1004437991Y1043330621D01*
X-1004418672Y1043359532D01*
X-1004405028Y1043386311D01*
X-1004392223Y1043399115D01*
X-1004378161Y1043420161D01*
X-1004357115Y1043434223D01*
X-1004344311Y1043447028D01*
X-1004317532Y1043460672D01*
X-1004288621Y1043479991D01*
X-1004273854Y1043482928D01*
X-1004267806Y1043486010D01*
X-1004221458Y1043493350D01*
X-1004183000Y1043501000D01*
X-1003433000Y1043501000D01*
X-1003394545Y1043493351D01*
G37*
G36*
X-967580545Y1043548351D02*
G01*
X-967534193Y1043541010D01*
X-967528144Y1043537927D01*
X-967513379Y1043534991D01*
X-967484471Y1043515674D01*
X-967457688Y1043502028D01*
X-967444881Y1043489221D01*
X-967423839Y1043475161D01*
X-967409778Y1043454118D01*
X-967396971Y1043441311D01*
X-967383323Y1043414525D01*
X-967364009Y1043385621D01*
X-967361072Y1043370857D01*
X-967357989Y1043364806D01*
X-967350644Y1043318433D01*
X-967343000Y1043280000D01*
X-967343000Y1042830000D01*
X-967350644Y1042791570D01*
X-967357989Y1042745193D01*
X-967361072Y1042739141D01*
X-967364009Y1042724379D01*
X-967383320Y1042695477D01*
X-967396971Y1042668688D01*
X-967409780Y1042655878D01*
X-967423839Y1042634839D01*
X-967444878Y1042620780D01*
X-967457688Y1042607971D01*
X-967484477Y1042594320D01*
X-967513379Y1042575009D01*
X-967528141Y1042572072D01*
X-967534193Y1042568989D01*
X-967580570Y1042561644D01*
X-967619000Y1042554000D01*
X-967628836Y1042554000D01*
X-968359163Y1042554000D01*
X-968369000Y1042554000D01*
X-968407433Y1042561644D01*
X-968453806Y1042568989D01*
X-968459857Y1042572072D01*
X-968474621Y1042575009D01*
X-968503525Y1042594323D01*
X-968530311Y1042607971D01*
X-968543118Y1042620778D01*
X-968564161Y1042634839D01*
X-968578221Y1042655881D01*
X-968591028Y1042668688D01*
X-968604674Y1042695471D01*
X-968623991Y1042724379D01*
X-968626927Y1042739144D01*
X-968630010Y1042745193D01*
X-968637351Y1042791545D01*
X-968645000Y1042830000D01*
X-968645000Y1043280000D01*
X-968637350Y1043318458D01*
X-968630010Y1043364806D01*
X-968626928Y1043370854D01*
X-968623991Y1043385621D01*
X-968604672Y1043414532D01*
X-968591028Y1043441311D01*
X-968578223Y1043454115D01*
X-968564161Y1043475161D01*
X-968543115Y1043489223D01*
X-968530311Y1043502028D01*
X-968503532Y1043515672D01*
X-968474621Y1043534991D01*
X-968459854Y1043537928D01*
X-968453806Y1043541010D01*
X-968407458Y1043548350D01*
X-968369000Y1043556000D01*
X-967619000Y1043556000D01*
X-967580545Y1043548351D01*
G37*
G36*
X-995631086Y1047157005D02*
G01*
X-995615270Y1047150021D01*
X-995607468Y1047148786D01*
X-995574967Y1047132226D01*
X-995529894Y1047112324D01*
X-995451676Y1047034106D01*
X-995431776Y1046989039D01*
X-995415213Y1046956531D01*
X-995413976Y1046948726D01*
X-995406995Y1046932914D01*
X-995399000Y1046864000D01*
X-995399000Y1044064000D01*
X-995406995Y1043995086D01*
X-995413976Y1043979274D01*
X-995415213Y1043971468D01*
X-995431780Y1043938953D01*
X-995451676Y1043893894D01*
X-995529894Y1043815676D01*
X-995574953Y1043795780D01*
X-995607468Y1043779213D01*
X-995615274Y1043777976D01*
X-995631086Y1043770995D01*
X-995700000Y1043763000D01*
X-995709836Y1043763000D01*
X-997690162Y1043763000D01*
X-997700000Y1043763000D01*
X-997768914Y1043770995D01*
X-997784726Y1043777976D01*
X-997792531Y1043779213D01*
X-997825039Y1043795776D01*
X-997870106Y1043815676D01*
X-997948324Y1043893894D01*
X-997968226Y1043938967D01*
X-997984786Y1043971468D01*
X-997986021Y1043979270D01*
X-997993005Y1043995086D01*
X-998001000Y1044064000D01*
X-998001000Y1046864000D01*
X-997993005Y1046932914D01*
X-997986021Y1046948729D01*
X-997984786Y1046956531D01*
X-997968229Y1046989024D01*
X-997948324Y1047034106D01*
X-997870106Y1047112324D01*
X-997825024Y1047132229D01*
X-997792531Y1047148786D01*
X-997784729Y1047150021D01*
X-997768914Y1047157005D01*
X-997700000Y1047165000D01*
X-995700000Y1047165000D01*
X-995631086Y1047157005D01*
G37*
G36*
X-988831086Y1047157005D02*
G01*
X-988815270Y1047150021D01*
X-988807468Y1047148786D01*
X-988774967Y1047132226D01*
X-988729894Y1047112324D01*
X-988651676Y1047034106D01*
X-988631776Y1046989039D01*
X-988615213Y1046956531D01*
X-988613976Y1046948726D01*
X-988606995Y1046932914D01*
X-988599000Y1046864000D01*
X-988599000Y1044064000D01*
X-988606995Y1043995086D01*
X-988613976Y1043979274D01*
X-988615213Y1043971468D01*
X-988631780Y1043938953D01*
X-988651676Y1043893894D01*
X-988729894Y1043815676D01*
X-988774953Y1043795780D01*
X-988807468Y1043779213D01*
X-988815274Y1043777976D01*
X-988831086Y1043770995D01*
X-988900000Y1043763000D01*
X-988909836Y1043763000D01*
X-990890162Y1043763000D01*
X-990900000Y1043763000D01*
X-990968914Y1043770995D01*
X-990984726Y1043777976D01*
X-990992531Y1043779213D01*
X-991025039Y1043795776D01*
X-991070106Y1043815676D01*
X-991148324Y1043893894D01*
X-991168226Y1043938967D01*
X-991184786Y1043971468D01*
X-991186021Y1043979270D01*
X-991193005Y1043995086D01*
X-991201000Y1044064000D01*
X-991201000Y1046864000D01*
X-991193005Y1046932914D01*
X-991186021Y1046948729D01*
X-991184786Y1046956531D01*
X-991168229Y1046989024D01*
X-991148324Y1047034106D01*
X-991070106Y1047112324D01*
X-991025024Y1047132229D01*
X-990992531Y1047148786D01*
X-990984729Y1047150021D01*
X-990968914Y1047157005D01*
X-990900000Y1047165000D01*
X-988900000Y1047165000D01*
X-988831086Y1047157005D01*
G37*
G36*
X-981081086Y1047157005D02*
G01*
X-981065270Y1047150021D01*
X-981057468Y1047148786D01*
X-981024967Y1047132226D01*
X-980979894Y1047112324D01*
X-980901676Y1047034106D01*
X-980881776Y1046989039D01*
X-980865213Y1046956531D01*
X-980863976Y1046948726D01*
X-980856995Y1046932914D01*
X-980849000Y1046864000D01*
X-980849000Y1044064000D01*
X-980856995Y1043995086D01*
X-980863976Y1043979274D01*
X-980865213Y1043971468D01*
X-980881780Y1043938953D01*
X-980901676Y1043893894D01*
X-980979894Y1043815676D01*
X-981024953Y1043795780D01*
X-981057468Y1043779213D01*
X-981065274Y1043777976D01*
X-981081086Y1043770995D01*
X-981150000Y1043763000D01*
X-981159836Y1043763000D01*
X-983140162Y1043763000D01*
X-983150000Y1043763000D01*
X-983218914Y1043770995D01*
X-983234726Y1043777976D01*
X-983242531Y1043779213D01*
X-983275039Y1043795776D01*
X-983320106Y1043815676D01*
X-983398324Y1043893894D01*
X-983418226Y1043938967D01*
X-983434786Y1043971468D01*
X-983436021Y1043979270D01*
X-983443005Y1043995086D01*
X-983451000Y1044064000D01*
X-983451000Y1046864000D01*
X-983443005Y1046932914D01*
X-983436021Y1046948729D01*
X-983434786Y1046956531D01*
X-983418229Y1046989024D01*
X-983398324Y1047034106D01*
X-983320106Y1047112324D01*
X-983275024Y1047132229D01*
X-983242531Y1047148786D01*
X-983234729Y1047150021D01*
X-983218914Y1047157005D01*
X-983150000Y1047165000D01*
X-981150000Y1047165000D01*
X-981081086Y1047157005D01*
G37*
G36*
X-974281086Y1047157005D02*
G01*
X-974265270Y1047150021D01*
X-974257468Y1047148786D01*
X-974224967Y1047132226D01*
X-974179894Y1047112324D01*
X-974101676Y1047034106D01*
X-974081776Y1046989039D01*
X-974065213Y1046956531D01*
X-974063976Y1046948726D01*
X-974056995Y1046932914D01*
X-974049000Y1046864000D01*
X-974049000Y1044064000D01*
X-974056995Y1043995086D01*
X-974063976Y1043979274D01*
X-974065213Y1043971468D01*
X-974081780Y1043938953D01*
X-974101676Y1043893894D01*
X-974179894Y1043815676D01*
X-974224953Y1043795780D01*
X-974257468Y1043779213D01*
X-974265274Y1043777976D01*
X-974281086Y1043770995D01*
X-974350000Y1043763000D01*
X-974359836Y1043763000D01*
X-976340162Y1043763000D01*
X-976350000Y1043763000D01*
X-976418914Y1043770995D01*
X-976434726Y1043777976D01*
X-976442531Y1043779213D01*
X-976475039Y1043795776D01*
X-976520106Y1043815676D01*
X-976598324Y1043893894D01*
X-976618226Y1043938967D01*
X-976634786Y1043971468D01*
X-976636021Y1043979270D01*
X-976643005Y1043995086D01*
X-976651000Y1044064000D01*
X-976651000Y1046864000D01*
X-976643005Y1046932914D01*
X-976636021Y1046948729D01*
X-976634786Y1046956531D01*
X-976618229Y1046989024D01*
X-976598324Y1047034106D01*
X-976520106Y1047112324D01*
X-976475024Y1047132229D01*
X-976442531Y1047148786D01*
X-976434729Y1047150021D01*
X-976418914Y1047157005D01*
X-976350000Y1047165000D01*
X-974350000Y1047165000D01*
X-974281086Y1047157005D01*
G37*
G36*
X-1003394545Y1046793351D02*
G01*
X-1003348193Y1046786010D01*
X-1003342144Y1046782927D01*
X-1003327379Y1046779991D01*
X-1003298471Y1046760674D01*
X-1003271688Y1046747028D01*
X-1003258881Y1046734221D01*
X-1003237839Y1046720161D01*
X-1003223778Y1046699118D01*
X-1003210971Y1046686311D01*
X-1003197323Y1046659525D01*
X-1003178009Y1046630621D01*
X-1003175072Y1046615857D01*
X-1003171989Y1046609806D01*
X-1003164644Y1046563433D01*
X-1003157000Y1046525000D01*
X-1003157000Y1046075000D01*
X-1003164644Y1046036570D01*
X-1003171989Y1045990193D01*
X-1003175072Y1045984141D01*
X-1003178009Y1045969379D01*
X-1003197320Y1045940477D01*
X-1003210971Y1045913688D01*
X-1003223780Y1045900878D01*
X-1003237839Y1045879839D01*
X-1003258878Y1045865780D01*
X-1003271688Y1045852971D01*
X-1003298477Y1045839320D01*
X-1003327379Y1045820009D01*
X-1003342141Y1045817072D01*
X-1003348193Y1045813989D01*
X-1003394570Y1045806644D01*
X-1003433000Y1045799000D01*
X-1003442836Y1045799000D01*
X-1004173163Y1045799000D01*
X-1004183000Y1045799000D01*
X-1004221433Y1045806644D01*
X-1004267806Y1045813989D01*
X-1004273857Y1045817072D01*
X-1004288621Y1045820009D01*
X-1004317525Y1045839323D01*
X-1004344311Y1045852971D01*
X-1004357118Y1045865778D01*
X-1004378161Y1045879839D01*
X-1004392221Y1045900881D01*
X-1004405028Y1045913688D01*
X-1004418674Y1045940471D01*
X-1004437991Y1045969379D01*
X-1004440927Y1045984144D01*
X-1004444010Y1045990193D01*
X-1004451351Y1046036545D01*
X-1004459000Y1046075000D01*
X-1004459000Y1046525000D01*
X-1004451350Y1046563458D01*
X-1004444010Y1046609806D01*
X-1004440928Y1046615854D01*
X-1004437991Y1046630621D01*
X-1004418672Y1046659532D01*
X-1004405028Y1046686311D01*
X-1004392223Y1046699115D01*
X-1004378161Y1046720161D01*
X-1004357115Y1046734223D01*
X-1004344311Y1046747028D01*
X-1004317532Y1046760672D01*
X-1004288621Y1046779991D01*
X-1004273854Y1046782928D01*
X-1004267806Y1046786010D01*
X-1004221458Y1046793350D01*
X-1004183000Y1046801000D01*
X-1003433000Y1046801000D01*
X-1003394545Y1046793351D01*
G37*
G36*
X-967580545Y1046848351D02*
G01*
X-967534193Y1046841010D01*
X-967528144Y1046837927D01*
X-967513379Y1046834991D01*
X-967484471Y1046815674D01*
X-967457688Y1046802028D01*
X-967444881Y1046789221D01*
X-967423839Y1046775161D01*
X-967409778Y1046754118D01*
X-967396971Y1046741311D01*
X-967383323Y1046714525D01*
X-967364009Y1046685621D01*
X-967361072Y1046670857D01*
X-967357989Y1046664806D01*
X-967350644Y1046618433D01*
X-967343000Y1046580000D01*
X-967343000Y1046130000D01*
X-967350644Y1046091570D01*
X-967357989Y1046045193D01*
X-967361072Y1046039141D01*
X-967364009Y1046024379D01*
X-967383320Y1045995477D01*
X-967396971Y1045968688D01*
X-967409780Y1045955878D01*
X-967423839Y1045934839D01*
X-967444878Y1045920780D01*
X-967457688Y1045907971D01*
X-967484477Y1045894320D01*
X-967513379Y1045875009D01*
X-967528141Y1045872072D01*
X-967534193Y1045868989D01*
X-967580570Y1045861644D01*
X-967619000Y1045854000D01*
X-967628836Y1045854000D01*
X-968359163Y1045854000D01*
X-968369000Y1045854000D01*
X-968407433Y1045861644D01*
X-968453806Y1045868989D01*
X-968459857Y1045872072D01*
X-968474621Y1045875009D01*
X-968503525Y1045894323D01*
X-968530311Y1045907971D01*
X-968543118Y1045920778D01*
X-968564161Y1045934839D01*
X-968578221Y1045955881D01*
X-968591028Y1045968688D01*
X-968604674Y1045995471D01*
X-968623991Y1046024379D01*
X-968626927Y1046039144D01*
X-968630010Y1046045193D01*
X-968637351Y1046091545D01*
X-968645000Y1046130000D01*
X-968645000Y1046580000D01*
X-968637350Y1046618458D01*
X-968630010Y1046664806D01*
X-968626928Y1046670854D01*
X-968623991Y1046685621D01*
X-968604672Y1046714532D01*
X-968591028Y1046741311D01*
X-968578223Y1046754115D01*
X-968564161Y1046775161D01*
X-968543115Y1046789223D01*
X-968530311Y1046802028D01*
X-968503532Y1046815672D01*
X-968474621Y1046834991D01*
X-968459854Y1046837928D01*
X-968453806Y1046841010D01*
X-968407458Y1046848350D01*
X-968369000Y1046856000D01*
X-967619000Y1046856000D01*
X-967580545Y1046848351D01*
G37*
G36*
X-999090835Y1048150999D02*
G01*
X-999080999Y1048151000D01*
X-999012085Y1048143005D01*
X-998996270Y1048136022D01*
X-998988466Y1048134786D01*
X-998955953Y1048118219D01*
X-998910894Y1048098324D01*
X-998832676Y1048020106D01*
X-998812783Y1047975054D01*
X-998796213Y1047942533D01*
X-998794976Y1047934726D01*
X-998787995Y1047918915D01*
X-998780001Y1047850000D01*
X-998780000Y1047840169D01*
X-998780000Y1047840163D01*
X-998780000Y1047165000D01*
X-998780000Y1046949999D01*
X-998787995Y1046881085D01*
X-998794976Y1046865273D01*
X-998796213Y1046857466D01*
X-998812786Y1046824938D01*
X-998832676Y1046779894D01*
X-998910894Y1046701676D01*
X-998955938Y1046681786D01*
X-998988466Y1046665213D01*
X-998996273Y1046663976D01*
X-999012085Y1046656995D01*
X-999081000Y1046649001D01*
X-999090829Y1046649000D01*
X-999090836Y1046649000D01*
X-1001921164Y1046649000D01*
X-1001931001Y1046649000D01*
X-1001999915Y1046656995D01*
X-1002015726Y1046663976D01*
X-1002023533Y1046665213D01*
X-1002056054Y1046681783D01*
X-1002101106Y1046701676D01*
X-1002179324Y1046779894D01*
X-1002199219Y1046824953D01*
X-1002215786Y1046857466D01*
X-1002217022Y1046865270D01*
X-1002224005Y1046881085D01*
X-1002231999Y1046950000D01*
X-1002231999Y1046959829D01*
X-1002232000Y1046959836D01*
X-1002232000Y1047840163D01*
X-1002231999Y1047840163D01*
X-1002232000Y1047850001D01*
X-1002224005Y1047918915D01*
X-1002217021Y1047934729D01*
X-1002215786Y1047942533D01*
X-1002199223Y1047975039D01*
X-1002179324Y1048020106D01*
X-1002101106Y1048098324D01*
X-1002056039Y1048118223D01*
X-1002023533Y1048134786D01*
X-1002015729Y1048136021D01*
X-1001999915Y1048143005D01*
X-1001931000Y1048150999D01*
X-1001921170Y1048150999D01*
X-1001921164Y1048151000D01*
X-999090836Y1048151000D01*
X-999090835Y1048150999D01*
G37*
G36*
X-969880835Y1048250999D02*
G01*
X-969870999Y1048251000D01*
X-969802085Y1048243005D01*
X-969786270Y1048236022D01*
X-969778466Y1048234786D01*
X-969745953Y1048218219D01*
X-969700894Y1048198324D01*
X-969622676Y1048120106D01*
X-969602783Y1048075054D01*
X-969586213Y1048042533D01*
X-969584976Y1048034726D01*
X-969577995Y1048018915D01*
X-969570001Y1047950000D01*
X-969570000Y1047940169D01*
X-969570000Y1047940163D01*
X-969570000Y1047165000D01*
X-969570000Y1047049999D01*
X-969577995Y1046981085D01*
X-969584976Y1046965273D01*
X-969586213Y1046957466D01*
X-969602786Y1046924938D01*
X-969622676Y1046879894D01*
X-969700894Y1046801676D01*
X-969745938Y1046781786D01*
X-969778466Y1046765213D01*
X-969786273Y1046763976D01*
X-969802085Y1046756995D01*
X-969871000Y1046749001D01*
X-969880829Y1046749000D01*
X-969880836Y1046749000D01*
X-972711164Y1046749000D01*
X-972721001Y1046749000D01*
X-972789915Y1046756995D01*
X-972805726Y1046763976D01*
X-972813533Y1046765213D01*
X-972846054Y1046781783D01*
X-972891106Y1046801676D01*
X-972969324Y1046879894D01*
X-972989219Y1046924953D01*
X-973005786Y1046957466D01*
X-973007022Y1046965270D01*
X-973014005Y1046981085D01*
X-973021999Y1047050000D01*
X-973021999Y1047059829D01*
X-973022000Y1047059836D01*
X-973022000Y1047940163D01*
X-973021999Y1047940163D01*
X-973022000Y1047950001D01*
X-973014005Y1048018915D01*
X-973007021Y1048034729D01*
X-973005786Y1048042533D01*
X-972989223Y1048075039D01*
X-972969324Y1048120106D01*
X-972891106Y1048198324D01*
X-972846039Y1048218223D01*
X-972813533Y1048234786D01*
X-972805729Y1048236021D01*
X-972789915Y1048243005D01*
X-972721000Y1048250999D01*
X-972711170Y1048250999D01*
X-972711164Y1048251000D01*
X-969880836Y1048251000D01*
X-969880835Y1048250999D01*
G37*
G36*
X-998378584Y1057269713D02*
G01*
X-998266398Y1057260885D01*
X-998241849Y1057254307D01*
X-998211761Y1057250917D01*
X-998154762Y1057230972D01*
X-998103195Y1057217155D01*
X-998076714Y1057203662D01*
X-998042459Y1057191676D01*
X-997996443Y1057162762D01*
X-997954115Y1057141195D01*
X-997926397Y1057118749D01*
X-997890585Y1057096247D01*
X-997856421Y1057062083D01*
X-997824094Y1057035905D01*
X-997797915Y1057003577D01*
X-997763753Y1056969415D01*
X-997741251Y1056933603D01*
X-997718804Y1056905884D01*
X-997697235Y1056863552D01*
X-997668324Y1056817541D01*
X-997656338Y1056783289D01*
X-997642844Y1056756804D01*
X-997629024Y1056705229D01*
X-997609083Y1056648239D01*
X-997605693Y1056618155D01*
X-997599114Y1056593601D01*
X-997590282Y1056481386D01*
X-997589000Y1056470000D01*
X-997589000Y1053970000D01*
X-997590282Y1053958613D01*
X-997599114Y1053846398D01*
X-997605693Y1053821842D01*
X-997609083Y1053791761D01*
X-997629023Y1053734774D01*
X-997642844Y1053683195D01*
X-997656339Y1053656708D01*
X-997668324Y1053622459D01*
X-997697234Y1053576448D01*
X-997718803Y1053534118D01*
X-997741250Y1053506398D01*
X-997763753Y1053470585D01*
X-997797913Y1053436424D01*
X-997799663Y1053434264D01*
X-997799663Y1053345736D01*
X-997797913Y1053343575D01*
X-997763753Y1053309415D01*
X-997741248Y1053273598D01*
X-997718803Y1053245881D01*
X-997697237Y1053203555D01*
X-997668324Y1053157541D01*
X-997656338Y1053123288D01*
X-997642844Y1053096804D01*
X-997629024Y1053045229D01*
X-997609083Y1052988239D01*
X-997605693Y1052958155D01*
X-997599114Y1052933601D01*
X-997590282Y1052821386D01*
X-997589000Y1052810000D01*
X-997589000Y1050310000D01*
X-997590282Y1050298613D01*
X-997599114Y1050186398D01*
X-997605693Y1050161842D01*
X-997609083Y1050131761D01*
X-997629023Y1050074774D01*
X-997642844Y1050023195D01*
X-997656339Y1049996707D01*
X-997668324Y1049962459D01*
X-997697232Y1049916451D01*
X-997718804Y1049874115D01*
X-997741254Y1049846391D01*
X-997763753Y1049810585D01*
X-997797910Y1049776427D01*
X-997824094Y1049744094D01*
X-997856427Y1049717910D01*
X-997890585Y1049683753D01*
X-997926391Y1049661254D01*
X-997954115Y1049638804D01*
X-997996451Y1049617232D01*
X-998042459Y1049588324D01*
X-998076707Y1049576339D01*
X-998103195Y1049562844D01*
X-998154774Y1049549023D01*
X-998211761Y1049529083D01*
X-998241842Y1049525693D01*
X-998266398Y1049519114D01*
X-998378615Y1049510282D01*
X-998390000Y1049509000D01*
X-998394915Y1049509000D01*
X-999885083Y1049509000D01*
X-999890000Y1049509000D01*
X-999901388Y1049510283D01*
X-1000013601Y1049519114D01*
X-1000038155Y1049525693D01*
X-1000068239Y1049529083D01*
X-1000125229Y1049549024D01*
X-1000176804Y1049562844D01*
X-1000203289Y1049576338D01*
X-1000237541Y1049588324D01*
X-1000283552Y1049617235D01*
X-1000325884Y1049638804D01*
X-1000353603Y1049661251D01*
X-1000389415Y1049683753D01*
X-1000423577Y1049717915D01*
X-1000455905Y1049744094D01*
X-1000482083Y1049776421D01*
X-1000516247Y1049810585D01*
X-1000538749Y1049846397D01*
X-1000561195Y1049874115D01*
X-1000582762Y1049916443D01*
X-1000611676Y1049962459D01*
X-1000623662Y1049996714D01*
X-1000637155Y1050023195D01*
X-1000650972Y1050074762D01*
X-1000670917Y1050131761D01*
X-1000674307Y1050161849D01*
X-1000680885Y1050186398D01*
X-1000689713Y1050298586D01*
X-1000691000Y1050310000D01*
X-1000691000Y1052810000D01*
X-1000689713Y1052821417D01*
X-1000680885Y1052933601D01*
X-1000674307Y1052958149D01*
X-1000670917Y1052988239D01*
X-1000650971Y1053045241D01*
X-1000637155Y1053096804D01*
X-1000623663Y1053123282D01*
X-1000611676Y1053157541D01*
X-1000582757Y1053203564D01*
X-1000561196Y1053245881D01*
X-1000538756Y1053273591D01*
X-1000516247Y1053309415D01*
X-1000482077Y1053343584D01*
X-1000480336Y1053345735D01*
X-1000480336Y1053434265D01*
X-1000482077Y1053436415D01*
X-1000516247Y1053470585D01*
X-1000538754Y1053506404D01*
X-1000561196Y1053534118D01*
X-1000582760Y1053576439D01*
X-1000611676Y1053622459D01*
X-1000623662Y1053656714D01*
X-1000637155Y1053683195D01*
X-1000650972Y1053734762D01*
X-1000670917Y1053791761D01*
X-1000674307Y1053821849D01*
X-1000680885Y1053846398D01*
X-1000689713Y1053958586D01*
X-1000691000Y1053970000D01*
X-1000691000Y1056470000D01*
X-1000689713Y1056481417D01*
X-1000680885Y1056593601D01*
X-1000674307Y1056618149D01*
X-1000670917Y1056648239D01*
X-1000650971Y1056705241D01*
X-1000637155Y1056756804D01*
X-1000623663Y1056783282D01*
X-1000611676Y1056817541D01*
X-1000582759Y1056863561D01*
X-1000561195Y1056905884D01*
X-1000538752Y1056933598D01*
X-1000516247Y1056969415D01*
X-1000482079Y1057003582D01*
X-1000455905Y1057035905D01*
X-1000423582Y1057062079D01*
X-1000389415Y1057096247D01*
X-1000353598Y1057118752D01*
X-1000325884Y1057141195D01*
X-1000283561Y1057162759D01*
X-1000237541Y1057191676D01*
X-1000203282Y1057203663D01*
X-1000176804Y1057217155D01*
X-1000125241Y1057230971D01*
X-1000068239Y1057250917D01*
X-1000038149Y1057254307D01*
X-1000013601Y1057260885D01*
X-999901415Y1057269713D01*
X-999890000Y1057271000D01*
X-998390000Y1057271000D01*
X-998378584Y1057269713D01*
G37*
G36*
X-992378584Y1057269713D02*
G01*
X-992266398Y1057260885D01*
X-992241849Y1057254307D01*
X-992211761Y1057250917D01*
X-992154762Y1057230972D01*
X-992103195Y1057217155D01*
X-992076714Y1057203662D01*
X-992042459Y1057191676D01*
X-991996443Y1057162762D01*
X-991954115Y1057141195D01*
X-991926397Y1057118749D01*
X-991890585Y1057096247D01*
X-991856421Y1057062083D01*
X-991824094Y1057035905D01*
X-991797915Y1057003577D01*
X-991763753Y1056969415D01*
X-991741251Y1056933603D01*
X-991718804Y1056905884D01*
X-991697235Y1056863552D01*
X-991668324Y1056817541D01*
X-991656338Y1056783289D01*
X-991642844Y1056756804D01*
X-991629024Y1056705229D01*
X-991609083Y1056648239D01*
X-991605693Y1056618155D01*
X-991599114Y1056593601D01*
X-991590282Y1056481386D01*
X-991589000Y1056470000D01*
X-991589000Y1053970000D01*
X-991590282Y1053958613D01*
X-991599114Y1053846398D01*
X-991605693Y1053821842D01*
X-991609083Y1053791761D01*
X-991629023Y1053734774D01*
X-991642844Y1053683195D01*
X-991656339Y1053656708D01*
X-991668324Y1053622459D01*
X-991697234Y1053576448D01*
X-991718803Y1053534118D01*
X-991741250Y1053506398D01*
X-991763753Y1053470585D01*
X-991797913Y1053436424D01*
X-991799663Y1053434264D01*
X-991799663Y1053345736D01*
X-991797913Y1053343575D01*
X-991763753Y1053309415D01*
X-991741248Y1053273598D01*
X-991718803Y1053245881D01*
X-991697237Y1053203555D01*
X-991668324Y1053157541D01*
X-991656338Y1053123288D01*
X-991642844Y1053096804D01*
X-991629024Y1053045229D01*
X-991609083Y1052988239D01*
X-991605693Y1052958155D01*
X-991599114Y1052933601D01*
X-991590282Y1052821386D01*
X-991589000Y1052810000D01*
X-991589000Y1050310000D01*
X-991590282Y1050298613D01*
X-991599114Y1050186398D01*
X-991605693Y1050161842D01*
X-991609083Y1050131761D01*
X-991629023Y1050074774D01*
X-991642844Y1050023195D01*
X-991656339Y1049996707D01*
X-991668324Y1049962459D01*
X-991697232Y1049916451D01*
X-991718804Y1049874115D01*
X-991741254Y1049846391D01*
X-991763753Y1049810585D01*
X-991797910Y1049776427D01*
X-991824094Y1049744094D01*
X-991856427Y1049717910D01*
X-991890585Y1049683753D01*
X-991926391Y1049661254D01*
X-991954115Y1049638804D01*
X-991996451Y1049617232D01*
X-992042459Y1049588324D01*
X-992076707Y1049576339D01*
X-992103195Y1049562844D01*
X-992154774Y1049549023D01*
X-992211761Y1049529083D01*
X-992241842Y1049525693D01*
X-992266398Y1049519114D01*
X-992378615Y1049510282D01*
X-992390000Y1049509000D01*
X-992394915Y1049509000D01*
X-993885083Y1049509000D01*
X-993890000Y1049509000D01*
X-993901388Y1049510283D01*
X-994013601Y1049519114D01*
X-994038155Y1049525693D01*
X-994068239Y1049529083D01*
X-994125229Y1049549024D01*
X-994176804Y1049562844D01*
X-994203289Y1049576338D01*
X-994237541Y1049588324D01*
X-994283552Y1049617235D01*
X-994325884Y1049638804D01*
X-994353603Y1049661251D01*
X-994389415Y1049683753D01*
X-994423577Y1049717915D01*
X-994455905Y1049744094D01*
X-994482083Y1049776421D01*
X-994516247Y1049810585D01*
X-994538749Y1049846397D01*
X-994561195Y1049874115D01*
X-994582762Y1049916443D01*
X-994611676Y1049962459D01*
X-994623662Y1049996714D01*
X-994637155Y1050023195D01*
X-994650972Y1050074762D01*
X-994670917Y1050131761D01*
X-994674307Y1050161849D01*
X-994680885Y1050186398D01*
X-994689713Y1050298586D01*
X-994691000Y1050310000D01*
X-994691000Y1052810000D01*
X-994689713Y1052821417D01*
X-994680885Y1052933601D01*
X-994674307Y1052958149D01*
X-994670917Y1052988239D01*
X-994650971Y1053045241D01*
X-994637155Y1053096804D01*
X-994623663Y1053123282D01*
X-994611676Y1053157541D01*
X-994582757Y1053203564D01*
X-994561196Y1053245881D01*
X-994538756Y1053273591D01*
X-994516247Y1053309415D01*
X-994482077Y1053343584D01*
X-994480336Y1053345735D01*
X-994480336Y1053434265D01*
X-994482077Y1053436415D01*
X-994516247Y1053470585D01*
X-994538754Y1053506404D01*
X-994561196Y1053534118D01*
X-994582760Y1053576439D01*
X-994611676Y1053622459D01*
X-994623662Y1053656714D01*
X-994637155Y1053683195D01*
X-994650972Y1053734762D01*
X-994670917Y1053791761D01*
X-994674307Y1053821849D01*
X-994680885Y1053846398D01*
X-994689713Y1053958586D01*
X-994691000Y1053970000D01*
X-994691000Y1056470000D01*
X-994689713Y1056481417D01*
X-994680885Y1056593601D01*
X-994674307Y1056618149D01*
X-994670917Y1056648239D01*
X-994650971Y1056705241D01*
X-994637155Y1056756804D01*
X-994623663Y1056783282D01*
X-994611676Y1056817541D01*
X-994582759Y1056863561D01*
X-994561195Y1056905884D01*
X-994538752Y1056933598D01*
X-994516247Y1056969415D01*
X-994482079Y1057003582D01*
X-994455905Y1057035905D01*
X-994423582Y1057062079D01*
X-994389415Y1057096247D01*
X-994353598Y1057118752D01*
X-994325884Y1057141195D01*
X-994283561Y1057162759D01*
X-994237541Y1057191676D01*
X-994203282Y1057203663D01*
X-994176804Y1057217155D01*
X-994125241Y1057230971D01*
X-994068239Y1057250917D01*
X-994038149Y1057254307D01*
X-994013601Y1057260885D01*
X-993901415Y1057269713D01*
X-993890000Y1057271000D01*
X-992390000Y1057271000D01*
X-992378584Y1057269713D01*
G37*
G36*
X-978378584Y1057269713D02*
G01*
X-978266398Y1057260885D01*
X-978241849Y1057254307D01*
X-978211761Y1057250917D01*
X-978154762Y1057230972D01*
X-978103195Y1057217155D01*
X-978076714Y1057203662D01*
X-978042459Y1057191676D01*
X-977996443Y1057162762D01*
X-977954115Y1057141195D01*
X-977926397Y1057118749D01*
X-977890585Y1057096247D01*
X-977856421Y1057062083D01*
X-977824094Y1057035905D01*
X-977797915Y1057003577D01*
X-977763753Y1056969415D01*
X-977741251Y1056933603D01*
X-977718804Y1056905884D01*
X-977697235Y1056863552D01*
X-977668324Y1056817541D01*
X-977656338Y1056783289D01*
X-977642844Y1056756804D01*
X-977629024Y1056705229D01*
X-977609083Y1056648239D01*
X-977605693Y1056618155D01*
X-977599114Y1056593601D01*
X-977590282Y1056481386D01*
X-977589000Y1056470000D01*
X-977589000Y1053970000D01*
X-977590282Y1053958613D01*
X-977599114Y1053846398D01*
X-977605693Y1053821842D01*
X-977609083Y1053791761D01*
X-977629023Y1053734774D01*
X-977642844Y1053683195D01*
X-977656339Y1053656708D01*
X-977668324Y1053622459D01*
X-977697234Y1053576448D01*
X-977718803Y1053534118D01*
X-977741250Y1053506398D01*
X-977763753Y1053470585D01*
X-977797913Y1053436424D01*
X-977799663Y1053434264D01*
X-977799663Y1053345736D01*
X-977797913Y1053343575D01*
X-977763753Y1053309415D01*
X-977741248Y1053273598D01*
X-977718803Y1053245881D01*
X-977697237Y1053203555D01*
X-977668324Y1053157541D01*
X-977656338Y1053123288D01*
X-977642844Y1053096804D01*
X-977629024Y1053045229D01*
X-977609083Y1052988239D01*
X-977605693Y1052958155D01*
X-977599114Y1052933601D01*
X-977590282Y1052821386D01*
X-977589000Y1052810000D01*
X-977589000Y1050310000D01*
X-977590282Y1050298613D01*
X-977599114Y1050186398D01*
X-977605693Y1050161842D01*
X-977609083Y1050131761D01*
X-977629023Y1050074774D01*
X-977642844Y1050023195D01*
X-977656339Y1049996707D01*
X-977668324Y1049962459D01*
X-977697232Y1049916451D01*
X-977718804Y1049874115D01*
X-977741254Y1049846391D01*
X-977763753Y1049810585D01*
X-977797910Y1049776427D01*
X-977824094Y1049744094D01*
X-977856427Y1049717910D01*
X-977890585Y1049683753D01*
X-977926391Y1049661254D01*
X-977954115Y1049638804D01*
X-977996451Y1049617232D01*
X-978042459Y1049588324D01*
X-978076707Y1049576339D01*
X-978103195Y1049562844D01*
X-978154774Y1049549023D01*
X-978211761Y1049529083D01*
X-978241842Y1049525693D01*
X-978266398Y1049519114D01*
X-978378615Y1049510282D01*
X-978390000Y1049509000D01*
X-978394915Y1049509000D01*
X-979885083Y1049509000D01*
X-979890000Y1049509000D01*
X-979901388Y1049510283D01*
X-980013601Y1049519114D01*
X-980038155Y1049525693D01*
X-980068239Y1049529083D01*
X-980125229Y1049549024D01*
X-980176804Y1049562844D01*
X-980203289Y1049576338D01*
X-980237541Y1049588324D01*
X-980283552Y1049617235D01*
X-980325884Y1049638804D01*
X-980353603Y1049661251D01*
X-980389415Y1049683753D01*
X-980423577Y1049717915D01*
X-980455905Y1049744094D01*
X-980482083Y1049776421D01*
X-980516247Y1049810585D01*
X-980538749Y1049846397D01*
X-980561195Y1049874115D01*
X-980582762Y1049916443D01*
X-980611676Y1049962459D01*
X-980623662Y1049996714D01*
X-980637155Y1050023195D01*
X-980650972Y1050074762D01*
X-980670917Y1050131761D01*
X-980674307Y1050161849D01*
X-980680885Y1050186398D01*
X-980689713Y1050298586D01*
X-980691000Y1050310000D01*
X-980691000Y1052810000D01*
X-980689713Y1052821417D01*
X-980680885Y1052933601D01*
X-980674307Y1052958149D01*
X-980670917Y1052988239D01*
X-980650971Y1053045241D01*
X-980637155Y1053096804D01*
X-980623663Y1053123282D01*
X-980611676Y1053157541D01*
X-980582757Y1053203564D01*
X-980561196Y1053245881D01*
X-980538756Y1053273591D01*
X-980516247Y1053309415D01*
X-980482077Y1053343584D01*
X-980480336Y1053345735D01*
X-980480336Y1053434265D01*
X-980482077Y1053436415D01*
X-980516247Y1053470585D01*
X-980538754Y1053506404D01*
X-980561196Y1053534118D01*
X-980582760Y1053576439D01*
X-980611676Y1053622459D01*
X-980623662Y1053656714D01*
X-980637155Y1053683195D01*
X-980650972Y1053734762D01*
X-980670917Y1053791761D01*
X-980674307Y1053821849D01*
X-980680885Y1053846398D01*
X-980689713Y1053958586D01*
X-980691000Y1053970000D01*
X-980691000Y1056470000D01*
X-980689713Y1056481417D01*
X-980680885Y1056593601D01*
X-980674307Y1056618149D01*
X-980670917Y1056648239D01*
X-980650971Y1056705241D01*
X-980637155Y1056756804D01*
X-980623663Y1056783282D01*
X-980611676Y1056817541D01*
X-980582759Y1056863561D01*
X-980561195Y1056905884D01*
X-980538752Y1056933598D01*
X-980516247Y1056969415D01*
X-980482079Y1057003582D01*
X-980455905Y1057035905D01*
X-980423582Y1057062079D01*
X-980389415Y1057096247D01*
X-980353598Y1057118752D01*
X-980325884Y1057141195D01*
X-980283561Y1057162759D01*
X-980237541Y1057191676D01*
X-980203282Y1057203663D01*
X-980176804Y1057217155D01*
X-980125241Y1057230971D01*
X-980068239Y1057250917D01*
X-980038149Y1057254307D01*
X-980013601Y1057260885D01*
X-979901415Y1057269713D01*
X-979890000Y1057271000D01*
X-978390000Y1057271000D01*
X-978378584Y1057269713D01*
G37*
G36*
X-972378584Y1057269713D02*
G01*
X-972266398Y1057260885D01*
X-972241849Y1057254307D01*
X-972211761Y1057250917D01*
X-972154762Y1057230972D01*
X-972103195Y1057217155D01*
X-972076714Y1057203662D01*
X-972042459Y1057191676D01*
X-971996443Y1057162762D01*
X-971954115Y1057141195D01*
X-971926397Y1057118749D01*
X-971890585Y1057096247D01*
X-971856421Y1057062083D01*
X-971824094Y1057035905D01*
X-971797915Y1057003577D01*
X-971763753Y1056969415D01*
X-971741251Y1056933603D01*
X-971718804Y1056905884D01*
X-971697235Y1056863552D01*
X-971668324Y1056817541D01*
X-971656338Y1056783289D01*
X-971642844Y1056756804D01*
X-971629024Y1056705229D01*
X-971609083Y1056648239D01*
X-971605693Y1056618155D01*
X-971599114Y1056593601D01*
X-971590282Y1056481386D01*
X-971589000Y1056470000D01*
X-971589000Y1053970000D01*
X-971590282Y1053958613D01*
X-971599114Y1053846398D01*
X-971605693Y1053821842D01*
X-971609083Y1053791761D01*
X-971629023Y1053734774D01*
X-971642844Y1053683195D01*
X-971656339Y1053656708D01*
X-971668324Y1053622459D01*
X-971697234Y1053576448D01*
X-971718803Y1053534118D01*
X-971741250Y1053506398D01*
X-971763753Y1053470585D01*
X-971797913Y1053436424D01*
X-971799663Y1053434264D01*
X-971799663Y1053345736D01*
X-971797913Y1053343575D01*
X-971763753Y1053309415D01*
X-971741248Y1053273598D01*
X-971718803Y1053245881D01*
X-971697237Y1053203555D01*
X-971668324Y1053157541D01*
X-971656338Y1053123288D01*
X-971642844Y1053096804D01*
X-971629024Y1053045229D01*
X-971609083Y1052988239D01*
X-971605693Y1052958155D01*
X-971599114Y1052933601D01*
X-971590282Y1052821386D01*
X-971589000Y1052810000D01*
X-971589000Y1050310000D01*
X-971590282Y1050298613D01*
X-971599114Y1050186398D01*
X-971605693Y1050161842D01*
X-971609083Y1050131761D01*
X-971629023Y1050074774D01*
X-971642844Y1050023195D01*
X-971656339Y1049996707D01*
X-971668324Y1049962459D01*
X-971697232Y1049916451D01*
X-971718804Y1049874115D01*
X-971741254Y1049846391D01*
X-971763753Y1049810585D01*
X-971797910Y1049776427D01*
X-971824094Y1049744094D01*
X-971856427Y1049717910D01*
X-971890585Y1049683753D01*
X-971926391Y1049661254D01*
X-971954115Y1049638804D01*
X-971996451Y1049617232D01*
X-972042459Y1049588324D01*
X-972076707Y1049576339D01*
X-972103195Y1049562844D01*
X-972154774Y1049549023D01*
X-972211761Y1049529083D01*
X-972241842Y1049525693D01*
X-972266398Y1049519114D01*
X-972378615Y1049510282D01*
X-972390000Y1049509000D01*
X-972394915Y1049509000D01*
X-973885083Y1049509000D01*
X-973890000Y1049509000D01*
X-973901388Y1049510283D01*
X-974013601Y1049519114D01*
X-974038155Y1049525693D01*
X-974068239Y1049529083D01*
X-974125229Y1049549024D01*
X-974176804Y1049562844D01*
X-974203289Y1049576338D01*
X-974237541Y1049588324D01*
X-974283552Y1049617235D01*
X-974325884Y1049638804D01*
X-974353603Y1049661251D01*
X-974389415Y1049683753D01*
X-974423577Y1049717915D01*
X-974455905Y1049744094D01*
X-974482083Y1049776421D01*
X-974516247Y1049810585D01*
X-974538749Y1049846397D01*
X-974561195Y1049874115D01*
X-974582762Y1049916443D01*
X-974611676Y1049962459D01*
X-974623662Y1049996714D01*
X-974637155Y1050023195D01*
X-974650972Y1050074762D01*
X-974670917Y1050131761D01*
X-974674307Y1050161849D01*
X-974680885Y1050186398D01*
X-974689713Y1050298586D01*
X-974691000Y1050310000D01*
X-974691000Y1052810000D01*
X-974689713Y1052821417D01*
X-974680885Y1052933601D01*
X-974674307Y1052958149D01*
X-974670917Y1052988239D01*
X-974650971Y1053045241D01*
X-974637155Y1053096804D01*
X-974623663Y1053123282D01*
X-974611676Y1053157541D01*
X-974582757Y1053203564D01*
X-974561196Y1053245881D01*
X-974538756Y1053273591D01*
X-974516247Y1053309415D01*
X-974482077Y1053343584D01*
X-974480336Y1053345735D01*
X-974480336Y1053434265D01*
X-974482077Y1053436415D01*
X-974516247Y1053470585D01*
X-974538754Y1053506404D01*
X-974561196Y1053534118D01*
X-974582760Y1053576439D01*
X-974611676Y1053622459D01*
X-974623662Y1053656714D01*
X-974637155Y1053683195D01*
X-974650972Y1053734762D01*
X-974670917Y1053791761D01*
X-974674307Y1053821849D01*
X-974680885Y1053846398D01*
X-974689713Y1053958586D01*
X-974691000Y1053970000D01*
X-974691000Y1056470000D01*
X-974689713Y1056481417D01*
X-974680885Y1056593601D01*
X-974674307Y1056618149D01*
X-974670917Y1056648239D01*
X-974650971Y1056705241D01*
X-974637155Y1056756804D01*
X-974623663Y1056783282D01*
X-974611676Y1056817541D01*
X-974582759Y1056863561D01*
X-974561195Y1056905884D01*
X-974538752Y1056933598D01*
X-974516247Y1056969415D01*
X-974482079Y1057003582D01*
X-974455905Y1057035905D01*
X-974423582Y1057062079D01*
X-974389415Y1057096247D01*
X-974353598Y1057118752D01*
X-974325884Y1057141195D01*
X-974283561Y1057162759D01*
X-974237541Y1057191676D01*
X-974203282Y1057203663D01*
X-974176804Y1057217155D01*
X-974125241Y1057230971D01*
X-974068239Y1057250917D01*
X-974038149Y1057254307D01*
X-974013601Y1057260885D01*
X-973901415Y1057269713D01*
X-973890000Y1057271000D01*
X-972390000Y1057271000D01*
X-972378584Y1057269713D01*
G37*
G36*
X-968306086Y1052643005D02*
G01*
X-968290270Y1052636021D01*
X-968282468Y1052634786D01*
X-968249967Y1052618226D01*
X-968204894Y1052598324D01*
X-968126676Y1052520106D01*
X-968106776Y1052475039D01*
X-968090213Y1052442531D01*
X-968088976Y1052434726D01*
X-968081995Y1052418914D01*
X-968074000Y1052350000D01*
X-968074000Y1051550000D01*
X-968081995Y1051481086D01*
X-968088976Y1051465274D01*
X-968090213Y1051457468D01*
X-968106780Y1051424953D01*
X-968126676Y1051379894D01*
X-968204894Y1051301676D01*
X-968249953Y1051281780D01*
X-968282468Y1051265213D01*
X-968290274Y1051263976D01*
X-968306086Y1051256995D01*
X-968375000Y1051249000D01*
X-968384836Y1051249000D01*
X-969615162Y1051249000D01*
X-969625000Y1051249000D01*
X-969693914Y1051256995D01*
X-969709726Y1051263976D01*
X-969717531Y1051265213D01*
X-969750039Y1051281776D01*
X-969795106Y1051301676D01*
X-969873324Y1051379894D01*
X-969893226Y1051424967D01*
X-969909786Y1051457468D01*
X-969911021Y1051465270D01*
X-969918005Y1051481086D01*
X-969926000Y1051550000D01*
X-969926000Y1052350000D01*
X-969918005Y1052418914D01*
X-969911021Y1052434729D01*
X-969909786Y1052442531D01*
X-969893229Y1052475024D01*
X-969873324Y1052520106D01*
X-969795106Y1052598324D01*
X-969750024Y1052618229D01*
X-969717531Y1052634786D01*
X-969709729Y1052636021D01*
X-969693914Y1052643005D01*
X-969625000Y1052651000D01*
X-968375000Y1052651000D01*
X-968306086Y1052643005D01*
G37*
G36*
X-1002356086Y1052693005D02*
G01*
X-1002340270Y1052686021D01*
X-1002332468Y1052684786D01*
X-1002299967Y1052668226D01*
X-1002254894Y1052648324D01*
X-1002176676Y1052570106D01*
X-1002156776Y1052525039D01*
X-1002140213Y1052492531D01*
X-1002138976Y1052484726D01*
X-1002131995Y1052468914D01*
X-1002124000Y1052400000D01*
X-1002124000Y1051600000D01*
X-1002131995Y1051531086D01*
X-1002138976Y1051515274D01*
X-1002140213Y1051507468D01*
X-1002156780Y1051474953D01*
X-1002176676Y1051429894D01*
X-1002254894Y1051351676D01*
X-1002299953Y1051331780D01*
X-1002332468Y1051315213D01*
X-1002340274Y1051313976D01*
X-1002356086Y1051306995D01*
X-1002425000Y1051299000D01*
X-1002434836Y1051299000D01*
X-1003665162Y1051299000D01*
X-1003675000Y1051299000D01*
X-1003743914Y1051306995D01*
X-1003759726Y1051313976D01*
X-1003767531Y1051315213D01*
X-1003800039Y1051331776D01*
X-1003845106Y1051351676D01*
X-1003923324Y1051429894D01*
X-1003943226Y1051474967D01*
X-1003959786Y1051507468D01*
X-1003961021Y1051515270D01*
X-1003968005Y1051531086D01*
X-1003976000Y1051600000D01*
X-1003976000Y1052400000D01*
X-1003968005Y1052468914D01*
X-1003961021Y1052484729D01*
X-1003959786Y1052492531D01*
X-1003943229Y1052525024D01*
X-1003923324Y1052570106D01*
X-1003845106Y1052648324D01*
X-1003800024Y1052668229D01*
X-1003767531Y1052684786D01*
X-1003759729Y1052686021D01*
X-1003743914Y1052693005D01*
X-1003675000Y1052701000D01*
X-1002425000Y1052701000D01*
X-1002356086Y1052693005D01*
G37*
G36*
X-968306086Y1055743005D02*
G01*
X-968290270Y1055736021D01*
X-968282468Y1055734786D01*
X-968249967Y1055718226D01*
X-968204894Y1055698324D01*
X-968126676Y1055620106D01*
X-968106776Y1055575039D01*
X-968090213Y1055542531D01*
X-968088976Y1055534726D01*
X-968081995Y1055518914D01*
X-968074000Y1055450000D01*
X-968074000Y1054650000D01*
X-968081995Y1054581086D01*
X-968088976Y1054565274D01*
X-968090213Y1054557468D01*
X-968106780Y1054524953D01*
X-968126676Y1054479894D01*
X-968204894Y1054401676D01*
X-968249953Y1054381780D01*
X-968282468Y1054365213D01*
X-968290274Y1054363976D01*
X-968306086Y1054356995D01*
X-968375000Y1054349000D01*
X-968384836Y1054349000D01*
X-969615162Y1054349000D01*
X-969625000Y1054349000D01*
X-969693914Y1054356995D01*
X-969709726Y1054363976D01*
X-969717531Y1054365213D01*
X-969750039Y1054381776D01*
X-969795106Y1054401676D01*
X-969873324Y1054479894D01*
X-969893226Y1054524967D01*
X-969909786Y1054557468D01*
X-969911021Y1054565270D01*
X-969918005Y1054581086D01*
X-969926000Y1054650000D01*
X-969926000Y1055450000D01*
X-969918005Y1055518914D01*
X-969911021Y1055534729D01*
X-969909786Y1055542531D01*
X-969893229Y1055575024D01*
X-969873324Y1055620106D01*
X-969795106Y1055698324D01*
X-969750024Y1055718229D01*
X-969717531Y1055734786D01*
X-969709729Y1055736021D01*
X-969693914Y1055743005D01*
X-969625000Y1055751000D01*
X-968375000Y1055751000D01*
X-968306086Y1055743005D01*
G37*
G36*
X-1002356086Y1055793005D02*
G01*
X-1002340270Y1055786021D01*
X-1002332468Y1055784786D01*
X-1002299967Y1055768226D01*
X-1002254894Y1055748324D01*
X-1002176676Y1055670106D01*
X-1002156776Y1055625039D01*
X-1002140213Y1055592531D01*
X-1002138976Y1055584726D01*
X-1002131995Y1055568914D01*
X-1002124000Y1055500000D01*
X-1002124000Y1054700000D01*
X-1002131995Y1054631086D01*
X-1002138976Y1054615274D01*
X-1002140213Y1054607468D01*
X-1002156780Y1054574953D01*
X-1002176676Y1054529894D01*
X-1002254894Y1054451676D01*
X-1002299953Y1054431780D01*
X-1002332468Y1054415213D01*
X-1002340274Y1054413976D01*
X-1002356086Y1054406995D01*
X-1002425000Y1054399000D01*
X-1002434836Y1054399000D01*
X-1003665162Y1054399000D01*
X-1003675000Y1054399000D01*
X-1003743914Y1054406995D01*
X-1003759726Y1054413976D01*
X-1003767531Y1054415213D01*
X-1003800039Y1054431776D01*
X-1003845106Y1054451676D01*
X-1003923324Y1054529894D01*
X-1003943226Y1054574967D01*
X-1003959786Y1054607468D01*
X-1003961021Y1054615270D01*
X-1003968005Y1054631086D01*
X-1003976000Y1054700000D01*
X-1003976000Y1055500000D01*
X-1003968005Y1055568914D01*
X-1003961021Y1055584729D01*
X-1003959786Y1055592531D01*
X-1003943229Y1055625024D01*
X-1003923324Y1055670106D01*
X-1003845106Y1055748324D01*
X-1003800024Y1055768229D01*
X-1003767531Y1055784786D01*
X-1003759729Y1055786021D01*
X-1003743914Y1055793005D01*
X-1003675000Y1055801000D01*
X-1002425000Y1055801000D01*
X-1002356086Y1055793005D01*
G37*
M02*
